<svg width="32" height="32" viewBox="0 0 32 32" fill="none" xmlns="http://www.w3.org/2000/svg">
<rect width="32" height="32" rx="6" fill="#D49A67"/>
<path d="M15.2074 5.84252C15.2531 5.60729 15.7469 5.60729 15.7926 5.84252C16.2028 7.95507 17.106 11.3537 18.8761 13.1239C20.6463 14.894 24.0449 15.7972 26.1575 16.2074C26.3927 16.2531 26.3927 16.7469 26.1575 16.7926C24.0449 17.2028 20.6463 18.106 18.8761 19.8761C17.106 21.6463 16.2028 25.0449 15.7926 27.1575C15.7469 27.3927 15.2531 27.3927 15.2074 27.1575C14.7972 25.0449 13.894 21.6463 12.1239 19.8761C10.3537 18.106 6.95507 17.2028 4.84252 16.7926C4.60729 16.7469 4.60729 16.2531 4.84252 16.2074C6.95507 15.7972 10.3537 14.894 12.1239 13.1239C13.894 11.3537 14.7972 7.95507 15.2074 5.84252Z" fill="#3B158B"/>
</svg>
