<svg width="33" height="32" viewBox="0 0 33 32" fill="none" xmlns="http://www.w3.org/2000/svg">
<rect width="33" height="32" rx="6" fill="#3B158B"/>
<path d="M10.4967 20.4V21.6H24.8967V24H8.09672V20.4C8.09672 17.856 10.2087 15.6 12.8967 15.6H20.0967C21.4167 15.6 22.4967 14.52 22.4967 13.2V12C22.4967 10.68 21.4167 9.6 20.0967 9.6H12.8967C11.5767 9.6 10.4967 10.68 10.4967 12H8.09672C8.09672 9.456 10.2087 7.2 12.8967 7.2H20.0967C22.6167 7.2 24.8967 9.336 24.8967 12V13.2C24.8967 15.744 22.7847 18 20.0967 18H12.8967C11.5767 18 10.4967 19.08 10.4967 20.4Z" fill="#D49A67"/>
</svg>
