<svg width="32" height="32" viewBox="0 0 32 32" fill="none" xmlns="http://www.w3.org/2000/svg">
<rect width="32" height="32" rx="6" fill="#3B158B"/>
<path d="M15.2967 16.8V14.4H20.0967C21.4167 14.4 22.4967 13.32 22.4967 12C22.4967 10.68 21.4167 9.6 20.0967 9.6H12.8967C11.5767 9.6 10.4967 10.68 10.4967 12H8.09672C8.09672 9.456 10.2087 7.2 12.8967 7.2H20.0967C22.6167 7.2 24.8967 9.336 24.8967 12C24.8967 13.44 24.3447 14.64 23.2647 15.6C24.3447 16.56 24.8967 17.76 24.8967 19.2C24.8967 21.744 22.7847 24 20.0967 24H12.8967C10.2807 24 8.16872 21.912 8.09672 19.2H10.4967C10.4967 20.52 11.5767 21.6 12.8967 21.6H20.0967C21.4167 21.6 22.4967 20.52 22.4967 19.2C22.4967 17.88 21.4167 16.8 20.0967 16.8H15.2967Z" fill="#D49A67"/>
</svg>
