<svg width="32" height="32" viewBox="0 0 32 32" fill="none" xmlns="http://www.w3.org/2000/svg">
<rect width="32" height="32" rx="6" fill="#3B158B"/>
<path d="M20.0967 16.8H10.4967V19.2C10.4967 20.52 11.5767 21.6 12.8967 21.6H20.0967C21.4167 21.6 22.4967 20.52 22.4967 19.2C22.4967 17.88 21.4167 16.8 20.0967 16.8ZM10.4967 12V14.4H20.0967C21.4167 14.4 22.5447 14.88 23.4807 15.816C24.4167 16.752 24.8967 17.88 24.8967 19.2C24.8967 21.744 22.7847 24 20.0967 24H12.8967C10.3287 24 8.09672 21.912 8.09672 19.2V12C8.09672 9.456 10.2087 7.2 12.8967 7.2H20.0967C22.6647 7.2 24.8247 9.336 24.8967 12H22.4967C22.4967 10.68 21.4167 9.6 20.0967 9.6H12.8967C11.5767 9.6 10.4967 10.68 10.4967 12Z" fill="#D49A67"/>
</svg>
