<svg width="32" height="32" viewBox="0 0 32 32" fill="none" xmlns="http://www.w3.org/2000/svg">
<rect width="32" height="32" rx="6" fill="#3B158B"/>
<path d="M11.8967 21.6H19.0967C20.4167 21.6 21.4967 20.52 21.4967 19.2C21.4967 17.88 20.4167 16.8 19.0967 16.8H11.8967C10.5767 16.8 9.49672 17.88 9.49672 19.2C9.49672 20.52 10.5767 21.6 11.8967 21.6ZM19.0967 9.6H11.8967C10.5767 9.6 9.49672 10.68 9.49672 12C9.49672 13.32 10.5767 14.4 11.8967 14.4H19.0967C20.4167 14.4 21.4967 13.32 21.4967 12C21.4967 10.68 20.4167 9.6 19.0967 9.6ZM11.8967 7.2H19.0967C21.6167 7.2 23.8967 9.336 23.8967 12C23.8967 13.44 23.3447 14.64 22.2647 15.6C23.3447 16.56 23.8967 17.76 23.8967 19.2C23.8967 21.744 21.7847 24 19.0967 24H11.8967C9.32872 24 7.09672 21.912 7.09672 19.2C7.09672 17.76 7.64872 16.56 8.72872 15.6C7.64872 14.64 7.09672 13.44 7.09672 12C7.09672 9.408 9.20872 7.272 11.8967 7.2Z" fill="#D49A67"/>
</svg>
