<svg width="340" height="73" viewBox="0 0 340 73" fill="none" xmlns="http://www.w3.org/2000/svg">
<path d="M119.759 27.184L110.159 13.328V30H106.959V7.6H110.159L119.759 21.456L129.359 7.6H132.559V30H129.359V13.328L119.759 27.184ZM138.972 10.8V17.2H154.972V20.4H138.972V26.8H158.172V30H135.772V7.6H158.172V10.8H138.972ZM179.941 17.2V14C179.941 12.24 178.501 10.8 176.741 10.8H163.941V20.4H176.741C178.501 20.4 179.941 18.96 179.941 17.2ZM183.141 30H180.869L174.469 23.6H163.941V30H160.741V7.6H176.741C180.101 7.6 183.141 10.448 183.141 14V17.2C183.141 19.92 181.349 22.384 178.693 23.28L183.141 27.728V30ZM192.102 7.6H201.702C205.126 7.6 208.006 10.448 208.102 14H204.902C204.902 12.24 203.462 10.8 201.702 10.8H192.102C190.342 10.8 188.902 12.24 188.902 14V23.6C188.902 25.36 190.342 26.8 192.102 26.8H201.702C203.462 26.8 204.902 25.36 204.902 23.6H208.102C208.102 26.992 205.286 30 201.702 30H192.102C188.678 30 185.702 27.216 185.702 23.6V14C185.702 10.544 188.518 7.696 192.102 7.6ZM213.847 7.6V17.2H229.847V7.6H233.047V30H229.847V20.4H213.847V30H210.647V7.6H213.847Z" fill="#EEEBEE"/>
<path d="M124.422 55V54.9219L125.055 53.5781L128.797 49.9531C130.047 48.724 130.672 47.8099 130.672 47.2109V45.9375C130.672 45.0521 130.281 44.6094 129.5 44.6094H127.234C126.453 44.6094 126.062 45.0521 126.062 45.9375V46.7969L124.578 47.5H124.5V45.9375C124.5 44.1146 125.411 43.2031 127.234 43.2031H129.5C131.323 43.2031 132.234 44.1146 132.234 45.9375V47.2891C132.234 48.2786 131.565 49.3646 130.227 50.5469L126.938 53.5781H132.414V53.6562L131.781 55H124.422ZM137.969 53.5938H140.391C141.172 53.5938 141.562 53.151 141.562 52.2656V45.9375C141.562 45.0521 141.172 44.6094 140.391 44.6094H137.969C137.188 44.6094 136.797 45.0521 136.797 45.9375V52.2656C136.797 53.151 137.188 53.5938 137.969 53.5938ZM137.969 55C136.146 55 135.234 54.0885 135.234 52.2656V45.9375C135.234 44.1146 136.146 43.2031 137.969 43.2031H140.391C142.214 43.2031 143.125 44.1146 143.125 45.9375V52.2656C143.125 54.0885 142.214 55 140.391 55H137.969ZM145.859 55V54.9219L146.492 53.5781L150.234 49.9531C151.484 48.724 152.109 47.8099 152.109 47.2109V45.9375C152.109 45.0521 151.719 44.6094 150.938 44.6094H148.672C147.891 44.6094 147.5 45.0521 147.5 45.9375V46.7969L146.016 47.5H145.938V45.9375C145.938 44.1146 146.849 43.2031 148.672 43.2031H150.938C152.76 43.2031 153.672 44.1146 153.672 45.9375V47.2891C153.672 48.2786 153.003 49.3646 151.664 50.5469L148.375 53.5781H153.852V53.6562L153.219 55H145.859ZM160.875 50.7812V45.7344L157.477 50.7812H160.875ZM160.875 55.3125V52.2031H155.148V52.125L155.781 50.7812L160.875 43.5938L162.359 42.8906H162.438V50.7812H163.609V50.8594L162.977 52.2031H162.438V54.6094L160.953 55.3125H160.875ZM165.562 49.8125V49.7344L166.195 48.3906H172.703V48.4688L172.07 49.8125H165.562ZM175.047 55V54.9219L175.68 53.5781L179.422 49.9531C180.672 48.724 181.297 47.8099 181.297 47.2109V45.9375C181.297 45.0521 180.906 44.6094 180.125 44.6094H177.859C177.078 44.6094 176.688 45.0521 176.688 45.9375V46.7969L175.203 47.5H175.125V45.9375C175.125 44.1146 176.036 43.2031 177.859 43.2031H180.125C181.948 43.2031 182.859 44.1146 182.859 45.9375V47.2891C182.859 48.2786 182.19 49.3646 180.852 50.5469L177.562 53.5781H183.039V53.6562L182.406 55H175.047ZM188.594 53.5938H191.016C191.797 53.5938 192.188 53.151 192.188 52.2656V45.9375C192.188 45.0521 191.797 44.6094 191.016 44.6094H188.594C187.812 44.6094 187.422 45.0521 187.422 45.9375V52.2656C187.422 53.151 187.812 53.5938 188.594 53.5938ZM188.594 55C186.771 55 185.859 54.0885 185.859 52.2656V45.9375C185.859 44.1146 186.771 43.2031 188.594 43.2031H191.016C192.839 43.2031 193.75 44.1146 193.75 45.9375V52.2656C193.75 54.0885 192.839 55 191.016 55H188.594ZM196.484 55V54.9219L197.117 53.5781L200.859 49.9531C202.109 48.724 202.734 47.8099 202.734 47.2109V45.9375C202.734 45.0521 202.344 44.6094 201.562 44.6094H199.297C198.516 44.6094 198.125 45.0521 198.125 45.9375V46.7969L196.641 47.5H196.562V45.9375C196.562 44.1146 197.474 43.2031 199.297 43.2031H201.562C203.385 43.2031 204.297 44.1146 204.297 45.9375V47.2891C204.297 48.2786 203.628 49.3646 202.289 50.5469L199 53.5781H204.477V53.6562L203.844 55H196.484ZM210.031 53.5938H212.453C213.234 53.5938 213.625 53.151 213.625 52.2656V50.25C213.625 49.3646 213.234 48.9219 212.453 48.9219H210.031C209.25 48.9219 208.859 49.3646 208.859 50.25V52.2656C208.859 53.151 209.25 53.5938 210.031 53.5938ZM210.031 55C208.208 55 207.297 54.0885 207.297 52.2656V45.9375C207.297 44.1146 208.208 43.2031 210.031 43.2031H212.297C214.12 43.2031 215.031 44.1146 215.031 45.9375V46.1719L213.547 46.875H213.469V45.9375C213.469 45.0521 213.078 44.6094 212.297 44.6094H210.031C209.25 44.6094 208.859 45.0521 208.859 45.9375V47.8438C209.224 47.625 209.615 47.5156 210.031 47.5156H212.453C214.276 47.5156 215.188 48.4271 215.188 50.25V52.2656C215.188 54.0885 214.276 55 212.453 55H210.031Z" fill="#D49A67"/>
<path d="M125.283 70C123.916 70 123.232 69.3164 123.232 67.9492V67.3047L124.346 66.7773H124.404V67.9492C124.404 68.6133 124.697 68.9453 125.283 68.9453H127.1C127.686 68.9453 127.979 68.6133 127.979 67.9492V66.7188C127.979 66.0547 127.686 65.7227 127.1 65.7227H125.518C124.346 65.7227 123.76 65.1367 123.76 63.9648V62.9102C123.76 61.7383 124.346 61.1523 125.518 61.1523H126.865C128.037 61.1523 128.623 61.7383 128.623 62.9102V63.2207L127.51 63.748H127.451V62.9102C127.451 62.4414 127.256 62.207 126.865 62.207H125.518C125.127 62.207 124.932 62.4414 124.932 62.9102V63.9648C124.932 64.4336 125.127 64.668 125.518 64.668H127.1C128.467 64.668 129.15 65.3516 129.15 66.7188V67.9492C129.15 69.3164 128.467 70 127.1 70H125.283ZM132.725 70C131.553 70 130.967 69.4141 130.967 68.2422V65.3125C130.967 64.1406 131.553 63.5547 132.725 63.5547H134.072C135.244 63.5547 135.83 64.1406 135.83 65.3125V65.623L134.717 66.1504H134.658V65.3125C134.658 64.8438 134.463 64.6094 134.072 64.6094H132.725C132.334 64.6094 132.139 64.8438 132.139 65.3125V68.2422C132.139 68.7109 132.334 68.9453 132.725 68.9453H134.072C134.463 68.9453 134.658 68.7109 134.658 68.2422V67.9316L135.771 67.4043H135.83V68.2422C135.83 69.4141 135.244 70 134.072 70H132.725ZM137.588 70.2344V65.3125C137.588 64.1406 138.174 63.5547 139.346 63.5547H140.811V63.6133L140.342 64.6094H139.346C138.955 64.6094 138.76 64.8438 138.76 65.3125V69.707L137.646 70.2344H137.588ZM143.564 68.9453H144.912C145.303 68.9453 145.498 68.7109 145.498 68.2422V65.3125C145.498 64.8438 145.303 64.6094 144.912 64.6094H143.564C143.174 64.6094 142.979 64.8438 142.979 65.3125V68.2422C142.979 68.7109 143.174 68.9453 143.564 68.9453ZM143.564 70C142.393 70 141.807 69.4141 141.807 68.2422V65.3125C141.807 64.1406 142.393 63.5547 143.564 63.5547H144.912C146.084 63.5547 146.67 64.1406 146.67 65.3125V68.2422C146.67 69.4141 146.084 70 144.912 70H143.564ZM148.721 70.2344V61.4453L149.834 60.918H149.893V69.707L148.779 70.2344H148.721ZM152.236 70.2344V61.4453L153.35 60.918H153.408V69.707L152.295 70.2344H152.236ZM161.611 68.9453H162.842C163.232 68.9453 163.428 68.7109 163.428 68.2422V67.4395C163.428 66.9707 163.232 66.7363 162.842 66.7363H161.611C161.221 66.7363 161.025 66.9707 161.025 67.4395V68.2422C161.025 68.7109 161.221 68.9453 161.611 68.9453ZM161.611 70C160.439 70 159.854 69.4141 159.854 68.2422V67.4395C159.854 66.2676 160.439 65.6816 161.611 65.6816H162.842C163.045 65.6816 163.24 65.7402 163.428 65.8574V65.3125C163.428 64.8438 163.232 64.6094 162.842 64.6094H160.744V64.5508L161.213 63.5547H162.842C164.014 63.5547 164.6 64.1406 164.6 65.3125V69.707L163.486 70.2344H163.428V69.8242C163.279 69.9414 163.084 70 162.842 70H161.611ZM166.357 70.2344V65.3125C166.357 64.1406 166.943 63.5547 168.115 63.5547H169.463C170.635 63.5547 171.221 64.1406 171.221 65.3125V69.707L170.107 70.2344H170.049V65.3125C170.049 64.8438 169.854 64.6094 169.463 64.6094H168.115C167.725 64.6094 167.529 64.8438 167.529 65.3125V69.707L166.416 70.2344H166.357ZM174.736 70C173.564 70 172.979 69.4141 172.979 68.2422V65.3125C172.979 64.1406 173.564 63.5547 174.736 63.5547H176.084C176.35 63.5547 176.545 63.6152 176.67 63.7363V61.4453L177.783 60.918H177.842V68.2422C177.842 69.4141 177.256 70 176.084 70H174.736ZM174.736 68.9453H176.084C176.475 68.9453 176.67 68.7109 176.67 68.2422V65.3125C176.67 64.8438 176.475 64.6094 176.084 64.6094H174.736C174.346 64.6094 174.15 64.8438 174.15 65.3125V68.2422C174.15 68.7109 174.346 68.9453 174.736 68.9453ZM184.873 70.2344V65.207H183.994V65.1484L184.469 64.1406H184.873V62.9102C184.873 61.7383 185.459 61.1523 186.631 61.1523H188.096V61.2109L187.627 62.207H186.631C186.24 62.207 186.045 62.4414 186.045 62.9102V64.1406H187.984V64.1992L187.51 65.207H186.045V69.707L184.932 70.2344H184.873ZM190.234 62.2598C190.098 62.1191 190.029 61.9512 190.029 61.7559C190.029 61.5566 190.098 61.3867 190.234 61.2461C190.371 61.1055 190.537 61.0352 190.732 61.0352C190.928 61.0352 191.094 61.1055 191.23 61.2461C191.367 61.3867 191.436 61.5566 191.436 61.7559C191.436 61.9512 191.367 62.1191 191.23 62.2598C191.094 62.4004 190.928 62.4707 190.732 62.4707C190.537 62.4707 190.371 62.4004 190.234 62.2598ZM190.146 70.2344V63.8477L191.26 63.3203H191.318V69.707L190.205 70.2344H190.146ZM193.369 70.2344V65.3125C193.369 64.1406 193.955 63.5547 195.127 63.5547H196.475C197.646 63.5547 198.232 64.1406 198.232 65.3125V69.707L197.119 70.2344H197.061V65.3125C197.061 64.8438 196.865 64.6094 196.475 64.6094H195.127C194.736 64.6094 194.541 64.8438 194.541 65.3125V69.707L193.428 70.2344H193.369ZM201.748 70C200.576 70 199.99 69.4141 199.99 68.2422V65.3125C199.99 64.1406 200.576 63.5547 201.748 63.5547H203.096C203.361 63.5547 203.557 63.6152 203.682 63.7363V61.4453L204.795 60.918H204.854V68.2422C204.854 69.4141 204.268 70 203.096 70H201.748ZM201.748 68.9453H203.096C203.486 68.9453 203.682 68.7109 203.682 68.2422V65.3125C203.682 64.8438 203.486 64.6094 203.096 64.6094H201.748C201.357 64.6094 201.162 64.8438 201.162 65.3125V68.2422C201.162 68.7109 201.357 68.9453 201.748 68.9453ZM211.973 62.2598C211.836 62.1191 211.768 61.9512 211.768 61.7559C211.768 61.5566 211.836 61.3867 211.973 61.2461C212.109 61.1055 212.275 61.0352 212.471 61.0352C212.666 61.0352 212.832 61.1055 212.969 61.2461C213.105 61.3867 213.174 61.5566 213.174 61.7559C213.174 61.9512 213.105 62.1191 212.969 62.2598C212.832 62.4004 212.666 62.4707 212.471 62.4707C212.275 62.4707 212.109 62.4004 211.973 62.2598ZM211.885 70.2344V63.8477L212.998 63.3203H213.057V69.707L211.943 70.2344H211.885ZM215.881 70.2344V64.6211H214.375V64.5625L214.85 63.5547H215.881V61.4453L216.994 60.918H217.053V63.5547H218.559V63.6133L218.084 64.6211H217.053V69.707L215.939 70.2344H215.881Z" fill="#D49A67"/>
</svg>
