<svg width="200" height="200" viewBox="0 0 200 200" fill="none" xmlns="http://www.w3.org/2000/svg">
<path d="M0 99.75C0 44.6596 44.6596 0 99.75 0C154.84 0 199.5 44.6596 199.5 99.75C199.5 154.84 154.84 199.5 99.75 199.5C44.6596 199.5 0 154.84 0 99.75Z" fill="#3B158B"/>
<path d="M56.4019 125.075V126.675H75.6019V129.875H53.2019V125.075C53.2019 121.683 56.0179 118.675 59.6019 118.675H69.2019C70.9619 118.675 72.4019 117.235 72.4019 115.475V113.875C72.4019 112.115 70.9619 110.675 69.2019 110.675H59.6019C57.8419 110.675 56.4019 112.115 56.4019 113.875H53.2019C53.2019 110.483 56.0179 107.475 59.6019 107.475H69.2019C72.5619 107.475 75.6019 110.323 75.6019 113.875V115.475C75.6019 118.867 72.7859 121.875 69.2019 121.875H59.6019C57.8419 121.875 56.4019 123.315 56.4019 125.075ZM97.3706 123.475V113.875C97.3706 112.115 95.9306 110.675 94.1706 110.675H84.5706C82.8106 110.675 81.3706 112.115 81.3706 113.875V123.475C81.3706 125.235 82.8106 126.675 84.5706 126.675H94.1706C95.9306 126.675 97.3706 125.235 97.3706 123.475ZM100.571 113.875V123.475C100.571 126.867 97.7546 129.875 94.1706 129.875H84.5706C81.1466 129.875 78.1706 127.091 78.1706 123.475V113.875C78.1706 110.483 80.9866 107.475 84.5706 107.475H94.1706C97.5946 107.475 100.475 110.323 100.571 113.875ZM106.339 125.075V126.675H125.539V129.875H103.139V125.075C103.139 121.683 105.955 118.675 109.539 118.675H119.139C120.899 118.675 122.339 117.235 122.339 115.475V113.875C122.339 112.115 120.899 110.675 119.139 110.675H109.539C107.779 110.675 106.339 112.115 106.339 113.875H103.139C103.139 110.483 105.955 107.475 109.539 107.475H119.139C122.499 107.475 125.539 110.323 125.539 113.875V115.475C125.539 118.867 122.723 121.875 119.139 121.875H109.539C107.779 121.875 106.339 123.315 106.339 125.075ZM124.601 126.675V123.475L140.601 107.475H143.801V123.475H147.001V126.675H143.801V129.875H140.601V126.675H124.601ZM140.601 123.475V111.987L129.113 123.475H140.601Z" fill="#EEEBEE"/>
<path d="M99.1875 57C99.1875 57 100.37 68.0402 104.978 72.6474C109.585 77.2547 120.625 78.4375 120.625 78.4375C120.625 78.4375 109.585 79.6203 104.978 84.2276C100.37 88.8348 99.1875 99.875 99.1875 99.875C99.1875 99.875 98.0047 88.8348 93.3974 84.2276C88.7902 79.6203 77.75 78.4375 77.75 78.4375C77.75 78.4375 88.7902 77.2547 93.3974 72.6474C98.0047 68.0402 99.1875 57 99.1875 57Z" fill="#EEEBEE"/>
</svg>
