<svg width="200" height="200" viewBox="0 0 200 200" fill="none" xmlns="http://www.w3.org/2000/svg">
<path d="M0 99.75C0 44.6596 44.6596 0 99.75 0C154.84 0 199.5 44.6596 199.5 99.75C199.5 154.84 154.84 199.5 99.75 199.5C44.6596 199.5 0 154.84 0 99.75Z" fill="#3B158B"/>
<path d="M54.0113 125.075V126.675H73.2113V129.875H50.8113V125.075C50.8113 121.683 53.6273 118.675 57.2113 118.675H66.8113C68.5713 118.675 70.0113 117.235 70.0113 115.475V113.875C70.0113 112.115 68.5713 110.675 66.8113 110.675H57.2113C55.4513 110.675 54.0113 112.115 54.0113 113.875H50.8113C50.8113 110.483 53.6273 107.475 57.2113 107.475H66.8113C70.1713 107.475 73.2113 110.323 73.2113 113.875V115.475C73.2113 118.867 70.3953 121.875 66.8113 121.875H57.2113C55.4513 121.875 54.0113 123.315 54.0113 125.075ZM94.98 123.475V113.875C94.98 112.115 93.54 110.675 91.78 110.675H82.18C80.42 110.675 78.98 112.115 78.98 113.875V123.475C78.98 125.235 80.42 126.675 82.18 126.675H91.78C93.54 126.675 94.98 125.235 94.98 123.475ZM98.18 113.875V123.475C98.18 126.867 95.364 129.875 91.78 129.875H82.18C78.756 129.875 75.78 127.091 75.78 123.475V113.875C75.78 110.483 78.596 107.475 82.18 107.475H91.78C95.204 107.475 98.084 110.323 98.18 113.875ZM103.949 125.075V126.675H123.149V129.875H100.749V125.075C100.749 121.683 103.565 118.675 107.149 118.675H116.749C118.509 118.675 119.949 117.235 119.949 115.475V113.875C119.949 112.115 118.509 110.675 116.749 110.675H107.149C105.389 110.675 103.949 112.115 103.949 113.875H100.749C100.749 110.483 103.565 107.475 107.149 107.475H116.749C120.109 107.475 123.149 110.323 123.149 113.875V115.475C123.149 118.867 120.333 121.875 116.749 121.875H107.149C105.389 121.875 103.949 123.315 103.949 125.075ZM147.158 110.675H130.198V115.795H142.038C145.398 115.795 148.438 118.643 148.438 122.195V123.475C148.438 126.867 145.622 129.875 142.038 129.875H132.438C128.95 129.875 126.134 127.091 126.038 123.475H129.238C129.238 125.235 130.678 126.675 132.438 126.675H142.038C143.798 126.675 145.238 125.235 145.238 123.475V122.195C145.238 120.435 143.798 118.995 142.038 118.995H126.998V107.475H147.158V110.675Z" fill="#EEEBEE"/>
<path d="M99.1875 57C99.1875 57 100.37 68.0402 104.978 72.6474C109.585 77.2547 120.625 78.4375 120.625 78.4375C120.625 78.4375 109.585 79.6203 104.978 84.2276C100.37 88.8348 99.1875 99.875 99.1875 99.875C99.1875 99.875 98.0047 88.8348 93.3974 84.2276C88.7902 79.6203 77.75 78.4375 77.75 78.4375C77.75 78.4375 88.7902 77.2547 93.3974 72.6474C98.0047 68.0402 99.1875 57 99.1875 57Z" fill="#EEEBEE"/>
</svg>
