<svg width="200" height="200" viewBox="0 0 200 200" fill="none" xmlns="http://www.w3.org/2000/svg">
<rect width="199.5" height="199.5" rx="99.75" fill="#3B158B"/>
<path d="M40.9768 98.207L30.1768 82.619V101.375H26.5768V76.175H30.1768L40.9768 91.763L51.7768 76.175H55.3768V101.375H51.7768V82.619L40.9768 98.207ZM80.2309 94.175V83.375C80.2309 81.395 78.6109 79.775 76.6309 79.775H65.8309C63.8509 79.775 62.2309 81.395 62.2309 83.375V94.175C62.2309 96.155 63.8509 97.775 65.8309 97.775H76.6309C78.6109 97.775 80.2309 96.155 80.2309 94.175ZM83.8309 83.375V94.175C83.8309 98.135 80.5909 101.375 76.6309 101.375H65.8309C61.8349 101.375 58.6309 98.171 58.6309 94.175V83.375C58.6309 79.415 61.8709 76.175 65.8309 76.175H76.6309C80.4469 76.175 83.8309 79.451 83.8309 83.375ZM109.778 79.775H98.9776V101.375H95.3776V79.775H84.5776V76.175H109.778V79.775ZM111.585 101.375V76.175H115.185V101.375H111.585ZM140.032 94.175V83.375C140.032 81.395 138.412 79.775 136.432 79.775H125.632C123.652 79.775 122.032 81.395 122.032 83.375V94.175C122.032 96.155 123.652 97.775 125.632 97.775H136.432C138.412 97.775 140.032 96.155 140.032 94.175ZM143.632 83.375V94.175C143.632 98.135 140.392 101.375 136.432 101.375H125.632C121.636 101.375 118.432 98.171 118.432 94.175V83.375C118.432 79.415 121.672 76.175 125.632 76.175H136.432C140.248 76.175 143.632 79.451 143.632 83.375ZM172.081 76.175V101.375H168.481L150.481 82.007V101.375H146.881V76.175H150.481L168.481 95.255V76.175H172.081Z" fill="#EEEBEE"/>
<path d="M53.9219 122V121.922L54.5547 120.578L58.2969 116.953C59.5469 115.724 60.1719 114.81 60.1719 114.211V112.938C60.1719 112.052 59.7812 111.609 59 111.609H56.7344C55.9531 111.609 55.5625 112.052 55.5625 112.938V113.797L54.0781 114.5H54V112.938C54 111.115 54.9115 110.203 56.7344 110.203H59C60.8229 110.203 61.7344 111.115 61.7344 112.938V114.289C61.7344 115.279 61.0651 116.365 59.7266 117.547L56.4375 120.578H61.9141V120.656L61.2812 122H53.9219ZM67.4688 120.594H69.8906C70.6719 120.594 71.0625 120.151 71.0625 119.266V112.938C71.0625 112.052 70.6719 111.609 69.8906 111.609H67.4688C66.6875 111.609 66.2969 112.052 66.2969 112.938V119.266C66.2969 120.151 66.6875 120.594 67.4688 120.594ZM67.4688 122C65.6458 122 64.7344 121.089 64.7344 119.266V112.938C64.7344 111.115 65.6458 110.203 67.4688 110.203H69.8906C71.7135 110.203 72.625 111.115 72.625 112.938V119.266C72.625 121.089 71.7135 122 69.8906 122H67.4688ZM75.3594 122V121.922L75.9922 120.578L79.7344 116.953C80.9844 115.724 81.6094 114.81 81.6094 114.211V112.938C81.6094 112.052 81.2188 111.609 80.4375 111.609H78.1719C77.3906 111.609 77 112.052 77 112.938V113.797L75.5156 114.5H75.4375V112.938C75.4375 111.115 76.349 110.203 78.1719 110.203H80.4375C82.2604 110.203 83.1719 111.115 83.1719 112.938V114.289C83.1719 115.279 82.5026 116.365 81.1641 117.547L77.875 120.578H83.3516V120.656L82.7188 122H75.3594ZM90.375 117.781V112.734L86.9766 117.781H90.375ZM90.375 122.312V119.203H84.6484V119.125L85.2812 117.781L90.375 110.594L91.8594 109.891H91.9375V117.781H93.1094V117.859L92.4766 119.203H91.9375V121.609L90.4531 122.312H90.375ZM95.0625 116.812V116.734L95.6953 115.391H102.203V115.469L101.57 116.812H95.0625ZM104.547 122V121.922L105.18 120.578L108.922 116.953C110.172 115.724 110.797 114.81 110.797 114.211V112.938C110.797 112.052 110.406 111.609 109.625 111.609H107.359C106.578 111.609 106.188 112.052 106.188 112.938V113.797L104.703 114.5H104.625V112.938C104.625 111.115 105.536 110.203 107.359 110.203H109.625C111.448 110.203 112.359 111.115 112.359 112.938V114.289C112.359 115.279 111.69 116.365 110.352 117.547L107.062 120.578H112.539V120.656L111.906 122H104.547ZM118.094 120.594H120.516C121.297 120.594 121.688 120.151 121.688 119.266V112.938C121.688 112.052 121.297 111.609 120.516 111.609H118.094C117.312 111.609 116.922 112.052 116.922 112.938V119.266C116.922 120.151 117.312 120.594 118.094 120.594ZM118.094 122C116.271 122 115.359 121.089 115.359 119.266V112.938C115.359 111.115 116.271 110.203 118.094 110.203H120.516C122.339 110.203 123.25 111.115 123.25 112.938V119.266C123.25 121.089 122.339 122 120.516 122H118.094ZM125.984 122V121.922L126.617 120.578L130.359 116.953C131.609 115.724 132.234 114.81 132.234 114.211V112.938C132.234 112.052 131.844 111.609 131.062 111.609H128.797C128.016 111.609 127.625 112.052 127.625 112.938V113.797L126.141 114.5H126.062V112.938C126.062 111.115 126.974 110.203 128.797 110.203H131.062C132.885 110.203 133.797 111.115 133.797 112.938V114.289C133.797 115.279 133.128 116.365 131.789 117.547L128.5 120.578H133.977V120.656L133.344 122H125.984ZM139.531 120.594H141.953C142.734 120.594 143.125 120.151 143.125 119.266V117.25C143.125 116.365 142.734 115.922 141.953 115.922H139.531C138.75 115.922 138.359 116.365 138.359 117.25V119.266C138.359 120.151 138.75 120.594 139.531 120.594ZM139.531 122C137.708 122 136.797 121.089 136.797 119.266V112.938C136.797 111.115 137.708 110.203 139.531 110.203H141.797C143.62 110.203 144.531 111.115 144.531 112.938V113.172L143.047 113.875H142.969V112.938C142.969 112.052 142.578 111.609 141.797 111.609H139.531C138.75 111.609 138.359 112.052 138.359 112.938V114.844C138.724 114.625 139.115 114.516 139.531 114.516H141.953C143.776 114.516 144.688 115.427 144.688 117.25V119.266C144.688 121.089 143.776 122 141.953 122H139.531Z" fill="#D49A67"/>
<path d="M54.7832 135C53.416 135 52.7324 134.316 52.7324 132.949V132.305L53.8457 131.777H53.9043V132.949C53.9043 133.613 54.1973 133.945 54.7832 133.945H56.5996C57.1855 133.945 57.4785 133.613 57.4785 132.949V131.719C57.4785 131.055 57.1855 130.723 56.5996 130.723H55.0176C53.8457 130.723 53.2598 130.137 53.2598 128.965V127.91C53.2598 126.738 53.8457 126.152 55.0176 126.152H56.3652C57.5371 126.152 58.123 126.738 58.123 127.91V128.221L57.0098 128.748H56.9512V127.91C56.9512 127.441 56.7559 127.207 56.3652 127.207H55.0176C54.627 127.207 54.4316 127.441 54.4316 127.91V128.965C54.4316 129.434 54.627 129.668 55.0176 129.668H56.5996C57.9668 129.668 58.6504 130.352 58.6504 131.719V132.949C58.6504 134.316 57.9668 135 56.5996 135H54.7832ZM62.2246 135C61.0527 135 60.4668 134.414 60.4668 133.242V130.312C60.4668 129.141 61.0527 128.555 62.2246 128.555H63.5723C64.7441 128.555 65.3301 129.141 65.3301 130.312V130.623L64.2168 131.15H64.1582V130.312C64.1582 129.844 63.9629 129.609 63.5723 129.609H62.2246C61.834 129.609 61.6387 129.844 61.6387 130.312V133.242C61.6387 133.711 61.834 133.945 62.2246 133.945H63.5723C63.9629 133.945 64.1582 133.711 64.1582 133.242V132.932L65.2715 132.404H65.3301V133.242C65.3301 134.414 64.7441 135 63.5723 135H62.2246ZM67.0879 135.234V130.312C67.0879 129.141 67.6738 128.555 68.8457 128.555H70.3105V128.613L69.8418 129.609H68.8457C68.4551 129.609 68.2598 129.844 68.2598 130.312V134.707L67.1465 135.234H67.0879ZM73.0645 133.945H74.4121C74.8027 133.945 74.998 133.711 74.998 133.242V130.312C74.998 129.844 74.8027 129.609 74.4121 129.609H73.0645C72.6738 129.609 72.4785 129.844 72.4785 130.312V133.242C72.4785 133.711 72.6738 133.945 73.0645 133.945ZM73.0645 135C71.8926 135 71.3066 134.414 71.3066 133.242V130.312C71.3066 129.141 71.8926 128.555 73.0645 128.555H74.4121C75.584 128.555 76.1699 129.141 76.1699 130.312V133.242C76.1699 134.414 75.584 135 74.4121 135H73.0645ZM78.2207 135.234V126.445L79.334 125.918H79.3926V134.707L78.2793 135.234H78.2207ZM81.7363 135.234V126.445L82.8496 125.918H82.9082V134.707L81.7949 135.234H81.7363ZM91.1113 133.945H92.3418C92.7324 133.945 92.9277 133.711 92.9277 133.242V132.439C92.9277 131.971 92.7324 131.736 92.3418 131.736H91.1113C90.7207 131.736 90.5254 131.971 90.5254 132.439V133.242C90.5254 133.711 90.7207 133.945 91.1113 133.945ZM91.1113 135C89.9395 135 89.3535 134.414 89.3535 133.242V132.439C89.3535 131.268 89.9395 130.682 91.1113 130.682H92.3418C92.5449 130.682 92.7402 130.74 92.9277 130.857V130.312C92.9277 129.844 92.7324 129.609 92.3418 129.609H90.2441V129.551L90.7129 128.555H92.3418C93.5137 128.555 94.0996 129.141 94.0996 130.312V134.707L92.9863 135.234H92.9277V134.824C92.7793 134.941 92.584 135 92.3418 135H91.1113ZM95.8574 135.234V130.312C95.8574 129.141 96.4434 128.555 97.6152 128.555H98.9629C100.135 128.555 100.721 129.141 100.721 130.312V134.707L99.6074 135.234H99.5488V130.312C99.5488 129.844 99.3535 129.609 98.9629 129.609H97.6152C97.2246 129.609 97.0293 129.844 97.0293 130.312V134.707L95.916 135.234H95.8574ZM104.236 135C103.064 135 102.479 134.414 102.479 133.242V130.312C102.479 129.141 103.064 128.555 104.236 128.555H105.584C105.85 128.555 106.045 128.615 106.17 128.736V126.445L107.283 125.918H107.342V133.242C107.342 134.414 106.756 135 105.584 135H104.236ZM104.236 133.945H105.584C105.975 133.945 106.17 133.711 106.17 133.242V130.312C106.17 129.844 105.975 129.609 105.584 129.609H104.236C103.846 129.609 103.65 129.844 103.65 130.312V133.242C103.65 133.711 103.846 133.945 104.236 133.945ZM114.373 135.234V130.207H113.494V130.148L113.969 129.141H114.373V127.91C114.373 126.738 114.959 126.152 116.131 126.152H117.596V126.211L117.127 127.207H116.131C115.74 127.207 115.545 127.441 115.545 127.91V129.141H117.484V129.199L117.01 130.207H115.545V134.707L114.432 135.234H114.373ZM119.734 127.26C119.598 127.119 119.529 126.951 119.529 126.756C119.529 126.557 119.598 126.387 119.734 126.246C119.871 126.105 120.037 126.035 120.232 126.035C120.428 126.035 120.594 126.105 120.73 126.246C120.867 126.387 120.936 126.557 120.936 126.756C120.936 126.951 120.867 127.119 120.73 127.26C120.594 127.4 120.428 127.471 120.232 127.471C120.037 127.471 119.871 127.4 119.734 127.26ZM119.646 135.234V128.848L120.76 128.32H120.818V134.707L119.705 135.234H119.646ZM122.869 135.234V130.312C122.869 129.141 123.455 128.555 124.627 128.555H125.975C127.146 128.555 127.732 129.141 127.732 130.312V134.707L126.619 135.234H126.561V130.312C126.561 129.844 126.365 129.609 125.975 129.609H124.627C124.236 129.609 124.041 129.844 124.041 130.312V134.707L122.928 135.234H122.869ZM131.248 135C130.076 135 129.49 134.414 129.49 133.242V130.312C129.49 129.141 130.076 128.555 131.248 128.555H132.596C132.861 128.555 133.057 128.615 133.182 128.736V126.445L134.295 125.918H134.354V133.242C134.354 134.414 133.768 135 132.596 135H131.248ZM131.248 133.945H132.596C132.986 133.945 133.182 133.711 133.182 133.242V130.312C133.182 129.844 132.986 129.609 132.596 129.609H131.248C130.857 129.609 130.662 129.844 130.662 130.312V133.242C130.662 133.711 130.857 133.945 131.248 133.945ZM141.473 127.26C141.336 127.119 141.268 126.951 141.268 126.756C141.268 126.557 141.336 126.387 141.473 126.246C141.609 126.105 141.775 126.035 141.971 126.035C142.166 126.035 142.332 126.105 142.469 126.246C142.605 126.387 142.674 126.557 142.674 126.756C142.674 126.951 142.605 127.119 142.469 127.26C142.332 127.4 142.166 127.471 141.971 127.471C141.775 127.471 141.609 127.4 141.473 127.26ZM141.385 135.234V128.848L142.498 128.32H142.557V134.707L141.443 135.234H141.385ZM145.381 135.234V129.621H143.875V129.562L144.35 128.555H145.381V126.445L146.494 125.918H146.553V128.555H148.059V128.613L147.584 129.621H146.553V134.707L145.439 135.234H145.381Z" fill="#D49A67"/>
</svg>
