<svg width="273" height="263" viewBox="0 0 273 263" fill="none" xmlns="http://www.w3.org/2000/svg">
<path d="M155.373 176.879C165.657 173.383 176.535 168.358 188.006 161.803C199.477 155.161 210.453 146.727 220.935 136.502C231.418 126.189 239.675 114.39 245.707 101.106C246.102 100.057 246.3 99.3583 246.3 99.0087C246.3 97.9599 245.855 97.1733 244.965 96.649C244.174 96.0372 243.037 95.7313 241.554 95.7313H214.557C212.481 95.7313 211.047 96.5179 210.256 98.091C207.289 102.636 204.57 106.35 202.097 109.234C201.504 109.846 201.207 110.501 201.207 111.2C201.207 112.249 201.999 113.036 203.581 113.56C210.799 116.095 216.09 119.197 219.452 122.868C221.331 124.878 222.27 126.713 222.27 128.374C222.27 129.597 221.776 130.559 220.787 131.258C219.897 131.87 218.76 132.176 217.376 132.176C215.398 132.176 213.865 131.52 212.777 130.209C210.305 126.888 207.981 124.222 205.806 122.212C203.729 120.202 201.504 118.498 199.131 117.1C198.34 116.663 197.647 116.444 197.054 116.444C195.966 116.444 194.977 116.925 194.088 117.886C189.242 122.693 183.507 127.631 176.881 132.7C170.355 137.681 165.262 141.046 161.603 142.794C160.614 143.231 159.823 143.45 159.23 143.45C158.735 143.45 158.29 143.362 157.895 143.187C157.598 142.925 157.45 142.619 157.45 142.27C157.45 141.483 158.191 140.653 159.675 139.779C165.311 136.371 171.343 131.564 177.771 125.359C184.298 119.153 190.132 112.511 195.274 105.432C200.515 98.3532 204.223 91.8422 206.399 85.8992C207.091 83.8891 208.08 82.4034 209.366 81.442C210.651 80.4807 212.085 80 213.667 80C215.843 80 217.722 80.6992 219.304 82.0975C219.798 82.4471 220.045 82.8841 220.045 83.4085C220.045 84.195 219.452 84.5883 218.266 84.5883C217.672 84.5883 217.227 84.8068 216.931 85.2438C216.634 85.6808 216.288 86.3362 215.892 87.2102L215.447 88.39C215.151 89.0018 215.002 89.5699 215.002 90.0943C215.002 91.4926 216.09 92.1918 218.266 92.1918L243.482 92.0607C245.064 91.9733 246.696 91.1867 248.377 89.701C249.267 89.0018 250.008 88.5211 250.602 88.2589C251.195 87.9094 251.838 87.7346 252.53 87.7346C254.112 87.7346 255.744 88.1278 257.425 88.9144C259.106 89.701 260.49 90.6186 261.578 91.6674C262.765 92.7161 263.358 93.5901 263.358 94.2893C263.358 94.901 263.111 95.3817 262.617 95.7313C262.221 95.9935 261.529 96.3431 260.54 96.7801C259.254 97.3918 258.216 97.9599 257.425 98.4843C256.634 99.0087 256.041 99.8389 255.645 100.975C247.932 119.853 235.126 136.196 217.227 150.004C216.139 150.791 215.447 151.534 215.151 152.233C214.854 152.845 214.953 153.325 215.447 153.675C216.238 154.112 216.881 154.33 217.376 154.33H253.42C254.31 154.33 255.151 154.156 255.942 153.806C256.832 153.369 257.623 152.888 258.315 152.364C258.908 151.927 259.551 151.534 260.243 151.184C260.935 150.747 261.628 150.529 262.32 150.529C263.902 150.529 265.484 150.966 267.066 151.84C268.748 152.714 270.132 153.719 271.22 154.855C272.406 155.991 273 156.909 273 157.608C273 158.22 272.851 158.7 272.555 159.05C272.258 159.312 271.813 159.662 271.22 160.099C270.429 160.623 269.786 161.191 269.291 161.803C268.896 162.415 268.698 163.332 268.698 164.556V195.625C268.698 197.286 268.006 198.597 266.621 199.558C265.237 200.519 263.704 201 262.023 201C260.639 201 259.749 200.607 259.353 199.82C258.958 199.121 258.76 198.16 258.76 196.936C258.76 195.363 258.315 194.096 257.425 193.134C256.535 192.26 255.249 191.823 253.568 191.823H219.452C217.771 191.823 216.486 192.129 215.596 192.741C214.706 193.44 214.261 194.402 214.261 195.625C214.261 197.198 213.568 198.466 212.184 199.427C210.8 200.476 209.316 201 207.734 201C206.745 201 205.905 200.738 205.212 200.213C204.619 199.689 204.322 198.946 204.322 197.985L204.471 192.61C204.57 191.736 204.619 190.469 204.619 188.808L204.767 163.638C204.767 162.764 204.57 162.065 204.174 161.541C203.778 161.016 203.235 160.754 202.542 160.754C201.85 160.754 201.059 161.016 200.169 161.541C186.325 169.668 171.591 175.786 155.966 179.894C155.67 179.981 155.324 180.025 154.928 180.025C154.335 180.025 153.84 179.938 153.445 179.763C153.148 179.501 153 179.195 153 178.845C153 178.059 153.791 177.403 155.373 176.879ZM214.261 183.564C214.261 184.963 214.706 186.099 215.596 186.973C216.584 187.759 217.87 188.153 219.452 188.153L254.013 188.284C255.694 188.284 256.98 187.891 257.87 187.104C258.76 186.23 259.205 185.094 259.205 183.696V162.458C259.205 160.973 258.76 159.836 257.87 159.05C256.98 158.263 255.694 157.87 254.013 157.87H219.452C217.87 157.87 216.584 158.263 215.596 159.05C214.706 159.836 214.261 160.973 214.261 162.458V183.564Z" fill="#EEEBEE"/>
<g filter="url(#filter0_fg_495_10653)">
<path d="M269 255V188C269 185.239 266.761 183 264 183C261.238 183 259 185.239 259 188V255C259 257.761 261.238 260 264 260C266.761 260 269 257.761 269 255Z" fill="url(#paint0_linear_495_10653)"/>
</g>
<mask id="mask0_495_10653" style="mask-type:alpha" maskUnits="userSpaceOnUse" x="207" y="155" width="59" height="37">
<path d="M264 155.156H207.742L212.371 190.224L265.78 191.164L264 155.156Z" fill="#D9D9D9"/>
</mask>
<g mask="url(#mask0_495_10653)">
<g filter="url(#filter1_fg_495_10653)">
<path d="M243.348 169.872C226.613 158.287 206.496 155.156 206.496 155.156H262.754L262.046 190.851C262.046 190.851 261.331 182.321 243.348 169.872Z" fill="url(#paint1_linear_495_10653)"/>
</g>
</g>
<mask id="mask1_495_10653" style="mask-type:alpha" maskUnits="userSpaceOnUse" x="196" y="92" width="60" height="24">
<path d="M255.454 93.1869L212.081 92.5342L196.348 115.704L224.413 115.378L255.454 93.1869Z" fill="#EEEBEE"/>
</mask>
<g mask="url(#mask1_495_10653)">
<g filter="url(#filter2_fg_495_10653)">
<path d="M216.287 100.988C229.723 95.0804 243.703 93.7866 243.703 93.7866L210.946 92.5342L195.279 113.826C195.279 113.826 204.893 105.998 216.287 100.988Z" fill="url(#paint2_linear_495_10653)"/>
</g>
</g>
<mask id="mask2_495_10653" style="mask-type:alpha" maskUnits="userSpaceOnUse" x="160" y="159" width="60" height="24">
<path d="M160.743 160.193L204.116 159.54L219.849 182.71L191.784 182.384L160.743 160.193Z" fill="#EEEBEE"/>
</mask>
<g mask="url(#mask2_495_10653)">
<g filter="url(#filter3_fg_495_10653)">
<path d="M200.979 166.428C194.213 160.792 192.077 158.601 192.077 158.601L210.592 159.54L209.197 175.493C209.226 175.73 209.168 175.822 209.168 175.822L209.197 175.493C209.103 174.71 208.075 172.34 200.979 166.428Z" fill="url(#paint3_linear_495_10653)"/>
</g>
</g>
<path d="M23.7162 38.2485C26.4027 37.5538 29.3878 35.9909 32.6714 33.5597C35.955 31.1285 38.9898 27.6988 41.7759 23.2705C44.5619 18.8423 46.5022 13.5023 47.5968 7.25068C47.8953 5.42728 48.9401 3.95119 50.7311 2.82242C52.5221 1.60682 54.5122 0.999023 56.7012 0.999023C59.4873 0.999023 61.7759 1.91072 63.5669 3.73413C64.5619 4.68924 65.0595 5.47069 65.0595 6.07849C65.0595 6.94678 64.3132 7.29409 62.8206 7.12043H62.6714C62.0744 7.12043 61.4774 7.33751 60.8804 7.77165C60.2833 8.20579 59.8853 8.68335 59.6863 9.20432C58.7908 12.1565 57.945 14.3272 57.149 15.7165C56.8505 16.3243 56.7012 16.8452 56.7012 17.2794C56.7012 18.7555 57.7958 19.4935 59.9848 19.4935H114.91C116.9 19.4935 118.542 19.1462 119.836 18.4516C121.229 17.6701 122.671 16.6282 124.164 15.3257C126.353 13.4155 128.542 12.4604 130.731 12.4604C133.219 12.4604 135.955 13.8496 138.94 16.6282C140.035 17.7569 140.582 18.8423 140.582 19.8842C140.582 20.8393 140.134 21.6208 139.239 22.2286C138.343 22.8364 137.05 23.1403 135.358 23.1403L128.045 23.2705C125.557 23.2705 124.313 24.3559 124.313 26.5266V45.5421C124.313 47.7128 125.557 48.7981 128.045 48.7981H131.328C133.318 48.7981 134.96 48.4508 136.253 47.7562C137.647 46.9747 139.089 45.9328 140.582 44.6304C142.771 42.7201 144.96 41.765 147.149 41.765C149.637 41.765 152.373 43.1543 155.358 45.9328C156.452 47.0616 157 48.1469 157 49.1889C157 50.144 156.552 50.9254 155.656 51.5332C154.761 52.141 153.467 52.4449 151.776 52.4449L128.045 52.5752C125.557 52.5752 124.313 53.6605 124.313 55.8313V74.7165C124.313 76.8872 125.159 77.9725 126.85 77.9725C128.841 77.9725 130.482 77.6252 131.776 76.9306C133.169 76.1491 134.612 75.1072 136.104 73.8048C138.293 71.8945 140.482 70.9394 142.671 70.9394C145.159 70.9394 147.895 72.3287 150.88 75.1072C151.975 76.236 152.522 77.3213 152.522 78.3633C152.522 79.3184 152.074 80.0998 151.179 80.7076C150.283 81.3154 148.99 81.6193 147.298 81.6193H44.1639C40.1838 81.6193 35.358 81.793 29.6863 82.1403L26.1042 82.4008C25.1092 82.4876 24.3132 82.2705 23.7162 81.7496C23.2187 81.1418 22.9699 80.4906 22.9699 79.7959C22.9699 79.0145 23.2187 78.3633 23.7162 77.8423C24.3132 77.3213 25.1092 77.1042 26.1042 77.1911L29.6863 77.4516C35.955 77.7989 40.7809 77.9725 44.1639 77.9725C46.353 77.9725 47.4475 76.8872 47.4475 74.7165V55.701C47.4475 53.5303 46.2037 52.4449 43.7162 52.4449H38.1938C34.2137 52.4449 29.3878 52.6186 23.7162 52.9659L20.1341 53.2264C19.1391 53.3132 18.343 53.0962 17.746 52.5752C17.2485 51.9674 16.9998 51.3162 16.9998 50.6215C16.9998 49.8401 17.2485 49.1889 17.746 48.6679C18.343 48.1469 19.1391 47.9299 20.1341 48.0167L23.7162 48.2772C29.9848 48.6245 34.8107 48.7981 38.1938 48.7981H43.7162C46.2037 48.7981 47.4475 47.7128 47.4475 45.5421V35.3831C47.4475 33.6466 46.8007 32.7783 45.5072 32.7783C44.8107 32.7783 43.9649 33.1256 42.9699 33.8202C37.4973 37.8143 31.2286 40.3758 24.1639 41.5045L23.2684 41.6348C22.4724 41.6348 21.8256 41.5045 21.3281 41.2441C20.8306 40.9836 20.5818 40.6797 20.5818 40.3324C20.5818 39.4641 21.6266 38.7694 23.7162 38.2485ZM61.1789 23.1403C58.6913 23.1403 57.4475 24.2257 57.4475 26.3964V45.5421C57.4475 47.7128 58.6913 48.7981 61.1789 48.7981H65.955C68.4425 48.7981 69.6863 47.7128 69.6863 45.5421V26.3964C69.6863 24.2257 68.4425 23.1403 65.955 23.1403H61.1789ZM83.4177 23.1403C80.9301 23.1403 79.6863 24.2257 79.6863 26.3964V45.5421C79.6863 47.7128 80.9301 48.7981 83.4177 48.7981H88.0445C90.5321 48.7981 91.7759 47.7128 91.7759 45.5421V26.5266C91.7759 24.3559 90.5321 23.2705 88.0445 23.2705L83.4177 23.1403ZM101.776 45.5421C101.776 47.7128 103.02 48.7981 105.507 48.7981H110.582C113.069 48.7981 114.313 47.7128 114.313 45.5421V26.5266C114.313 24.3559 113.069 23.2705 110.582 23.2705H105.507C103.02 23.2705 101.776 24.3559 101.776 26.5266V45.5421ZM57.4475 74.7165C57.4475 76.8872 58.6913 77.9725 61.1789 77.9725H65.955C68.4425 77.9725 69.6863 76.8872 69.6863 74.7165V55.701C69.6863 53.5303 68.4425 52.4449 65.955 52.4449H61.1789C58.6913 52.4449 57.4475 53.5303 57.4475 55.701V74.7165ZM79.6863 74.7165C79.6863 76.8872 80.9301 77.9725 83.4177 77.9725H88.0445C90.5321 77.9725 91.7759 76.8872 91.7759 74.7165V55.8313C91.7759 53.6605 90.5321 52.5752 88.0445 52.5752L83.4177 52.4449C80.9301 52.4449 79.6863 53.5303 79.6863 55.701V74.7165ZM101.776 74.7165C101.776 76.8872 103.02 77.9725 105.507 77.9725H110.582C113.069 77.9725 114.313 76.8872 114.313 74.7165V55.8313C114.313 53.6605 113.069 52.5752 110.582 52.5752H105.507C103.02 52.5752 101.776 53.6605 101.776 55.8313V74.7165ZM134.186 115.608C132.754 109.674 131.676 104.108 129.089 100.635C126.602 97.0748 123.617 94.2963 120.134 92.2992C119.139 91.7783 118.642 91.0836 118.642 90.2154C118.642 89.2602 119.288 88.7827 120.582 88.7827C121.179 88.7827 121.676 88.8695 122.074 89.0432C126.651 90.6929 131.428 93.2978 136.403 96.8577C141.378 100.331 147.071 105.301 147.787 109.986C147.988 111.304 147.787 111.981 147.787 113.11C147.787 114.586 146.751 115.7 145.656 116.655C144.562 117.697 143.318 118.218 141.925 118.218C140.831 118.218 139.359 118.639 138.364 118.031C137.368 117.423 134.783 116.824 134.186 115.608ZM74.0147 115.873C72.3231 105.541 69.5868 97.5958 65.8057 92.0388C65.6067 91.6915 65.5072 91.3875 65.5072 91.1271C65.5072 90.6061 65.7062 90.1285 66.1042 89.6944C66.5022 89.2602 66.9998 89.0432 67.5968 89.0432C68.0943 89.0432 68.6913 89.2602 69.3878 89.6944C73.3679 92.3861 76.7012 95.8158 79.3878 99.9836C82.0744 104.065 83.7659 107.928 84.4624 111.575C84.5619 111.836 84.6117 112.226 84.6117 112.747C84.6117 114.571 83.9152 116.047 82.5221 117.176C81.1291 118.391 79.6366 118.999 78.0445 118.999C77.0495 118.999 76.154 118.739 75.358 118.218C74.6614 117.697 74.2137 116.915 74.0147 115.873ZM105.955 114.31C104.263 109.274 102.423 105.02 100.433 101.546C98.542 97.9865 96.2037 94.8607 93.4177 92.169C93.0197 91.8217 92.8206 91.3875 92.8206 90.8666C92.8206 90.4324 92.9699 90.0851 93.2684 89.8246C93.6664 89.4773 94.1639 89.3037 94.7609 89.3037C95.2585 89.3037 95.8057 89.4339 96.4027 89.6944C100.283 91.5178 104.164 94.3831 108.045 98.2904C111.925 102.198 114.612 106.409 116.104 110.924C116.303 111.445 116.403 112.14 116.403 113.008C116.403 114.571 115.855 115.873 114.761 116.915C113.666 117.957 112.423 118.478 111.03 118.478C108.642 118.478 106.95 117.089 105.955 114.31ZM49.6863 91.3875C50.5818 90.0851 51.5769 89.4339 52.6714 89.4339C53.2684 89.4339 53.6664 89.7378 53.8654 90.3456C54.1639 90.8666 54.2137 91.648 54.0147 92.69C53.7162 94.9475 52.4226 97.8563 50.1341 101.416C47.945 104.889 45.2585 108.102 42.0744 111.054C38.8903 114.093 35.756 116.09 32.6714 117.045C31.4774 117.48 30.1838 117.697 28.7908 117.697C27.1988 117.697 25.955 117.306 25.0595 116.524C24.1639 115.83 23.7162 114.961 23.7162 113.92C23.7162 112.357 24.6117 111.098 26.4027 110.143C35.955 105.454 43.7162 99.2021 49.6863 91.3875Z" fill="#EEEBEE"/>
<mask id="mask3_495_10653" style="mask-type:alpha" maskUnits="userSpaceOnUse" x="109" y="21" width="60" height="24">
<path d="M168.772 21.9437L125.4 21.291L109.667 44.4611L137.731 44.1348L168.772 21.9437Z" fill="#EEEBEE"/>
</mask>
<g mask="url(#mask3_495_10653)">
<g filter="url(#filter4_fg_495_10653)">
<path d="M128.539 28.1793C135.305 22.5433 137.441 20.3516 137.441 20.3516L118.926 21.2909L120.321 37.244C120.292 37.4812 120.349 37.5726 120.349 37.5726L120.321 37.244C120.415 36.4613 121.442 34.0914 128.539 28.1793Z" fill="url(#paint4_linear_495_10653)"/>
</g>
</g>
<mask id="mask4_495_10653" style="mask-type:alpha" maskUnits="userSpaceOnUse" x="-1" y="0" width="61" height="45">
<path d="M-0.000209808 43.2085L43.3725 44.4609L59.1057 -0.000583649L31.041 0.625633L-0.000209808 43.2085Z" fill="#EEEBEE"/>
</mask>
<g mask="url(#mask4_495_10653)">
<g filter="url(#filter5_fg_495_10653)">
<path d="M38.4548 23.483C33.8048 30.5849 23.5002 39.7646 23.5002 39.7646L48.7805 28.4927L51.2729 4.3833C51.2729 4.3833 45.2199 13.1504 38.4548 23.483Z" fill="url(#paint5_linear_495_10653)"/>
</g>
</g>
<mask id="mask5_495_10653" style="mask-type:alpha" maskUnits="userSpaceOnUse" x="65" y="56" width="60" height="24">
<path d="M124.623 78.8756L81.2498 79.5283L65.5166 56.3582L93.5813 56.6846L124.623 78.8756Z" fill="#EEEBEE"/>
</mask>
<g mask="url(#mask5_495_10653)">
<g filter="url(#filter6_fg_495_10653)">
<path d="M86.5244 70.4482C93.2897 76.0841 101.835 79.5283 101.835 79.5283H74.7746L74.0623 56.3582C74.0623 56.3582 77.2765 62.7441 86.5244 70.4482Z" fill="url(#paint6_linear_495_10653)"/>
</g>
</g>
<g filter="url(#filter7_fg_495_10653)">
<rect x="133.846" y="106.039" width="14" height="61" rx="7" fill="url(#paint7_linear_495_10653)"/>
</g>
<g filter="url(#filter8_fg_495_10653)">
<rect x="105" y="105.998" width="11" height="39" rx="5.5" fill="url(#paint8_linear_495_10653)"/>
</g>
<path d="M19.7998 151.888L12.5998 141.496V154H10.1998V137.2H12.5998L19.7998 147.592L26.9998 137.2H29.3998V154H26.9998V141.496L19.7998 151.888ZM46.2091 149.2V137.2H48.6091V149.2C48.6091 151.744 46.4971 154 43.8091 154H36.6091C34.0411 154 31.8091 151.912 31.8091 149.2V137.2H34.2091V149.2C34.2091 150.52 35.2891 151.6 36.6091 151.6H43.8091C45.1291 151.6 46.2091 150.52 46.2091 149.2ZM60.6044 151.888L53.4044 141.496V154H51.0044V137.2H53.4044L60.6044 147.592L67.8044 137.2H70.2044V154H67.8044V141.496L60.6044 151.888ZM75.0138 139.6V144.4H87.0138V146.8H75.0138V151.6H89.4138V154H72.6138V137.2H89.4138V139.6H75.0138ZM91.3404 154V137.2H93.7404V154H91.3404Z" fill="white"/>
<path d="M50.3598 176.4V177.6H64.7598V180H47.9598V176.4C47.9598 173.856 50.0718 171.6 52.7598 171.6H59.9598C61.2798 171.6 62.3598 170.52 62.3598 169.2V168C62.3598 166.68 61.2798 165.6 59.9598 165.6H52.7598C51.4398 165.6 50.3598 166.68 50.3598 168H47.9598C47.9598 165.456 50.0718 163.2 52.7598 163.2H59.9598C62.4798 163.2 64.7598 165.336 64.7598 168V169.2C64.7598 171.744 62.6478 174 59.9598 174H52.7598C51.4398 174 50.3598 175.08 50.3598 176.4ZM81.0863 175.2V168C81.0863 166.68 80.0063 165.6 78.6863 165.6H71.4863C70.1663 165.6 69.0863 166.68 69.0863 168V175.2C69.0863 176.52 70.1663 177.6 71.4863 177.6H78.6863C80.0063 177.6 81.0863 176.52 81.0863 175.2ZM83.4863 168V175.2C83.4863 177.744 81.3743 180 78.6863 180H71.4863C68.9183 180 66.6863 177.912 66.6863 175.2V168C66.6863 165.456 68.7983 163.2 71.4863 163.2H78.6863C81.2543 163.2 83.4143 165.336 83.4863 168ZM87.8129 176.4V177.6H102.213V180H85.4129V176.4C85.4129 173.856 87.5249 171.6 90.2129 171.6H97.4129C98.7329 171.6 99.8129 170.52 99.8129 169.2V168C99.8129 166.68 98.7329 165.6 97.4129 165.6H90.2129C88.8929 165.6 87.8129 166.68 87.8129 168H85.4129C85.4129 165.456 87.5249 163.2 90.2129 163.2H97.4129C99.9329 163.2 102.213 165.336 102.213 168V169.2C102.213 171.744 100.101 174 97.4129 174H90.2129C88.8929 174 87.8129 175.08 87.8129 176.4ZM116.139 172.8H106.539V175.2C106.539 176.52 107.619 177.6 108.939 177.6H116.139C117.459 177.6 118.539 176.52 118.539 175.2C118.539 173.88 117.459 172.8 116.139 172.8ZM106.539 168V170.4H116.139C117.459 170.4 118.587 170.88 119.523 171.816C120.459 172.752 120.939 173.88 120.939 175.2C120.939 177.744 118.827 180 116.139 180H108.939C106.371 180 104.139 177.912 104.139 175.2V168C104.139 165.456 106.251 163.2 108.939 163.2H116.139C118.707 163.2 120.867 165.336 120.939 168H118.539C118.539 166.68 117.459 165.6 116.139 165.6H108.939C107.619 165.6 106.539 166.68 106.539 168Z" fill="white"/>
<defs>
<filter id="filter0_fg_495_10653" x="256.495" y="180.495" width="15.0097" height="82.0097" filterUnits="userSpaceOnUse" color-interpolation-filters="sRGB">
<feFlood flood-opacity="0" result="BackgroundImageFix"/>
<feBlend mode="normal" in="SourceGraphic" in2="BackgroundImageFix" result="shape"/>
<feGaussianBlur stdDeviation="1.25244" result="effect1_foregroundBlur_495_10653"/>
<feTurbulence type="fractalNoise" baseFrequency="0.99900001287460327 0.99900001287460327" numOctaves="3" seed="4922" />
<feDisplacementMap in="effect1_foregroundBlur_495_10653" scale="1.0019497871398926" xChannelSelector="R" yChannelSelector="G" result="displacedImage" width="100%" height="100%" />
<feMerge result="effect2_texture_495_10653">
<feMergeNode in="displacedImage"/>
</feMerge>
</filter>
<filter id="filter1_fg_495_10653" x="200.046" y="148.706" width="69.1574" height="48.5954" filterUnits="userSpaceOnUse" color-interpolation-filters="sRGB">
<feFlood flood-opacity="0" result="BackgroundImageFix"/>
<feBlend mode="normal" in="SourceGraphic" in2="BackgroundImageFix" result="shape"/>
<feGaussianBlur stdDeviation="3.22503" result="effect1_foregroundBlur_495_10653"/>
<feTurbulence type="fractalNoise" baseFrequency="0.99900001287460327 0.99900001287460327" numOctaves="3" seed="5234" />
<feDisplacementMap in="effect1_foregroundBlur_495_10653" scale="5.0097484588623047" xChannelSelector="R" yChannelSelector="G" result="displacedImage" width="100%" height="100%" />
<feMerge result="effect2_texture_495_10653">
<feMergeNode in="displacedImage"/>
</feMerge>
</filter>
<filter id="filter2_fg_495_10653" x="188.829" y="86.0841" width="61.3242" height="34.1911" filterUnits="userSpaceOnUse" color-interpolation-filters="sRGB">
<feFlood flood-opacity="0" result="BackgroundImageFix"/>
<feBlend mode="normal" in="SourceGraphic" in2="BackgroundImageFix" result="shape"/>
<feGaussianBlur stdDeviation="3.22503" result="effect1_foregroundBlur_495_10653"/>
<feTurbulence type="fractalNoise" baseFrequency="0.99900001287460327 0.99900001287460327" numOctaves="3" seed="1673" />
<feDisplacementMap in="effect1_foregroundBlur_495_10653" scale="5.0097484588623047" xChannelSelector="R" yChannelSelector="G" result="displacedImage" width="100%" height="100%" />
<feMerge result="effect2_texture_495_10653">
<feMergeNode in="displacedImage"/>
</feMerge>
</filter>
<filter id="filter3_fg_495_10653" x="185.627" y="152.151" width="31.415" height="30.1208" filterUnits="userSpaceOnUse" color-interpolation-filters="sRGB">
<feFlood flood-opacity="0" result="BackgroundImageFix"/>
<feBlend mode="normal" in="SourceGraphic" in2="BackgroundImageFix" result="shape"/>
<feGaussianBlur stdDeviation="3.22503" result="effect1_foregroundBlur_495_10653"/>
<feTurbulence type="fractalNoise" baseFrequency="0.99900001287460327 0.99900001287460327" numOctaves="3" seed="1673" />
<feDisplacementMap in="effect1_foregroundBlur_495_10653" scale="5.0097484588623047" xChannelSelector="R" yChannelSelector="G" result="displacedImage" width="100%" height="100%" />
<feMerge result="effect2_texture_495_10653">
<feMergeNode in="displacedImage"/>
</feMerge>
</filter>
<filter id="filter4_fg_495_10653" x="112.476" y="13.9015" width="31.415" height="30.1208" filterUnits="userSpaceOnUse" color-interpolation-filters="sRGB">
<feFlood flood-opacity="0" result="BackgroundImageFix"/>
<feBlend mode="normal" in="SourceGraphic" in2="BackgroundImageFix" result="shape"/>
<feGaussianBlur stdDeviation="3.22503" result="effect1_foregroundBlur_495_10653"/>
<feTurbulence type="fractalNoise" baseFrequency="0.99900001287460327 0.99900001287460327" numOctaves="3" seed="1673" />
<feDisplacementMap in="effect1_foregroundBlur_495_10653" scale="5.0097484588623047" xChannelSelector="R" yChannelSelector="G" result="displacedImage" width="100%" height="100%" />
<feMerge result="effect2_texture_495_10653">
<feMergeNode in="displacedImage"/>
</feMerge>
</filter>
<filter id="filter5_fg_495_10653" x="17.0502" y="-2.06626" width="40.6728" height="48.281" filterUnits="userSpaceOnUse" color-interpolation-filters="sRGB">
<feFlood flood-opacity="0" result="BackgroundImageFix"/>
<feBlend mode="normal" in="SourceGraphic" in2="BackgroundImageFix" result="shape"/>
<feGaussianBlur stdDeviation="3.22503" result="effect1_foregroundBlur_495_10653"/>
<feTurbulence type="fractalNoise" baseFrequency="0.99900001287460327 0.99900001287460327" numOctaves="3" seed="1673" />
<feDisplacementMap in="effect1_foregroundBlur_495_10653" scale="5.0097484588623047" xChannelSelector="R" yChannelSelector="G" result="displacedImage" width="100%" height="100%" />
<feMerge result="effect2_texture_495_10653">
<feMergeNode in="displacedImage"/>
</feMerge>
</filter>
<filter id="filter6_fg_495_10653" x="67.6122" y="49.9083" width="40.6728" height="36.07" filterUnits="userSpaceOnUse" color-interpolation-filters="sRGB">
<feFlood flood-opacity="0" result="BackgroundImageFix"/>
<feBlend mode="normal" in="SourceGraphic" in2="BackgroundImageFix" result="shape"/>
<feGaussianBlur stdDeviation="3.22503" result="effect1_foregroundBlur_495_10653"/>
<feTurbulence type="fractalNoise" baseFrequency="0.99900001287460327 0.99900001287460327" numOctaves="3" seed="1673" />
<feDisplacementMap in="effect1_foregroundBlur_495_10653" scale="5.0097484588623047" xChannelSelector="R" yChannelSelector="G" result="displacedImage" width="100%" height="100%" />
<feMerge result="effect2_texture_495_10653">
<feMergeNode in="displacedImage"/>
</feMerge>
</filter>
<filter id="filter7_fg_495_10653" x="131.341" y="103.534" width="19.0097" height="66.0097" filterUnits="userSpaceOnUse" color-interpolation-filters="sRGB">
<feFlood flood-opacity="0" result="BackgroundImageFix"/>
<feBlend mode="normal" in="SourceGraphic" in2="BackgroundImageFix" result="shape"/>
<feGaussianBlur stdDeviation="1.25244" result="effect1_foregroundBlur_495_10653"/>
<feTurbulence type="fractalNoise" baseFrequency="0.99900001287460327 0.99900001287460327" numOctaves="3" seed="2330" />
<feDisplacementMap in="effect1_foregroundBlur_495_10653" scale="1.0019497871398926" xChannelSelector="R" yChannelSelector="G" result="displacedImage" width="100%" height="100%" />
<feMerge result="effect2_texture_495_10653">
<feMergeNode in="displacedImage"/>
</feMerge>
</filter>
<filter id="filter8_fg_495_10653" x="102.496" y="103.493" width="16.0097" height="44.0097" filterUnits="userSpaceOnUse" color-interpolation-filters="sRGB">
<feFlood flood-opacity="0" result="BackgroundImageFix"/>
<feBlend mode="normal" in="SourceGraphic" in2="BackgroundImageFix" result="shape"/>
<feGaussianBlur stdDeviation="1.25244" result="effect1_foregroundBlur_495_10653"/>
<feTurbulence type="fractalNoise" baseFrequency="0.99900001287460327 0.99900001287460327" numOctaves="3" seed="2330" />
<feDisplacementMap in="effect1_foregroundBlur_495_10653" scale="1.0019497871398926" xChannelSelector="R" yChannelSelector="G" result="displacedImage" width="100%" height="100%" />
<feMerge result="effect2_texture_495_10653">
<feMergeNode in="displacedImage"/>
</feMerge>
</filter>
<linearGradient id="paint0_linear_495_10653" x1="263.464" y1="218.103" x2="264.81" y2="259.974" gradientUnits="userSpaceOnUse">
<stop stop-color="#EEEBEE"/>
<stop offset="1" stop-color="#EEEBEE" stop-opacity="0"/>
</linearGradient>
<linearGradient id="paint1_linear_495_10653" x1="247.621" y1="162.358" x2="234.458" y2="178.819" gradientUnits="userSpaceOnUse">
<stop stop-color="#EEEBEE"/>
<stop offset="1" stop-color="#EEEBEE" stop-opacity="0"/>
</linearGradient>
<linearGradient id="paint2_linear_495_10653" x1="217.639" y1="98.3524" x2="226.587" y2="118.248" gradientUnits="userSpaceOnUse">
<stop stop-color="#EEEBEE"/>
<stop offset="1" stop-color="#EEEBEE" stop-opacity="0"/>
</linearGradient>
<linearGradient id="paint3_linear_495_10653" x1="198.558" y1="165.358" x2="189.61" y2="185.253" gradientUnits="userSpaceOnUse">
<stop stop-color="#EEEBEE"/>
<stop offset="1" stop-color="#EEEBEE" stop-opacity="0"/>
</linearGradient>
<linearGradient id="paint4_linear_495_10653" x1="130.96" y1="27.1091" x2="139.907" y2="47.0042" gradientUnits="userSpaceOnUse">
<stop stop-color="#EEEBEE"/>
<stop offset="1" stop-color="#EEEBEE" stop-opacity="0"/>
</linearGradient>
<linearGradient id="paint5_linear_495_10653" x1="37.8143" y1="21.109" x2="28.8668" y2="1.2138" gradientUnits="userSpaceOnUse">
<stop stop-color="#EEEBEE"/>
<stop offset="1" stop-color="#EEEBEE" stop-opacity="0"/>
</linearGradient>
<linearGradient id="paint6_linear_495_10653" x1="86.8088" y1="73.7101" x2="95.7563" y2="53.815" gradientUnits="userSpaceOnUse">
<stop stop-color="#EEEBEE"/>
<stop offset="1" stop-color="#EEEBEE" stop-opacity="0"/>
</linearGradient>
<linearGradient id="paint7_linear_495_10653" x1="141.215" y1="119.56" x2="140.946" y2="167.04" gradientUnits="userSpaceOnUse">
<stop stop-color="#EEEBEE"/>
<stop offset="1" stop-color="#EEEBEE" stop-opacity="0"/>
</linearGradient>
<linearGradient id="paint8_linear_495_10653" x1="110.79" y1="120.466" x2="110.612" y2="144.999" gradientUnits="userSpaceOnUse">
<stop stop-color="#EEEBEE"/>
<stop offset="1" stop-color="#EEEBEE" stop-opacity="0"/>
</linearGradient>
</defs>
</svg>
