<svg width="306" height="141" viewBox="0 0 306 141" fill="none" xmlns="http://www.w3.org/2000/svg">
<path d="M235.36 129.216V130.416H249.76V132.816H232.96V129.216C232.96 126.672 235.072 124.416 237.76 124.416H244.96C246.28 124.416 247.36 123.336 247.36 122.016V120.816C247.36 119.496 246.28 118.416 244.96 118.416H237.76C236.44 118.416 235.36 119.496 235.36 120.816H232.96C232.96 118.272 235.072 116.016 237.76 116.016H244.96C247.48 116.016 249.76 118.152 249.76 120.816V122.016C249.76 124.56 247.648 126.816 244.96 126.816H237.76C236.44 126.816 235.36 127.896 235.36 129.216ZM266.087 128.016V120.816C266.087 119.496 265.007 118.416 263.687 118.416H256.487C255.167 118.416 254.087 119.496 254.087 120.816V128.016C254.087 129.336 255.167 130.416 256.487 130.416H263.687C265.007 130.416 266.087 129.336 266.087 128.016ZM268.487 120.816V128.016C268.487 130.56 266.375 132.816 263.687 132.816H256.487C253.919 132.816 251.687 130.728 251.687 128.016V120.816C251.687 118.272 253.799 116.016 256.487 116.016H263.687C266.255 116.016 268.415 118.152 268.487 120.816ZM272.813 129.216V130.416H287.213V132.816H270.413V129.216C270.413 126.672 272.525 124.416 275.213 124.416H282.413C283.733 124.416 284.813 123.336 284.813 122.016V120.816C284.813 119.496 283.733 118.416 282.413 118.416H275.213C273.893 118.416 272.813 119.496 272.813 120.816H270.413C270.413 118.272 272.525 116.016 275.213 116.016H282.413C284.933 116.016 287.213 118.152 287.213 120.816V122.016C287.213 124.56 285.101 126.816 282.413 126.816H275.213C273.893 126.816 272.813 127.896 272.813 129.216ZM286.509 130.416V128.016L298.509 116.016H300.909V128.016H303.309V130.416H300.909V132.816H298.509V130.416H286.509ZM298.509 128.016V119.4L289.893 128.016H298.509Z" fill="white"/>
<path d="M47.1807 56.0029L73.4433 95.8164H51.0182L28.5931 61.879V95.8164H9.28595V40.0535L15.6417 37.2953H8.80627L1.49113 0.000166246C1.49113 0.000166246 5.32858 15.5898 28.5931 19.6671V54.5639L51.0182 20.6264H70.4453L47.1807 56.0029ZM97.1181 95.8164H77.9309V20.6264H97.1181V95.8164ZM138.15 20.6264C147.145 20.6264 174.246 24.224 174.246 60.2001C174.246 95.0969 142.827 95.6965 129.756 95.8164C122.441 95.9363 107.091 95.8164 107.091 95.8164V20.6264H126.398C131.675 20.6264 136.472 20.6264 138.15 20.6264ZM126.398 80.3467C126.398 80.3467 153.5 83.1049 153.5 58.2814C153.5 36.0961 141.388 33.5778 133.354 33.5778C131.435 33.5778 129.037 33.5778 126.398 33.5778V80.3467ZM182.365 20.6264H217.502V77.2288C217.502 77.2288 217.022 97.1355 196.156 97.1355C183.325 97.1355 173.491 86.7025 173.491 86.7025L183.325 74.8304C183.325 74.8304 188.721 81.3061 192.918 81.3061C197.116 81.3061 198.195 78.5479 198.195 63.438C198.195 48.328 198.195 33.5778 198.195 33.5778L182.725 35.8563L182.365 20.6264ZM263.827 19.0675C286.012 19.0675 303.88 36.6957 303.88 58.5212C303.88 80.3467 286.012 98.0949 263.827 98.0949C241.762 98.0949 223.893 80.3467 223.893 58.5212C223.893 36.6957 241.762 19.0675 263.827 19.0675ZM263.827 82.1455C274.74 82.1455 283.494 71.5925 283.494 58.5212C283.494 45.4499 274.74 34.8969 263.827 34.8969C253.034 34.8969 244.16 45.4499 244.16 58.5212C244.16 71.5925 253.034 82.1455 263.827 82.1455Z" fill="white"/>
</svg>
