<svg width="294" height="120" viewBox="0 0 294 120" fill="none" xmlns="http://www.w3.org/2000/svg">
<path d="M222.36 108.4V109.6H236.76V112H219.96V108.4C219.96 105.856 222.072 103.6 224.76 103.6H231.96C233.28 103.6 234.36 102.52 234.36 101.2V100C234.36 98.68 233.28 97.6 231.96 97.6H224.76C223.44 97.6 222.36 98.68 222.36 100H219.96C219.96 97.456 222.072 95.2 224.76 95.2H231.96C234.48 95.2 236.76 97.336 236.76 100V101.2C236.76 103.744 234.648 106 231.96 106H224.76C223.44 106 222.36 107.08 222.36 108.4ZM253.087 107.2V100C253.087 98.68 252.007 97.6 250.687 97.6H243.487C242.167 97.6 241.087 98.68 241.087 100V107.2C241.087 108.52 242.167 109.6 243.487 109.6H250.687C252.007 109.6 253.087 108.52 253.087 107.2ZM255.487 100V107.2C255.487 109.744 253.375 112 250.687 112H243.487C240.919 112 238.687 109.912 238.687 107.2V100C238.687 97.456 240.799 95.2 243.487 95.2H250.687C253.255 95.2 255.415 97.336 255.487 100ZM259.813 108.4V109.6H274.213V112H257.413V108.4C257.413 105.856 259.525 103.6 262.213 103.6H269.413C270.733 103.6 271.813 102.52 271.813 101.2V100C271.813 98.68 270.733 97.6 269.413 97.6H262.213C260.893 97.6 259.813 98.68 259.813 100H257.413C257.413 97.456 259.525 95.2 262.213 95.2H269.413C271.933 95.2 274.213 97.336 274.213 100V101.2C274.213 103.744 272.101 106 269.413 106H262.213C260.893 106 259.813 107.08 259.813 108.4ZM288.14 104.8H278.54V107.2C278.54 108.52 279.62 109.6 280.94 109.6H288.14C289.46 109.6 290.54 108.52 290.54 107.2C290.54 105.88 289.46 104.8 288.14 104.8ZM278.54 100V102.4H288.14C289.46 102.4 290.588 102.88 291.524 103.816C292.46 104.752 292.94 105.88 292.94 107.2C292.94 109.744 290.828 112 288.14 112H280.94C278.372 112 276.14 109.912 276.14 107.2V100C276.14 97.456 278.252 95.2 280.94 95.2H288.14C290.708 95.2 292.868 97.336 292.94 100H290.54C290.54 98.68 289.46 97.6 288.14 97.6H280.94C279.62 97.6 278.54 98.68 278.54 100Z" fill="white"/>
<path d="M72 44.5C72 44.5 62.2141 68.0918 49 76.5C35.7531 84.9291 9.5 83.5 9.5 83.5" stroke="#EEEBEE"/>
<path d="M24 33.5L9.5 45.5H20.5C20.5 45.5 19.3166 42.3431 20 40C20.6834 37.6569 24 33.5 24 33.5Z" fill="#EEEBEE"/>
<path d="M239.5 14.5L226.5 31.5L237 26C237 26 235.817 22.8431 236.5 20.5C237.183 18.1569 239.5 14.5 239.5 14.5Z" fill="#EEEBEE"/>
<path d="M8.5 83.5H20.5C20.5 83.5 15.745 80.9991 13.5 78.5C10.99 75.7059 9.5 70 9.5 70L8.5 83.5Z" fill="#EEEBEE"/>
<path d="M113 0C113 0 113.386 3.60496 114.891 5.10936C116.395 6.61377 120 7 120 7C120 7 116.395 7.38623 114.891 8.89064C113.386 10.395 113 14 113 14C113 14 112.614 10.395 111.109 8.89064C109.605 7.38623 106 7 106 7C106 7 109.605 6.61377 111.109 5.10936C112.614 3.60496 113 0 113 0Z" fill="#EEEBEE"/>
<path d="M250 61C250 61 250.386 64.605 251.891 66.1094C253.395 67.6138 257 68 257 68C257 68 253.395 68.3862 251.891 69.8906C250.386 71.395 250 75 250 75C250 75 249.614 71.395 248.109 69.8906C246.605 68.3862 243 68 243 68C243 68 246.605 67.6138 248.109 66.1094C249.614 64.605 250 61 250 61Z" fill="#EEEBEE"/>
<path d="M119.5 83.5H136" stroke="#EEEBEE"/>
<path d="M135.217 83.5H120.5C120.5 83.5 124.5 81 128.5 76.5C134.03 70.2785 134.5 61.5 134.5 61.5L135.217 83.5Z" fill="#EEEBEE"/>
<path d="M271.5 82.5006C271.5 82.5006 291.5 89.0003 291.5 71.0001C291.5 53 273 51 273 51" stroke="#EEEBEE"/>
<path d="M17.25 52.4952C17.25 52.4952 13.1614 53.2103 10.9125 54.5087C8.66355 55.8071 6 58.9904 6 58.9904L7.425 52.4952L6 46C6 46 8.66355 49.1833 10.9125 50.4817C13.1614 51.7801 17.25 52.4952 17.25 52.4952Z" fill="#EEEBEE"/>
<path d="M251.926 23.5039C260.16 23.5039 265.597 24.9834 268.235 27.9414C270.314 30.2598 271.354 32.6986 271.354 35.2568V75.4297C271.354 77.748 271.793 79.547 272.672 80.8262C273.631 82.0254 274.591 82.6652 275.551 82.7451L276.869 82.9844H280.587V83.9443H276.869C271.433 83.9443 267.715 82.9047 265.717 80.8262C263.878 79.0675 262.959 77.5486 262.959 76.2695V73.751C259.042 80.8662 252.765 84.4238 244.131 84.4238C234.058 84.4237 228.341 79.8667 226.982 70.7529C226.823 69.7936 226.743 68.8343 226.743 67.875C226.743 66.8357 226.903 65.7158 227.223 64.5166C227.543 63.3175 228.462 61.9984 229.98 60.5596C233.018 57.6815 239.695 55.9228 250.008 55.2832C252.566 55.0434 254.925 54.9238 257.083 54.9238C259.241 54.9238 261.2 55.0032 262.959 55.1631V53.6094C265.028 52.8848 267.25 52.4951 267.25 52.4951C267.244 52.4941 265.025 52.1035 262.959 51.3799V34.1777C263 33.5005 262.959 32.5783 262.479 31.5391C262.08 30.4198 261.519 29.3401 260.8 28.3008C260.08 27.2617 258.801 26.3825 256.963 25.6631C255.124 24.8636 252.726 24.4639 249.768 24.4639C246.81 24.4639 243.332 25.0234 239.335 26.1426C235.418 27.1819 232.539 28.2214 230.7 29.2607L230.221 28.4209C237.336 25.1432 244.571 23.504 251.926 23.5039ZM24.4639 0C44.2906 3.40967e-05 54.2041 6.99567 54.2041 20.9863C54.2041 27.4619 52.5247 33.138 49.167 38.0146C47.4082 40.6528 44.6901 42.7712 41.0127 44.3701C37.3351 45.8891 32.8977 46.6494 27.7012 46.6494H9.95312V83.9443H0V54.46C2.26566 53.1929 6.25 52.4951 6.25 52.4951C6.24187 52.4937 2.26327 51.7953 0 50.5293V0.958984C9.27382 0.31941 17.4286 0 24.4639 0ZM117.267 75.4297C117.267 77.7481 117.707 79.547 118.586 80.8262C119.545 82.0254 120.465 82.6652 121.345 82.7451L122.783 82.9844H126.501V83.9443H119.186C115.908 83.9443 113.39 83.2242 111.631 81.7852C109.952 80.3462 109.072 78.9077 108.992 77.4688L108.872 75.4297V53.5322C108.885 53.5244 108.899 53.5165 108.912 53.5088C111.161 52.2104 115.25 51.4951 115.25 51.4951C115.242 51.4937 111.159 50.7786 108.912 49.4814C108.899 49.4737 108.886 49.465 108.872 49.457V23.9844H117.267V75.4297ZM196.25 23.5039C200.087 23.5039 203.166 23.8243 205.484 24.4639C207.803 25.1034 209.521 25.8227 210.641 26.6221C211.84 27.4215 212.72 28.5807 213.279 30.0996C213.919 31.6185 214.278 32.858 214.358 33.8174C214.438 34.7767 214.479 36.1358 214.479 37.8945V75.4297C214.479 77.748 214.918 79.547 215.797 80.8262C216.756 82.0254 217.716 82.6652 218.676 82.7451L219.994 82.9844H223.712V83.9443H216.396C213.119 83.9443 210.601 83.2241 208.842 81.7852C207.163 80.3463 206.284 78.9076 206.204 77.4688L206.084 75.4297V54.0537C206.363 53.8506 206.64 53.6658 206.912 53.5088C209.161 52.2104 213.25 51.4951 213.25 51.4951C213.242 51.4937 209.159 50.7786 206.912 49.4814C206.64 49.3244 206.363 49.1388 206.084 48.9355V37.7744C206.084 32.898 205.444 29.4605 204.165 27.4619C202.886 25.4632 200.447 24.4639 196.85 24.4639C192.053 24.464 187.776 26.4627 184.019 30.46C180.341 34.4573 178.502 38.0551 178.502 41.2529V83.9443H170.107V54.0371C170.378 53.8407 170.648 53.6614 170.912 53.5088C173.161 52.2104 177.25 51.4951 177.25 51.4951C177.242 51.4937 173.159 50.7786 170.912 49.4814C170.648 49.3287 170.378 49.1487 170.107 48.9521V37.7744C170.107 32.8982 169.468 29.4606 168.189 27.4619C166.91 25.4632 164.191 24.4639 160.034 24.4639C155.877 24.4639 151.92 26.3824 148.162 30.2197C144.485 34.0571 142.486 37.6148 142.166 40.8926V83.9443H133.771V53.0771C136.066 52.0536 139.25 51.4951 139.25 51.4951C139.243 51.4938 136.063 50.9355 133.771 49.9131V23.9844H142.166V37.5352C143.445 34.0975 145.804 30.8994 149.241 27.9414C152.679 24.9834 156.517 23.5039 160.754 23.5039C164.991 23.5039 168.349 23.9037 170.827 24.7031C173.385 25.4226 175.184 26.5827 176.224 28.1816C177.263 29.7805 177.903 31.1798 178.143 32.3789C178.382 33.5781 178.502 35.2568 178.502 37.415C179.781 33.9773 182.1 30.8195 185.458 27.9414C188.816 24.9836 192.413 23.504 196.25 23.5039ZM256.363 55.8828C254.205 55.8828 252.046 56.0024 249.888 56.2422C243.812 56.9617 239.854 58.3216 238.016 60.3203C236.177 62.319 235.257 65.0771 235.257 68.5947C235.257 69.2342 235.297 69.9536 235.377 70.7529C236.096 79.2272 239.654 83.4648 246.05 83.4648C250.287 83.4648 254.085 82.0255 257.442 79.1475C260.88 76.1894 262.719 73.351 262.959 70.6328V56.123C260.8 55.9632 258.602 55.8828 256.363 55.8828ZM24.584 1.19922C19.9471 1.19922 15.0697 1.47943 9.95312 2.03906V45.4502H27.7012C38.9737 44.9705 44.6104 36.8952 44.6104 21.2256C44.6103 14.83 42.931 9.91324 39.5732 6.47559C36.2155 2.95816 31.2192 1.19928 24.584 1.19922Z" fill="#EEEBEE"/>
<path d="M79.25 51.4952C79.25 51.4952 75.1614 52.2103 72.9125 53.5087C70.6636 54.8071 68 57.9904 68 57.9904L69.425 51.4952L68 45C68 45 70.6636 48.1833 72.9125 49.4817C75.1614 50.7801 79.25 51.4952 79.25 51.4952Z" fill="#EEEBEE"/>
<path d="M97.5 23.5C95.5 25 86 33.5 84.5 35C84.5 35 87.0911 31.6255 87.5 30C87.9089 28.3745 86.5938 26.6758 86.5938 26.6758C82.9963 28.1149 79.7186 31.0328 76.7607 35.4297C73.8028 39.7467 72.244 43.8238 72.084 47.6611V83.9971H63.6895V52.707C65.8301 51.9203 68.25 51.4951 68.25 51.4951C68.2437 51.494 65.8274 51.068 63.6895 50.2822V24.0371H72.084V43.1045C73.3631 38.4676 75.8018 34.1105 79.3994 30.0332C82.997 25.8761 87.074 23.7175 91.6309 23.5576H92.1104C93.7093 23.5576 96.5 23.5 97.5 23.5Z" fill="#EEEBEE"/>
<path d="M125.25 51.4952C125.25 51.4952 121.161 52.2103 118.912 53.5087C116.664 54.8071 114 57.9904 114 57.9904L115.425 51.4952L114 45C114 45 116.664 48.1833 118.912 49.4817C121.161 50.7801 125.25 51.4952 125.25 51.4952Z" fill="#EEEBEE"/>
<path d="M149.25 51.4952C149.25 51.4952 145.161 52.2103 142.912 53.5087C140.664 54.8071 138 57.9904 138 57.9904L139.425 51.4952L138 45C138 45 140.664 48.1833 142.912 49.4817C145.161 50.7801 149.25 51.4952 149.25 51.4952Z" fill="#EEEBEE"/>
<path d="M186.25 51.4952C186.25 51.4952 182.161 52.2103 179.912 53.5087C177.664 54.8071 175 57.9904 175 57.9904L176.425 51.4952L175 45C175 45 177.664 48.1833 179.912 49.4817C182.161 50.7801 186.25 51.4952 186.25 51.4952Z" fill="#EEEBEE"/>
<path d="M223.25 51.4952C223.25 51.4952 219.161 52.2103 216.912 53.5087C214.664 54.8071 212 57.9904 212 57.9904L213.425 51.4952L212 45C212 45 214.664 48.1833 216.912 49.4817C219.161 50.7801 223.25 51.4952 223.25 51.4952Z" fill="#EEEBEE"/>
<path d="M277.25 51.4952C277.25 51.4952 273.161 52.2103 270.912 53.5087C268.664 54.8071 266 57.9904 266 57.9904L267.425 51.4952L266 45C266 45 268.664 48.1833 270.912 49.4817C273.161 50.7801 277.25 51.4952 277.25 51.4952Z" fill="#EEEBEE"/>
</svg>
