<svg width="349" height="251" viewBox="0 0 349 251" fill="none" xmlns="http://www.w3.org/2000/svg">
<path d="M276.36 239.4V240.6H290.76V243H273.96V239.4C273.96 236.856 276.072 234.6 278.76 234.6H285.96C287.28 234.6 288.36 233.52 288.36 232.2V231C288.36 229.68 287.28 228.6 285.96 228.6H278.76C277.44 228.6 276.36 229.68 276.36 231H273.96C273.96 228.456 276.072 226.2 278.76 226.2H285.96C288.48 226.2 290.76 228.336 290.76 231V232.2C290.76 234.744 288.648 237 285.96 237H278.76C277.44 237 276.36 238.08 276.36 239.4ZM307.087 238.2V231C307.087 229.68 306.007 228.6 304.687 228.6H297.487C296.167 228.6 295.087 229.68 295.087 231V238.2C295.087 239.52 296.167 240.6 297.487 240.6H304.687C306.007 240.6 307.087 239.52 307.087 238.2ZM309.487 231V238.2C309.487 240.744 307.375 243 304.687 243H297.487C294.919 243 292.687 240.912 292.687 238.2V231C292.687 228.456 294.799 226.2 297.487 226.2H304.687C307.255 226.2 309.415 228.336 309.487 231ZM313.813 239.4V240.6H328.213V243H311.413V239.4C311.413 236.856 313.525 234.6 316.213 234.6H323.413C324.733 234.6 325.813 233.52 325.813 232.2V231C325.813 229.68 324.733 228.6 323.413 228.6H316.213C314.893 228.6 313.813 229.68 313.813 231H311.413C311.413 228.456 313.525 226.2 316.213 226.2H323.413C325.933 226.2 328.213 228.336 328.213 231V232.2C328.213 234.744 326.101 237 323.413 237H316.213C314.893 237 313.813 238.08 313.813 239.4ZM346.22 228.6H333.5V232.44H342.38C344.9 232.44 347.18 234.576 347.18 237.24V238.2C347.18 240.744 345.068 243 342.38 243H335.18C332.564 243 330.452 240.912 330.38 238.2H332.78C332.78 239.52 333.86 240.6 335.18 240.6H342.38C343.7 240.6 344.78 239.52 344.78 238.2V237.24C344.78 235.92 343.7 234.84 342.38 234.84H331.1V226.2H346.22V228.6Z" fill="white"/>
<path d="M8.17188 19.125C13.7031 19.125 17.0156 20.375 18.1094 22.875C18.8594 24.4375 19.2344 26.1875 19.2344 28.125V40.3125H19.4219C28.7969 27.1875 33.9844 20.1875 34.9844 19.3125L35.9219 19.125H48.2969L48.6719 19.5C46.8594 21.1562 45.3594 22.0938 44.1719 22.3125C43.3594 25.5625 41.9844 27.1875 40.0469 27.1875L27.4844 43.6875V43.875L28.4219 43.6875H30.6719C36.7969 43.6875 41.0469 47.1875 43.4219 54.1875C44.0469 56.0938 44.3594 58.0312 44.3594 60V81.9375C44.3594 86.9688 45.2969 89.8438 47.1719 90.5625C48.0469 91.4062 48.4844 92.2812 48.4844 93.1875V95.625L48.1094 96H35.1719L34.7969 95.625V62.0625C34.7969 56.4062 33.3594 52.9688 30.4844 51.75C29.8281 51.375 29.0781 51.1875 28.2344 51.1875C24.3906 51.1875 21.4531 53.8125 19.4219 59.0625L19.2344 60.9375V95.625L18.8594 96H4.98438L4.60938 95.625V94.125C4.60938 92.3125 5.48438 90.8125 7.23438 89.625C8.23438 88.4062 8.73438 86.5938 8.73438 84.1875V27.375C6.35938 25.9688 5.17188 24.4062 5.17188 22.6875L4.98438 22.125C3.79688 22.125 2.29688 21.1875 0.484375 19.3125L0.671875 19.125H8.17188Z" fill="#EEEBEE"/>
<path d="M52.2812 39.0469V38.8594H61.2812C65.4688 38.8594 68.2188 40.1094 69.5312 42.6094L69.9062 43.9219V78.2344C69.9062 84.0156 71.7188 87.3906 75.3438 88.3594L76.4688 88.5469C79.9375 88.5469 82.8125 86.1094 85.0938 81.2344L85.4688 78.9844V46.5469C84.375 45.7969 83.375 44.1719 82.4688 41.6719C81.375 41.6719 80 40.7969 78.3438 39.0469V38.8594H87.7188C92 38.8594 94.6875 40.2344 95.7812 42.9844C96.0312 43.6406 96.1562 44.9531 96.1562 46.9219V84.0469C96.1562 86.5781 97.3438 88.7656 99.7188 90.6094L100.094 91.7344V94.7344L99.7188 95.1094H85.8438L85.4688 94.7344V91.1719C82.1875 94.3906 78.625 96 74.7812 96H74.4062C67.0938 96 62.2188 91.6406 59.7812 82.9219L59.4062 78.2344V46.5469C58 45.4844 57 43.8594 56.4062 41.6719C55.125 41.6719 53.75 40.7969 52.2812 39.0469Z" fill="#EEEBEE"/>
<path d="M143.922 18.5625V18.375H152.922C157.703 18.375 160.641 19.1875 161.734 20.8125C162.984 22.4062 163.609 24.2188 163.609 26.25V79.3125C163.609 86.875 160.859 92 155.359 94.6875C153.141 95.5625 151.078 96 149.172 96H146.359C142.641 96 138.641 93.5 134.359 88.5C132.109 85.2812 130.984 82.4062 130.984 79.875V70.875H131.172C132.547 72.5625 133.234 74 133.234 75.1875C134.703 75.1875 135.828 76.3125 136.609 78.5625C136.609 82.6562 138.922 85.8438 143.547 88.125L145.047 88.5H146.359C148.953 88.5 150.766 86.5 151.797 82.5L151.984 79.125V26.0625C150.234 26.0625 148.922 24.4375 148.047 21.1875C146.766 21.1875 145.391 20.3125 143.922 18.5625Z" fill="#EEEBEE"/>
<path d="M182.688 36.9375H184.938C188.094 36.9375 191.656 38.8125 195.625 42.5625H195.812C196.906 39.6875 199.844 38.25 204.625 38.25H213.25V38.4375C212.031 39.9062 210.594 40.9062 208.938 41.4375C208.094 43.9688 207.219 45.4062 206.312 45.75C205.688 45.9062 205.375 46.0938 205.375 46.3125V84.375C205.375 86.8438 206.438 88.8438 208.562 90.375C209.062 90.9375 209.312 91.8125 209.312 93V94.875L208.938 95.25H195.25L194.875 94.875V89.4375C190.969 93.8125 187.531 96 184.562 96H183.062C175.938 96 171.25 92.6875 169 86.0625C168.375 84.1562 168.062 82.2188 168.062 80.25V52.6875C168.062 45.4062 171.125 40.4688 177.25 37.875C179.25 37.25 181.062 36.9375 182.688 36.9375ZM179.5 55.125V77.8125C179.5 83.0938 180.812 86.4688 183.438 87.9375L185.5 88.5H185.875C189.781 88.5 192.781 85.75 194.875 80.25V53.4375C194.875 50.4375 193.188 47.75 189.812 45.375C188.781 44.625 187.594 44.25 186.25 44.25H185.5C182.625 44.25 180.688 46.75 179.688 51.75L179.5 55.125Z" fill="#EEEBEE"/>
<path d="M217.234 36.6562V36.4688H225.297C229.891 36.4688 232.766 37.4688 233.922 39.4688C234.797 40.4375 235.234 42.375 235.234 45.2812V79.9688C235.234 84.125 237.109 86.875 240.859 88.2188H241.984C245.516 88.2188 248.328 85.7188 250.422 80.7188L250.797 77.5312V43.9688C249.828 43.9688 248.766 42.4062 247.609 39.2812C246.516 39.2812 245.141 38.4062 243.484 36.6562V36.4688H252.484C257.109 36.4688 259.984 37.9688 261.109 40.9688V104.719C261.109 108.75 258.109 111.062 252.109 111.656L234.484 115.219L234.297 115.031V114.844C234.297 113.875 235.359 112.812 237.484 111.656C237.703 109.406 238.641 108.281 240.297 108.281L250.234 105.094C250.609 104.625 250.797 104.062 250.797 103.406V90.6562C247.422 94.1562 243.734 95.9062 239.734 95.9062C232.516 95.9062 227.641 91.6562 225.109 83.1562C224.734 81 224.547 78.6875 224.547 76.2188V45.4688L224.734 45.2812C224.734 44.5312 224.047 43.6562 222.672 42.6562C221.922 40.5312 221.422 39.4688 221.172 39.4688C219.609 38.9688 218.297 38.0312 217.234 36.6562Z" fill="#EEEBEE"/>
<path d="M280.75 36.9375H283C286.156 36.9375 289.719 38.8125 293.688 42.5625H293.875C294.969 39.6875 297.906 38.25 302.688 38.25H311.312V38.4375C310.094 39.9062 308.656 40.9062 307 41.4375C306.156 43.9688 305.281 45.4062 304.375 45.75C303.75 45.9062 303.438 46.0938 303.438 46.3125V84.375C303.438 86.8438 304.5 88.8438 306.625 90.375C307.125 90.9375 307.375 91.8125 307.375 93V94.875L307 95.25H293.312L292.938 94.875V89.4375C289.031 93.8125 285.594 96 282.625 96H281.125C274 96 269.312 92.6875 267.062 86.0625C266.438 84.1562 266.125 82.2188 266.125 80.25V52.6875C266.125 45.4062 269.188 40.4688 275.312 37.875C277.312 37.25 279.125 36.9375 280.75 36.9375ZM277.562 55.125V77.8125C277.562 83.0938 278.875 86.4688 281.5 87.9375L283.562 88.5H283.938C287.844 88.5 290.844 85.75 292.938 80.25V53.4375C292.938 50.4375 291.25 47.75 287.875 45.375C286.844 44.625 285.656 44.25 284.312 44.25H283.562C280.688 44.25 278.75 46.75 277.75 51.75L277.562 55.125Z" fill="#EEEBEE"/>
<path d="M19 0V28L0 19.5C0 19.5 7.26809 15.5004 11 11.5C14.5865 7.65557 19 0 19 0Z" fill="#EEEBEE"/>
<path d="M137.504 53L136.504 81.5L131.004 71C131.004 71 132.5 69 134.5 65C136.851 60.2974 137.504 53 137.504 53Z" fill="#EEEBEE"/>
<path d="M121 94V122L102 112C102 112 111.105 109.91 114.5 107C118 104 121 94 121 94Z" fill="#EEEBEE"/>
<path d="M102.672 112.5V112.312H112.797C116.922 112.312 119.547 113.938 120.672 117.188L121.047 119.625V151.688H136.422V121.688C136.422 117.344 137.672 114.531 140.172 113.25C141.422 112.625 143.047 112.312 145.047 112.312H154.797V112.5C153.641 113.875 152.141 114.875 150.297 115.5C150.297 117.375 149.109 119 146.734 120.375V176.812C146.734 180.656 147.859 183.156 150.109 184.312C150.609 185.125 150.859 186.062 150.859 187.125V188.625L150.484 189H136.797L136.422 188.625V159.375H121.047V188.625L120.672 189H107.172L106.797 188.625V186.375C106.797 185.344 107.859 183.844 109.984 181.875C110.609 180.5 110.922 178.562 110.922 176.062V120.188C109.297 120.188 107.922 118.562 106.797 115.312C105.266 114.906 103.891 113.969 102.672 112.5ZM158.922 129.656V129.469H166.984C171.578 129.469 174.453 130.469 175.609 132.469C176.484 133.438 176.922 135.375 176.922 138.281V172.969C176.922 177.125 178.797 179.875 182.547 181.219H183.672C187.203 181.219 190.016 178.719 192.109 173.719L192.484 170.531V136.969C191.516 136.969 190.453 135.406 189.297 132.281C188.203 132.281 186.828 131.406 185.172 129.656V129.469H194.172C198.797 129.469 201.672 130.969 202.797 133.969V197.719C202.797 201.75 199.797 204.062 193.797 204.656L176.172 208.219L175.984 208.031V207.844C175.984 206.875 177.047 205.812 179.172 204.656C179.391 202.406 180.328 201.281 181.984 201.281L191.922 198.094C192.297 197.625 192.484 197.062 192.484 196.406V183.656C189.109 187.156 185.422 188.906 181.422 188.906C174.203 188.906 169.328 184.656 166.797 176.156C166.422 174 166.234 171.688 166.234 169.219V138.469L166.422 138.281C166.422 137.531 165.734 136.656 164.359 135.656C163.609 133.531 163.109 132.469 162.859 132.469C161.297 131.969 159.984 131.031 158.922 129.656ZM222.438 129.938H224.688C227.844 129.938 231.406 131.812 235.375 135.562H235.562C236.656 132.688 239.594 131.25 244.375 131.25H253V131.438C251.781 132.906 250.344 133.906 248.688 134.438C247.844 136.969 246.969 138.406 246.062 138.75C245.438 138.906 245.125 139.094 245.125 139.312V177.375C245.125 179.844 246.188 181.844 248.312 183.375C248.812 183.938 249.062 184.812 249.062 186V187.875L248.688 188.25H235L234.625 187.875V182.438C230.719 186.812 227.281 189 224.312 189H222.812C215.688 189 211 185.688 208.75 179.062C208.125 177.156 207.812 175.219 207.812 173.25V145.688C207.812 138.406 210.875 133.469 217 130.875C219 130.25 220.812 129.938 222.438 129.938ZM219.25 148.125V170.812C219.25 176.094 220.562 179.469 223.188 180.938L225.25 181.5H225.625C229.531 181.5 232.531 178.75 234.625 173.25V146.438C234.625 143.438 232.938 140.75 229.562 138.375C228.531 137.625 227.344 137.25 226 137.25H225.25C222.375 137.25 220.438 139.75 219.438 144.75L219.25 148.125ZM279.812 131.016H282.438C287.906 131.016 291.719 134.203 293.875 140.578C294.375 142.672 294.625 144.734 294.625 146.766V175.453C294.625 178.797 295.25 180.922 296.5 181.828C297.125 182.672 297.438 183.484 297.438 184.266V189.094L297.062 189.469H283.938L283.562 189.094V149.953C283.562 143.828 282.688 140.766 280.938 140.766C278.031 141.578 276.219 146.516 275.5 155.578V189.094L275.125 189.469H261.812L261.438 189.094V185.203C261.438 183.516 262.25 181.766 263.875 179.953L264.25 177.328V141.703C263.469 140.734 262.781 139.297 262.188 137.391C260.406 136.266 258.781 134.328 257.312 131.578L257.5 131.391H268C270.625 131.797 272.438 132.547 273.438 133.641C273.438 134.016 273.562 134.203 273.812 134.203C275.469 132.078 277.469 131.016 279.812 131.016ZM316.844 129.469H319.094C322.188 129.469 325.75 131.344 329.781 135.094H330.156C331.188 133.344 332.625 132.469 334.469 132.469C334.469 132.188 336.719 132 341.219 131.906H346.469L346.844 132.281C345.281 133.844 343.781 134.781 342.344 135.094C341.5 138.094 340.5 139.594 339.344 139.594V197.531C339.344 201.562 336.844 203.875 331.844 204.469L313.094 208.219L312.906 208.031V207.656C312.906 206.531 313.906 205.656 315.906 205.031V204.469C315.906 202.219 317.594 200.906 320.969 200.531C326.344 199.156 329.031 198.094 329.031 197.344V182.344H328.844C325.125 186.844 321.625 189.094 318.344 189.094C310.969 189.094 306.031 186.219 303.531 180.469C302.531 178.156 302.031 175.719 302.031 173.156V145.219C302.031 137.781 305.219 132.844 311.594 130.406C313.281 129.781 315.031 129.469 316.844 129.469ZM313.656 146.344V172.219C313.656 177.062 315.344 180.062 318.719 181.219L319.656 181.406H320.031C323.781 181.406 326.719 178.781 328.844 173.531L329.031 171.656V146.156C329.031 142.5 326.781 139.5 322.281 137.156L320.031 136.781C317.438 136.781 315.5 138.594 314.219 142.219C313.844 143.719 313.656 145.094 313.656 146.344Z" fill="#EEEBEE"/>
<path d="M329.584 204.282L330.314 198.085C330.4 197.352 329.69 196.781 328.992 197.023L294.582 208.972C294.527 208.99 294.475 209.014 294.424 209.042L291.181 210.844C290.181 211.399 290.747 212.927 291.867 212.698L328.792 205.145C329.214 205.058 329.534 204.711 329.584 204.282Z" fill="#EEEBEE"/>
<path d="M195.084 203.782L195.814 197.585C195.9 196.852 195.19 196.281 194.492 196.523L160.082 208.472C160.027 208.49 159.975 208.514 159.924 208.542L156.681 210.344C155.681 210.899 156.247 212.427 157.367 212.198L194.292 204.645C194.714 204.558 195.034 204.211 195.084 203.782Z" fill="#EEEBEE"/>
<path d="M253.084 110.782L253.814 104.585C253.9 103.852 253.19 103.281 252.492 103.523L218.082 115.472C218.027 115.49 217.975 115.514 217.924 115.542L214.681 117.344C213.681 117.899 214.247 119.427 215.367 119.198L252.292 111.645C252.714 111.558 253.034 111.211 253.084 110.782Z" fill="#EEEBEE"/>
</svg>
