<svg width="188" height="200" viewBox="0 0 188 200" fill="none" xmlns="http://www.w3.org/2000/svg">
<path d="M-12 99.75C-12 44.6596 32.6596 0 87.75 0C142.84 0 187.5 44.6596 187.5 99.75C187.5 154.84 142.84 199.5 87.75 199.5C32.6596 199.5 -12 154.84 -12 99.75Z" fill="#3B158B"/>
<path d="M42.5425 127.075V128.675H61.7425V131.875H39.3425V127.075C39.3425 123.683 42.1585 120.675 45.7425 120.675H55.3425C57.1025 120.675 58.5425 119.235 58.5425 117.475V115.875C58.5425 114.115 57.1025 112.675 55.3425 112.675H45.7425C43.9825 112.675 42.5425 114.115 42.5425 115.875H39.3425C39.3425 112.483 42.1585 109.475 45.7425 109.475H55.3425C58.7025 109.475 61.7425 112.323 61.7425 115.875V117.475C61.7425 120.867 58.9265 123.875 55.3425 123.875H45.7425C43.9825 123.875 42.5425 125.315 42.5425 127.075ZM83.5113 125.475V115.875C83.5113 114.115 82.0713 112.675 80.3113 112.675H70.7113C68.9513 112.675 67.5113 114.115 67.5113 115.875V125.475C67.5113 127.235 68.9513 128.675 70.7113 128.675H80.3113C82.0713 128.675 83.5113 127.235 83.5113 125.475ZM86.7113 115.875V125.475C86.7113 128.867 83.8953 131.875 80.3113 131.875H70.7113C67.2873 131.875 64.3113 129.091 64.3113 125.475V115.875C64.3113 112.483 67.1273 109.475 70.7113 109.475H80.3113C83.7353 109.475 86.6153 112.323 86.7113 115.875ZM92.48 127.075V128.675H111.68V131.875H89.28V127.075C89.28 123.683 92.096 120.675 95.68 120.675H105.28C107.04 120.675 108.48 119.235 108.48 117.475V115.875C108.48 114.115 107.04 112.675 105.28 112.675H95.68C93.92 112.675 92.48 114.115 92.48 115.875H89.28C89.28 112.483 92.096 109.475 95.68 109.475H105.28C108.64 109.475 111.68 112.323 111.68 115.875V117.475C111.68 120.867 108.864 123.875 105.28 123.875H95.68C93.92 123.875 92.48 125.315 92.48 127.075ZM123.849 122.275V119.075H130.249C132.009 119.075 133.449 117.635 133.449 115.875C133.449 114.115 132.009 112.675 130.249 112.675H120.649C118.889 112.675 117.449 114.115 117.449 115.875H114.249C114.249 112.483 117.065 109.475 120.649 109.475H130.249C133.609 109.475 136.649 112.323 136.649 115.875C136.649 117.795 135.913 119.395 134.473 120.675C135.913 121.955 136.649 123.555 136.649 125.475C136.649 128.867 133.833 131.875 130.249 131.875H120.649C117.161 131.875 114.345 129.091 114.249 125.475H117.449C117.449 127.235 118.889 128.675 120.649 128.675H130.249C132.009 128.675 133.449 127.235 133.449 125.475C133.449 123.715 132.009 122.275 130.249 122.275H123.849Z" fill="#EEEBEE"/>
<path d="M87.1875 59C87.1875 59 88.3703 70.0402 92.9776 74.6474C97.5848 79.2547 108.625 80.4375 108.625 80.4375C108.625 80.4375 97.5848 81.6203 92.9776 86.2276C88.3703 90.8348 87.1875 101.875 87.1875 101.875C87.1875 101.875 86.0047 90.8348 81.3974 86.2276C76.7902 81.6203 65.75 80.4375 65.75 80.4375C65.75 80.4375 76.7902 79.2547 81.3974 74.6474C86.0047 70.0402 87.1875 59 87.1875 59Z" fill="#EEEBEE"/>
</svg>
