<svg width="200" height="200" viewBox="0 0 200 200" fill="none" xmlns="http://www.w3.org/2000/svg">
<path d="M0 99.75C0 44.6596 44.6596 0 99.75 0C154.84 0 199.5 44.6596 199.5 99.75C199.5 154.84 154.84 199.5 99.75 199.5C44.6596 199.5 0 154.84 0 99.75Z" fill="#3B158B"/>
<path d="M56.0884 127.076V128.676H75.2884V131.876H52.8884V127.076C52.8884 123.684 55.7044 120.676 59.2884 120.676H68.8884C70.6484 120.676 72.0884 119.236 72.0884 117.476V115.876C72.0884 114.116 70.6484 112.676 68.8884 112.676H59.2884C57.5284 112.676 56.0884 114.116 56.0884 115.876H52.8884C52.8884 112.484 55.7044 109.476 59.2884 109.476H68.8884C72.2484 109.476 75.2884 112.324 75.2884 115.876V117.476C75.2884 120.868 72.4724 123.876 68.8884 123.876H59.2884C57.5284 123.876 56.0884 125.316 56.0884 127.076ZM97.0571 125.476V115.876C97.0571 114.116 95.6171 112.676 93.8571 112.676H84.2571C82.4971 112.676 81.0571 114.116 81.0571 115.876V125.476C81.0571 127.236 82.4971 128.676 84.2571 128.676H93.8571C95.6171 128.676 97.0571 127.236 97.0571 125.476ZM100.257 115.876V125.476C100.257 128.868 97.4411 131.876 93.8571 131.876H84.2571C80.8331 131.876 77.8571 129.092 77.8571 125.476V115.876C77.8571 112.484 80.6731 109.476 84.2571 109.476H93.8571C97.2811 109.476 100.161 112.324 100.257 115.876ZM106.026 127.076V128.676H125.226V131.876H102.826V127.076C102.826 123.684 105.642 120.676 109.226 120.676H118.826C120.586 120.676 122.026 119.236 122.026 117.476V115.876C122.026 114.116 120.586 112.676 118.826 112.676H109.226C107.466 112.676 106.026 114.116 106.026 115.876H102.826C102.826 112.484 105.642 109.476 109.226 109.476H118.826C122.186 109.476 125.226 112.324 125.226 115.876V117.476C125.226 120.868 122.41 123.876 118.826 123.876H109.226C107.466 123.876 106.026 125.316 106.026 127.076ZM124.287 128.676V125.476L140.287 109.476H143.487V125.476H146.687V128.676H143.487V131.876H140.287V128.676H124.287ZM140.287 125.476V113.988L128.799 125.476H140.287Z" fill="#EEEBEE"/>
<path d="M98.6865 59C98.6865 59 99.8693 70.0402 104.477 74.6474C109.084 79.2547 120.124 80.4375 120.124 80.4375C120.124 80.4375 109.084 81.6203 104.477 86.2276C99.8693 90.8348 98.6865 101.875 98.6865 101.875C98.6865 101.875 97.5037 90.8348 92.8965 86.2276C88.2892 81.6203 77.249 80.4375 77.249 80.4375C77.249 80.4375 88.2892 79.2547 92.8965 74.6474C97.5037 70.0402 98.6865 59 98.6865 59Z" fill="#EEEBEE"/>
</svg>
