<svg width="200" height="200" viewBox="0 0 200 200" fill="none" xmlns="http://www.w3.org/2000/svg">
<path d="M0 99.75C0 44.6596 44.6596 0 99.75 0C154.84 0 199.5 44.6596 199.5 99.75C199.5 154.84 154.84 199.5 99.75 199.5C44.6596 199.5 0 154.84 0 99.75Z" fill="#3B158B"/>
<path d="M53.887 127.076V128.676H73.087V131.876H50.687V127.076C50.687 123.684 53.503 120.676 57.087 120.676H66.687C68.447 120.676 69.887 119.236 69.887 117.476V115.876C69.887 114.116 68.447 112.676 66.687 112.676H57.087C55.327 112.676 53.887 114.116 53.887 115.876H50.687C50.687 112.484 53.503 109.476 57.087 109.476H66.687C70.047 109.476 73.087 112.324 73.087 115.876V117.476C73.087 120.868 70.271 123.876 66.687 123.876H57.087C55.327 123.876 53.887 125.316 53.887 127.076ZM94.8557 125.476V115.876C94.8557 114.116 93.4157 112.676 91.6557 112.676H82.0557C80.2957 112.676 78.8557 114.116 78.8557 115.876V125.476C78.8557 127.236 80.2957 128.676 82.0557 128.676H91.6557C93.4157 128.676 94.8557 127.236 94.8557 125.476ZM98.0557 115.876V125.476C98.0557 128.868 95.2397 131.876 91.6557 131.876H82.0557C78.6317 131.876 75.6557 129.092 75.6557 125.476V115.876C75.6557 112.484 78.4717 109.476 82.0557 109.476H91.6557C95.0797 109.476 97.9597 112.324 98.0557 115.876ZM103.824 127.076V128.676H123.024V131.876H100.624V127.076C100.624 123.684 103.44 120.676 107.024 120.676H116.624C118.384 120.676 119.824 119.236 119.824 117.476V115.876C119.824 114.116 118.384 112.676 116.624 112.676H107.024C105.264 112.676 103.824 114.116 103.824 115.876H100.624C100.624 112.484 103.44 109.476 107.024 109.476H116.624C119.984 109.476 123.024 112.324 123.024 115.876V117.476C123.024 120.868 120.208 123.876 116.624 123.876H107.024C105.264 123.876 103.824 125.316 103.824 127.076ZM147.033 112.676H130.073V117.796H141.913C145.273 117.796 148.313 120.644 148.313 124.196V125.476C148.313 128.868 145.497 131.876 141.913 131.876H132.313C128.825 131.876 126.009 129.092 125.913 125.476H129.113C129.113 127.236 130.553 128.676 132.313 128.676H141.913C143.673 128.676 145.113 127.236 145.113 125.476V124.196C145.113 122.436 143.673 120.996 141.913 120.996H126.873V109.476H147.033V112.676Z" fill="#EEEBEE"/>
<path d="M99.4382 59C99.4382 59 100.621 70.0402 105.228 74.6474C109.836 79.2547 120.876 80.4375 120.876 80.4375C120.876 80.4375 109.836 81.6203 105.228 86.2276C100.621 90.8348 99.4382 101.875 99.4382 101.875C99.4382 101.875 98.2554 90.8348 93.6482 86.2276C89.0409 81.6203 78.0007 80.4375 78.0007 80.4375C78.0007 80.4375 89.0409 79.2547 93.6482 74.6474C98.2554 70.0402 99.4382 59 99.4382 59Z" fill="#EEEBEE"/>
</svg>
