<svg width="200" height="200" viewBox="0 0 200 200" fill="none" xmlns="http://www.w3.org/2000/svg">
<path d="M0 99.75C0 44.6596 44.6596 0 99.75 0C154.84 0 199.5 44.6596 199.5 99.75C199.5 154.84 154.84 199.5 99.75 199.5C44.6596 199.5 0 154.84 0 99.75Z" fill="#3B158B"/>
<path d="M54.5435 126.45V128.05H73.7435V131.25H51.3435V126.45C51.3435 123.058 54.1595 120.05 57.7435 120.05H67.3435C69.1035 120.05 70.5435 118.61 70.5435 116.85V115.25C70.5435 113.49 69.1035 112.05 67.3435 112.05H57.7435C55.9835 112.05 54.5435 113.49 54.5435 115.25H51.3435C51.3435 111.858 54.1595 108.85 57.7435 108.85H67.3435C70.7035 108.85 73.7435 111.698 73.7435 115.25V116.85C73.7435 120.242 70.9275 123.25 67.3435 123.25H57.7435C55.9835 123.25 54.5435 124.69 54.5435 126.45ZM95.5122 124.85V115.25C95.5122 113.49 94.0722 112.05 92.3122 112.05H82.7122C80.9522 112.05 79.5122 113.49 79.5122 115.25V124.85C79.5122 126.61 80.9522 128.05 82.7122 128.05H92.3122C94.0722 128.05 95.5122 126.61 95.5122 124.85ZM98.7122 115.25V124.85C98.7122 128.242 95.8962 131.25 92.3122 131.25H82.7122C79.2882 131.25 76.3122 128.466 76.3122 124.85V115.25C76.3122 111.858 79.1282 108.85 82.7122 108.85H92.3122C95.7362 108.85 98.6162 111.698 98.7122 115.25ZM104.481 126.45V128.05H123.681V131.25H101.281V126.45C101.281 123.058 104.097 120.05 107.681 120.05H117.281C119.041 120.05 120.481 118.61 120.481 116.85V115.25C120.481 113.49 119.041 112.05 117.281 112.05H107.681C105.921 112.05 104.481 113.49 104.481 115.25H101.281C101.281 111.858 104.097 108.85 107.681 108.85H117.281C120.641 108.85 123.681 111.698 123.681 115.25V116.85C123.681 120.242 120.865 123.25 117.281 123.25H107.681C105.921 123.25 104.481 124.69 104.481 126.45ZM142.25 121.65H129.45V124.85C129.45 126.61 130.89 128.05 132.65 128.05H142.25C144.01 128.05 145.45 126.61 145.45 124.85C145.45 123.09 144.01 121.65 142.25 121.65ZM129.45 115.25V118.45H142.25C144.01 118.45 145.514 119.09 146.762 120.338C148.01 121.586 148.65 123.09 148.65 124.85C148.65 128.242 145.834 131.25 142.25 131.25H132.65C129.226 131.25 126.25 128.466 126.25 124.85V115.25C126.25 111.858 129.066 108.85 132.65 108.85H142.25C145.674 108.85 148.554 111.698 148.65 115.25H145.45C145.45 113.49 144.01 112.05 142.25 112.05H132.65C130.89 112.05 129.45 113.49 129.45 115.25Z" fill="#EEEBEE"/>
<path d="M99.8135 58.376C99.8135 58.376 100.996 69.4162 105.604 74.0234C110.211 78.6307 121.251 79.8135 121.251 79.8135C121.251 79.8135 110.211 80.9963 105.604 85.6036C100.996 90.2108 99.8135 101.251 99.8135 101.251C99.8135 101.251 98.6307 90.2108 94.0234 85.6036C89.4162 80.9963 78.376 79.8135 78.376 79.8135C78.376 79.8135 89.4162 78.6307 94.0234 74.0234C98.6307 69.4162 99.8135 58.376 99.8135 58.376Z" fill="#EEEBEE"/>
</svg>
