<svg width="379" height="200" viewBox="0 0 379 200" fill="none" xmlns="http://www.w3.org/2000/svg">
<rect width="378.875" height="199.5" rx="99.75" fill="#3B158B"/>
<path d="M77.0439 109.874V85.374H80.5439V109.874H77.0439ZM87.5508 85.374V106.374H108.551V109.874H84.0508V85.374H87.5508ZM113.801 85.374V106.374H134.801V109.874H110.301V85.374H113.801ZM156.867 102.874V85.374H160.367V102.874C160.367 106.584 157.287 109.874 153.367 109.874H142.867C139.122 109.874 135.867 106.829 135.867 102.874V85.374H139.367V102.874C139.367 104.799 140.942 106.374 142.867 106.374H153.367C155.292 106.374 156.867 104.799 156.867 102.874ZM188.01 102.874C188.01 106.584 184.93 109.874 181.01 109.874H170.51C166.695 109.874 163.615 106.829 163.51 102.874H167.01C167.01 104.799 168.585 106.374 170.51 106.374H181.01C182.935 106.374 184.51 104.799 184.51 102.874C184.51 100.949 182.935 99.374 181.01 99.374H170.51C166.765 99.374 163.51 96.329 163.51 92.374C163.51 88.664 166.59 85.374 170.51 85.374H181.01C184.755 85.374 187.905 88.489 188.01 92.374H184.51C184.51 90.449 182.935 88.874 181.01 88.874H170.51C168.585 88.874 167.01 90.449 167.01 92.374C167.01 94.299 168.585 95.874 170.51 95.874H181.01C184.685 95.874 188.01 98.989 188.01 102.874ZM213.236 88.874H202.736V109.874H199.236V88.874H188.736V85.374H213.236V88.874ZM235.993 95.874V92.374C235.993 90.449 234.418 88.874 232.493 88.874H218.493V99.374H232.493C234.418 99.374 235.993 97.799 235.993 95.874ZM239.493 109.874H237.008L230.008 102.874H218.493V109.874H214.993V85.374H232.493C236.168 85.374 239.493 88.489 239.493 92.374V95.874C239.493 98.849 237.533 101.544 234.628 102.524L239.493 107.389V109.874ZM260.145 88.874H249.645C247.72 88.874 246.145 90.449 246.145 92.374V99.374H263.645V92.374C263.645 90.449 262.07 88.874 260.145 88.874ZM267.145 92.374V109.874H263.645V102.874H246.145V109.874H242.645V92.374C242.645 88.664 245.725 85.374 249.645 85.374H260.145C263.89 85.374 267.04 88.489 267.145 92.374ZM294.788 102.874C294.788 106.584 291.708 109.874 287.788 109.874H277.288C273.473 109.874 270.393 106.829 270.288 102.874H273.788C273.788 104.799 275.363 106.374 277.288 106.374H287.788C289.713 106.374 291.288 104.799 291.288 102.874C291.288 100.949 289.713 99.374 287.788 99.374H277.288C273.543 99.374 270.288 96.329 270.288 92.374C270.288 88.664 273.368 85.374 277.288 85.374H287.788C291.533 85.374 294.683 88.489 294.788 92.374H291.288C291.288 90.449 289.713 88.874 287.788 88.874H277.288C275.363 88.874 273.788 90.449 273.788 92.374C273.788 94.299 275.363 95.874 277.288 95.874H287.788C291.463 95.874 294.788 98.989 294.788 102.874ZM297.947 109.874V85.374H301.447V109.874H297.947Z" fill="#EEEBEE"/>
<path d="M129.287 145.126V145.023L130.117 143.26L135.029 138.502C136.67 136.889 137.49 135.689 137.49 134.903V133.231C137.49 132.069 136.977 131.488 135.952 131.488H132.978C131.953 131.488 131.44 132.069 131.44 133.231V134.359L129.492 135.282H129.389V133.231C129.389 130.839 130.586 129.643 132.978 129.643H135.952C138.344 129.643 139.541 130.839 139.541 133.231V135.005C139.541 136.304 138.662 137.729 136.906 139.281L132.589 143.26H139.777V143.362L138.946 145.126H129.287ZM147.067 143.28H150.246C151.271 143.28 151.784 142.699 151.784 141.537V133.231C151.784 132.069 151.271 131.488 150.246 131.488H147.067C146.042 131.488 145.529 132.069 145.529 133.231V141.537C145.529 142.699 146.042 143.28 147.067 143.28ZM147.067 145.126C144.675 145.126 143.478 143.93 143.478 141.537V133.231C143.478 130.839 144.675 129.643 147.067 129.643H150.246C152.638 129.643 153.835 130.839 153.835 133.231V141.537C153.835 143.93 152.638 145.126 150.246 145.126H147.067ZM157.424 145.126V145.023L158.254 143.26L163.166 138.502C164.806 136.889 165.627 135.689 165.627 134.903V133.231C165.627 132.069 165.114 131.488 164.089 131.488H161.115C160.09 131.488 159.577 132.069 159.577 133.231V134.359L157.629 135.282H157.526V133.231C157.526 130.839 158.722 129.643 161.115 129.643H164.089C166.481 129.643 167.678 130.839 167.678 133.231V135.005C167.678 136.304 166.799 137.729 165.042 139.281L160.725 143.26H167.913V143.362L167.083 145.126H157.424ZM174.794 145.126C172.401 145.126 171.205 143.93 171.205 141.537V140.409L173.153 139.486H173.256V141.537C173.256 142.699 173.768 143.28 174.794 143.28H177.972C178.998 143.28 179.511 142.699 179.511 141.537V139.158C179.511 137.996 178.998 137.415 177.972 137.415C177.972 137.415 176.762 137.415 174.343 137.415L177.49 131.509H172.117V131.406L172.948 129.643H180.669L177.265 135.569H177.972C180.365 135.569 181.561 136.766 181.561 139.158V141.537C181.561 143.93 180.365 145.126 177.972 145.126H174.794ZM184.74 138.317V138.215L185.571 136.451H194.112V136.554L193.282 138.317H184.74ZM197.188 145.126V145.023L198.019 143.26L202.93 138.502C204.571 136.889 205.391 135.689 205.391 134.903V133.231C205.391 132.069 204.879 131.488 203.853 131.488H200.88C199.854 131.488 199.342 132.069 199.342 133.231V134.359L197.393 135.282H197.291V133.231C197.291 130.839 198.487 129.643 200.88 129.643H203.853C206.246 129.643 207.442 130.839 207.442 133.231V135.005C207.442 136.304 206.564 137.729 204.807 139.281L200.49 143.26H207.678V143.362L206.847 145.126H197.188ZM214.969 143.28H218.147C219.173 143.28 219.685 142.699 219.685 141.537V133.231C219.685 132.069 219.173 131.488 218.147 131.488H214.969C213.943 131.488 213.43 132.069 213.43 133.231V141.537C213.43 142.699 213.943 143.28 214.969 143.28ZM214.969 145.126C212.576 145.126 211.38 143.93 211.38 141.537V133.231C211.38 130.839 212.576 129.643 214.969 129.643H218.147C220.54 129.643 221.736 130.839 221.736 133.231V141.537C221.736 143.93 220.54 145.126 218.147 145.126H214.969ZM225.325 145.126V145.023L226.156 143.26L231.067 138.502C232.708 136.889 233.528 135.689 233.528 134.903V133.231C233.528 132.069 233.015 131.488 231.99 131.488H229.016C227.991 131.488 227.478 132.069 227.478 133.231V134.359L225.53 135.282H225.428V133.231C225.428 130.839 226.624 129.643 229.016 129.643H231.99C234.383 129.643 235.579 130.839 235.579 133.231V135.005C235.579 136.304 234.7 137.729 232.944 139.281L228.627 143.26H235.815V143.362L234.984 145.126H225.325ZM243.105 143.28H246.284C247.309 143.28 247.822 142.699 247.822 141.537V138.892C247.822 137.729 247.309 137.148 246.284 137.148H243.105C242.08 137.148 241.567 137.729 241.567 138.892V141.537C241.567 142.699 242.08 143.28 243.105 143.28ZM243.105 145.126C240.713 145.126 239.516 143.93 239.516 141.537V133.231C239.516 130.839 240.713 129.643 243.105 129.643H246.079C248.471 129.643 249.668 130.839 249.668 133.231V133.539L247.72 134.462H247.617V133.231C247.617 132.069 247.104 131.488 246.079 131.488H243.105C242.08 131.488 241.567 132.069 241.567 133.231V135.733C242.046 135.446 242.558 135.303 243.105 135.303H246.284C248.677 135.303 249.873 136.499 249.873 138.892V141.537C249.873 143.93 248.677 145.126 246.284 145.126H243.105Z" fill="#D49A67"/>
<path d="M135.242 163.772V153.519L136.541 152.903H136.609V157.716H140.642V153.519L141.941 152.903H142.009V163.157L140.71 163.772H140.642V158.96H136.609V163.157L135.31 163.772H135.242ZM146.453 162.269H148.025C148.481 162.269 148.709 161.995 148.709 161.448V158.03C148.709 157.483 148.481 157.21 148.025 157.21H146.453C145.997 157.21 145.769 157.483 145.769 158.03V161.448C145.769 161.995 145.997 162.269 146.453 162.269ZM146.453 163.499C145.085 163.499 144.402 162.815 144.402 161.448V158.03C144.402 156.663 145.085 155.979 146.453 155.979H148.025C149.392 155.979 150.076 156.663 150.076 158.03V161.448C150.076 162.815 149.392 163.499 148.025 163.499H146.453ZM153.74 163.772L151.101 156.267L152.284 155.706H152.352L154.287 161.407L156.18 155.706H156.249L157.431 156.267L154.991 163.212L153.808 163.772H153.74ZM160.507 163.499C159.14 163.499 158.457 162.815 158.457 161.448V158.03C158.457 156.663 159.14 155.979 160.507 155.979H162.08C163.447 155.979 164.13 156.663 164.13 158.03V158.393L159.844 161.708C159.908 162.082 160.129 162.269 160.507 162.269H162.08C162.535 162.269 162.763 161.995 162.763 161.448V161.086L164.062 160.471H164.13V161.448C164.13 162.815 163.447 163.499 162.08 163.499H160.507ZM159.824 160.279L162.756 157.914C162.729 157.445 162.503 157.21 162.08 157.21H160.507C160.052 157.21 159.824 157.483 159.824 158.03V160.279ZM166.181 163.772V158.03C166.181 156.663 166.865 155.979 168.232 155.979H169.941V156.048L169.394 157.21H168.232C167.776 157.21 167.548 157.483 167.548 158.03V163.157L166.25 163.772H166.181ZM178.281 162.269H179.716C180.172 162.269 180.4 161.995 180.4 161.448V160.512C180.4 159.965 180.172 159.691 179.716 159.691H178.281C177.825 159.691 177.597 159.965 177.597 160.512V161.448C177.597 161.995 177.825 162.269 178.281 162.269ZM178.281 163.499C176.914 163.499 176.23 162.815 176.23 161.448V160.512C176.23 159.145 176.914 158.461 178.281 158.461H179.716C179.953 158.461 180.181 158.529 180.4 158.666V158.03C180.4 157.483 180.172 157.21 179.716 157.21H177.269V157.142L177.816 155.979H179.716C181.084 155.979 181.767 156.663 181.767 158.03V163.157L180.468 163.772H180.4V163.294C180.227 163.431 179.999 163.499 179.716 163.499H178.281ZM183.818 163.772V158.03C183.818 156.663 184.501 155.979 185.869 155.979H187.441C188.808 155.979 189.492 156.663 189.492 158.03V163.157L188.193 163.772H188.125V158.03C188.125 157.483 187.897 157.21 187.441 157.21H185.869C185.413 157.21 185.185 157.483 185.185 158.03V163.157L183.886 163.772H183.818ZM193.593 163.499C192.226 163.499 191.542 162.815 191.542 161.448V158.03C191.542 156.663 192.226 155.979 193.593 155.979H195.166C195.475 155.979 195.703 156.05 195.849 156.191V153.519L197.148 152.903H197.216V161.448C197.216 162.815 196.533 163.499 195.166 163.499H193.593ZM193.593 162.269H195.166C195.621 162.269 195.849 161.995 195.849 161.448V158.03C195.849 157.483 195.621 157.21 195.166 157.21H193.593C193.138 157.21 192.91 157.483 192.91 158.03V161.448C192.91 161.995 193.138 162.269 193.593 162.269ZM205.419 163.772V157.907H204.394V157.839L204.948 156.663H205.419V155.228C205.419 153.86 206.103 153.177 207.47 153.177H209.179V153.245L208.632 154.407H207.47C207.015 154.407 206.787 154.681 206.787 155.228V156.663H209.049V156.731L208.496 157.907H206.787V163.157L205.488 163.772H205.419ZM211.674 154.469C211.515 154.305 211.435 154.109 211.435 153.881C211.435 153.648 211.515 153.45 211.674 153.286C211.834 153.122 212.028 153.04 212.255 153.04C212.483 153.04 212.677 153.122 212.836 153.286C212.996 153.45 213.076 153.648 213.076 153.881C213.076 154.109 212.996 154.305 212.836 154.469C212.677 154.633 212.483 154.715 212.255 154.715C212.028 154.715 211.834 154.633 211.674 154.469ZM211.572 163.772V156.321L212.871 155.706H212.939V163.157L211.64 163.772H211.572ZM215.332 163.772V158.03C215.332 156.663 216.015 155.979 217.382 155.979H218.955C220.322 155.979 221.005 156.663 221.005 158.03V163.157L219.707 163.772H219.638V158.03C219.638 157.483 219.41 157.21 218.955 157.21H217.382C216.927 157.21 216.699 157.483 216.699 158.03V163.157L215.4 163.772H215.332ZM225.107 163.499C223.74 163.499 223.056 162.815 223.056 161.448V158.03C223.056 156.663 223.74 155.979 225.107 155.979H226.679C226.989 155.979 227.217 156.05 227.363 156.191V153.519L228.662 152.903H228.73V161.448C228.73 162.815 228.046 163.499 226.679 163.499H225.107ZM225.107 162.269H226.679C227.135 162.269 227.363 161.995 227.363 161.448V158.03C227.363 157.483 227.135 157.21 226.679 157.21H225.107C224.651 157.21 224.423 157.483 224.423 158.03V161.448C224.423 161.995 224.651 162.269 225.107 162.269ZM237.036 154.469C236.876 154.305 236.796 154.109 236.796 153.881C236.796 153.648 236.876 153.45 237.036 153.286C237.195 153.122 237.389 153.04 237.617 153.04C237.845 153.04 238.038 153.122 238.198 153.286C238.357 153.45 238.437 153.648 238.437 153.881C238.437 154.109 238.357 154.305 238.198 154.469C238.038 154.633 237.845 154.715 237.617 154.715C237.389 154.715 237.195 154.633 237.036 154.469ZM236.933 163.772V156.321L238.232 155.706H238.3V163.157L237.001 163.772H236.933ZM241.595 163.772V157.224H239.838V157.155L240.392 155.979H241.595V153.519L242.894 152.903H242.962V155.979H244.719V156.048L244.166 157.224H242.962V163.157L241.664 163.772H241.595Z" fill="#D49A67"/>
<rect x="169.749" y="32.375" width="40.25" height="40.25" rx="11.375" fill="#3B158B"/>
<path d="M176.875 57.2822C175.978 58.7702 175.507 60.8612 175.261 62.7544C175.137 63.7133 176.502 64.0297 177.007 63.2056C177.586 62.2629 178.265 61.3579 179.012 60.7354C181.92 58.3088 184.62 58.876 188.627 57.8135C192.28 56.8446 194.401 56.0655 197.44 53.8291C201.016 51.1985 203.177 49.5859 204.385 45.3291C204.723 44.1381 204.782 42.6234 204.736 41.2529C204.705 40.3336 203.438 40.1829 203.042 41.0132C202.528 42.0915 201.892 43.2086 201.18 44.001C198.937 46.494 196.639 47.1885 193.701 48.251C190.763 49.3135 189.161 49.0479 184.887 50.9072C181.216 52.5046 178.936 53.8644 176.875 57.2822Z" fill="#D49A67"/>
</svg>
