<svg width="49" height="12" viewBox="0 0 49 12" fill="none" xmlns="http://www.w3.org/2000/svg">
<path d="M7.99995 11.2002H-4.88162e-05V0.00019455H7.99995C9.67995 0.00019455 11.2 1.4242 11.2 3.2002C11.2 4.16019 10.832 4.9602 10.112 5.60019C10.832 6.2402 11.2 7.04019 11.2 8.0002C11.2 9.7282 9.79195 11.1522 7.99995 11.2002ZM7.99995 6.4002H1.59995V9.6002H7.99995C8.87995 9.6002 9.59995 8.8802 9.59995 8.0002C9.59995 7.12019 8.87995 6.4002 7.99995 6.4002ZM1.59995 1.60019V4.8002H7.99995C8.87995 4.8002 9.59995 4.08019 9.59995 3.2002C9.59995 2.3202 8.87995 1.60019 7.99995 1.60019H1.59995ZM20.6406 1.60019H15.8406C14.9606 1.60019 14.2406 2.3202 14.2406 3.2002V6.4002H22.2406V3.2002C22.2406 2.3202 21.5206 1.60019 20.6406 1.60019ZM23.8406 3.2002V11.2002H22.2406V8.0002H14.2406V11.2002H12.6406V3.2002C12.6406 1.5042 14.0486 0.00019455 15.8406 0.00019455H20.6406C22.3526 0.00019455 23.7926 1.4242 23.8406 3.2002ZM28.4775 0.00019455H33.2775C34.9895 0.00019455 36.4295 1.4242 36.4775 3.2002H34.8775C34.8775 2.3202 34.1575 1.60019 33.2775 1.60019H28.4775C27.5975 1.60019 26.8775 2.3202 26.8775 3.2002V8.0002C26.8775 8.8802 27.5975 9.6002 28.4775 9.6002H33.2775C34.1575 9.6002 34.8775 8.8802 34.8775 8.0002H36.4775C36.4775 9.6962 35.0695 11.2002 33.2775 11.2002H28.4775C26.7655 11.2002 25.2775 9.8082 25.2775 8.0002V3.2002C25.2775 1.47219 26.6855 0.0481949 28.4775 0.00019455ZM48.95 0.00019455L43.35 5.60019L48.95 11.2002H46.694L41.894 6.4002H39.35V11.2002H37.75V0.00019455H39.35V4.8002H41.894L46.694 0.00019455H48.95Z" fill="#EEEBEB"/>
</svg>
