<svg width="432" height="226" viewBox="0 0 432 226" fill="none" xmlns="http://www.w3.org/2000/svg">
<path d="M92.2251 161V144.2H94.6251V161H92.2251ZM101.59 144.2H108.79C111.358 144.2 113.518 146.336 113.59 149H111.19C111.19 147.68 110.11 146.6 108.79 146.6H101.59C100.27 146.6 99.1898 147.68 99.1898 149V156.2C99.1898 157.52 100.27 158.6 101.59 158.6H108.79C110.11 158.6 111.19 157.52 111.19 156.2H113.59C113.59 158.744 111.478 161 108.79 161H101.59C99.0218 161 96.7898 158.912 96.7898 156.2V149C96.7898 146.408 98.9018 144.272 101.59 144.2ZM117.899 144.2V151.4H129.899V144.2H132.299V161H129.899V153.8H117.899V161H115.499V144.2H117.899ZM134.694 161V144.2H137.094V161H134.694ZM156.299 144.2V161H153.899L141.899 148.088V161H139.499V144.2H141.899L153.899 156.92V144.2H156.299ZM172.854 156.2V149C172.854 147.68 171.774 146.6 170.454 146.6H163.254C161.934 146.6 160.854 147.68 160.854 149V156.2C160.854 157.52 161.934 158.6 163.254 158.6H170.454C171.774 158.6 172.854 157.52 172.854 156.2ZM175.254 149V156.2C175.254 158.84 173.094 161 170.454 161H163.254C160.59 161 158.454 158.864 158.454 156.2V149C158.454 146.36 160.614 144.2 163.254 144.2H170.454C172.998 144.2 175.254 146.384 175.254 149ZM193.98 156.2C193.98 158.744 191.868 161 189.18 161H181.98C179.364 161 177.252 158.912 177.18 156.2H179.58C179.58 157.52 180.66 158.6 181.98 158.6H189.18C190.5 158.6 191.58 157.52 191.58 156.2C191.58 154.88 190.5 153.8 189.18 153.8H181.98C179.412 153.8 177.18 151.712 177.18 149C177.18 146.456 179.292 144.2 181.98 144.2H189.18C191.748 144.2 193.908 146.336 193.98 149H191.58C191.58 147.68 190.5 146.6 189.18 146.6H181.98C180.66 146.6 179.58 147.68 179.58 149C179.58 150.32 180.66 151.4 181.98 151.4H189.18C191.7 151.4 193.98 153.536 193.98 156.2ZM198.547 146.6V151.4H210.547V153.8H198.547V158.6H212.947V161H196.147V144.2H212.947V146.6H198.547Z" fill="white"/>
<path d="M249.225 146.6H242.025C240.705 146.6 239.625 147.68 239.625 149V153.8H251.625V149C251.625 147.68 250.545 146.6 249.225 146.6ZM254.025 149V161H251.625V156.2H239.625V161H237.225V149C237.225 146.456 239.337 144.2 242.025 144.2H249.225C251.793 144.2 253.953 146.336 254.025 149ZM270.58 156.2V149C270.58 147.68 269.5 146.6 268.18 146.6H260.98C259.66 146.6 258.58 147.68 258.58 149V156.2C258.58 157.52 259.66 158.6 260.98 158.6H268.18C269.5 158.6 270.58 157.52 270.58 156.2ZM272.98 149V156.2C272.98 158.84 270.82 161 268.18 161H260.98C258.316 161 256.18 158.864 256.18 156.2V149C256.18 146.36 258.34 144.2 260.98 144.2H268.18C270.724 144.2 272.98 146.384 272.98 149ZM275.147 161V144.2H277.547V161H275.147Z" fill="white"/>
<path d="M207.385 187.4V188.6H221.785V191H204.985V187.4C204.985 184.856 207.097 182.6 209.785 182.6H216.985C218.305 182.6 219.385 181.52 219.385 180.2V179C219.385 177.68 218.305 176.6 216.985 176.6H209.785C208.465 176.6 207.385 177.68 207.385 179H204.985C204.985 176.456 207.097 174.2 209.785 174.2H216.985C219.505 174.2 221.785 176.336 221.785 179V180.2C221.785 182.744 219.673 185 216.985 185H209.785C208.465 185 207.385 186.08 207.385 187.4ZM238.112 186.2V179C238.112 177.68 237.032 176.6 235.712 176.6H228.512C227.192 176.6 226.112 177.68 226.112 179V186.2C226.112 187.52 227.192 188.6 228.512 188.6H235.712C237.032 188.6 238.112 187.52 238.112 186.2ZM240.512 179V186.2C240.512 188.744 238.4 191 235.712 191H228.512C225.944 191 223.712 188.912 223.712 186.2V179C223.712 176.456 225.824 174.2 228.512 174.2H235.712C238.28 174.2 240.44 176.336 240.512 179ZM244.838 187.4V188.6H259.238V191H242.438V187.4C242.438 184.856 244.55 182.6 247.238 182.6H254.438C255.758 182.6 256.838 181.52 256.838 180.2V179C256.838 177.68 255.758 176.6 254.438 176.6H247.238C245.918 176.6 244.838 177.68 244.838 179H242.438C242.438 176.456 244.55 174.2 247.238 174.2H254.438C256.958 174.2 259.238 176.336 259.238 179V180.2C259.238 182.744 257.126 185 254.438 185H247.238C245.918 185 244.838 186.08 244.838 187.4ZM258.534 188.6V186.2L270.534 174.2H272.934V186.2H275.334V188.6H272.934V191H270.534V188.6H258.534ZM270.534 186.2V177.584L261.918 186.2H270.534Z" fill="white"/>
<path d="M0.0259512 60.6657L93.5511 55.8221" stroke="#EEEBEE"/>
<path d="M305.893 114.501L366.561 111.492" stroke="#EEEBEE"/>
<path d="M346.34 143.686L378.038 142.099" stroke="#EEEBEE"/>
<path d="M340.872 155.008L385.69 153.028" stroke="#EEEBEE"/>
<path d="M348.525 191.64L387.874 189.661" stroke="#EEEBEE"/>
<path d="M340.874 179.615L385.692 177.636" stroke="#EEEBEE"/>
<path d="M348.527 216.248L387.876 214.269" stroke="#EEEBEE"/>
<path d="M114.356 47.158L119.112 53.8352L102.134 55.0583L114.356 47.158Z" fill="#EEEBEE"/>
<path d="M96.6571 55.4704L102.134 55.0583M102.134 55.0583L119.112 53.8352L114.356 47.158L102.134 55.0583Z" stroke="#EEEBEE"/>
<path d="M420.228 100.995L424.985 107.672L408.007 108.895L420.228 100.995Z" fill="#EEEBEE"/>
<path d="M374.211 110.947L408.007 108.895M408.007 108.895L424.985 107.672L420.228 100.995L408.007 108.895Z" stroke="#EEEBEE"/>
<path d="M193.439 24.7718L222.54 22.1421" stroke="#EEEBEE"/>
<path d="M241.535 18.2072L262.85 15.8517" stroke="#EEEBEE"/>
<path d="M249.188 37.3964L271.049 34.9788" stroke="#EEEBEE"/>
<path d="M249.188 87.7636L271.049 85.346" stroke="#EEEBEE"/>
<path d="M203.277 39.1802L228.418 37.1649" stroke="#EEEBEE"/>
<path d="M203.277 65.6783L228.418 63.663" stroke="#EEEBEE"/>
<path d="M234.145 16.7171L236.599 20.9535L229.906 21.4123L234.145 16.7171Z" fill="#EEEBEE"/>
<path d="M225.334 21.7776L229.906 21.4123M229.906 21.4123L236.599 20.9535L234.145 16.7171L229.906 21.4123Z" stroke="#EEEBEE"/>
<path d="M281.98 9.83534L284.433 14.0718L277.741 14.5305L281.98 9.83534Z" fill="#EEEBEE"/>
<path d="M268.316 15.2976L277.741 14.5305M277.741 14.5305L284.433 14.0718L281.98 9.83534L277.741 14.5305Z" stroke="#EEEBEE"/>
<path d="M168.3 12.5698L171.033 5.46484L192.348 26.2331L189.615 33.3381L168.3 12.5698Z" fill="#EEEBEE"/>
<path d="M211.952 4.8288L219.021 2.00454L219.021 122.97L211.952 125.156L211.952 4.8288Z" fill="#EEEBEE"/>
<path d="M249.056 20.1315L256.125 17.3073L256.125 31.6988L249.056 33.8849L249.056 20.1315Z" fill="#EEEBEE"/>
<path d="M248.39 94.4597L255.459 91.6354L255.459 115.865L248.39 118.051L248.39 94.4597Z" fill="#EEEBEE"/>
<path d="M264.227 93.3679L271.296 90.5436L271.296 122.424L264.227 124.61L264.227 93.3679Z" fill="#EEEBEE"/>
<path d="M240.739 35.4343L247.808 32.61L247.808 89.6312L240.739 91.8173L240.739 35.4343Z" fill="#EEEBEE"/>
<path d="M272.925 32.155L279.994 29.3307L279.994 86.3519L272.925 88.538L272.925 32.155Z" fill="#EEEBEE"/>
<path d="M195.496 37.6218L202.565 34.7975L202.565 66.6781L195.496 68.8642L195.496 37.6218Z" fill="#EEEBEE"/>
<path d="M229.783 35.4343L236.852 32.61L236.852 64.4906L229.783 66.6767L229.783 35.4343Z" fill="#EEEBEE"/>
<path d="M162.835 42.0835L165.567 34.9785L186.882 55.7468L184.15 62.8518L162.835 42.0835Z" fill="#EEEBEE"/>
<path d="M187.199 70.0371C186.114 75.7346 184.673 80.908 183.031 85.3846C182.218 87.6038 181.662 89.7934 180.533 92.4716C178.04 98.3879 175.286 102.366 173.476 104.177C169.073 108.583 166.016 109.235 162.288 109.306C160.932 109.333 158.361 108.316 157.369 107.12C154.946 104.2 155.135 97.9574 156.43 94.3677C157.824 90.5018 163.138 87.7216 166.214 86.9611C171.026 85.7713 175.337 87.2304 177.08 87.8459C177.933 88.1472 178.755 88.3259 181.82 90.3638C184.884 92.4017 190.175 96.2679 194.257 98.7343C198.339 101.201 201.052 102.15 206.078 104.505C211.105 106.859 218.362 110.59 227.019 114.105C235.675 117.621 245.51 120.809 257.495 123.435C269.48 126.061 283.317 128.028 294.175 129.041C305.034 130.054 312.495 130.054 317.118 129.817C321.742 129.579 323.302 129.105 324.445 128.487C325.587 127.869 326.266 127.123 326.965 126.355" stroke="#EEEBEE" stroke-linecap="round"/>
<path d="M215.024 72.1426C213.93 75.1963 212.836 78.2501 211.545 81.0235C210.255 83.7969 208.802 86.1975 207.612 87.9567C206.422 89.7159 205.541 90.7611 204.67 91.6751C203.799 92.5891 202.966 93.3402 201.729 94.2743C200.492 95.2083 198.875 96.3025 197.617 96.9804C196.36 97.6584 195.511 97.887 194.706 98.0456C193.901 98.2042 193.166 98.2858 192.494 98.2381C191.216 98.1474 190.285 97.4827 189.683 96.8406C189.213 96.3382 189.077 95.9462 189.069 95.6017C189.063 95.3552 189.109 94.9634 189.355 94.4349C189.6 93.9064 190.058 93.2532 192.596 91.0142C195.134 88.7752 199.739 84.9702 204.484 81.05" stroke="#EEEBEE" stroke-linecap="round"/>
<path d="M209.837 65.584C211.731 68.2785 213.472 72.0698 217.281 76.4667C221.379 81.1968 228.871 86.8793 233.694 89.5589C238.613 92.2916 240.24 92.9293 241.486 93.3636C242.732 93.7979 243.763 94.0783 244.788 94.2753C245.813 94.4722 246.802 94.5771 247.869 94.6782" stroke="#EEEBEE" stroke-linecap="round"/>
<path d="M234.72 59.2464C238.102 58.0827 241.483 56.919 246.99 55.7267C252.498 54.5344 260.029 53.3488 265.884 52.7819C271.74 52.2151 275.692 52.3029 278.65 52.5567C281.608 52.8105 281.936 52.734 283.072 53.0148C284.592 53.3901 285.706 53.7587 285.706 53.7587C285.706 53.7587 287.445 54.6544 287.445 55.7475C287.445 57.3871 286.898 57.9336 285.805 58.4801C285.211 58.7771 284.408 59.0175 283.336 59.3741C282.265 59.7307 280.574 60.082 273.907 61.295C267.24 62.5079 255.647 64.5718 248.917 65.8765C242.187 67.1812 240.673 67.6643 239.398 68.1327C238.124 68.6011 237.136 69.0402 236.363 69.4311C235.038 70.1019 234.323 70.6882 234.002 71.1194C233.114 72.3111 233.877 74.2584 234.284 74.7781C235.153 75.3636 236.377 75.8559 238.144 76.122C239.251 76.2125 240.788 76.2125 242.372 76.2125" stroke="#EEEBEE" stroke-linecap="round"/>
<path d="M340.564 96.6472L347.633 93.8229L347.633 126.25L340.564 128.436L340.564 96.6472Z" fill="#EEEBEE"/>
<path d="M361.737 118.02L368.534 121.448L306.442 168.333L300.123 164.483L361.737 118.02Z" fill="#EEEBEE"/>
<path d="M368.441 125.006L361.644 128.434L424.734 163.433L431.053 159.583L368.441 125.006Z" fill="#EEEBEE"/>
<path d="M380.768 94.4597L387.837 91.6354L387.837 124.063L380.768 126.249L380.768 94.4597Z" fill="#EEEBEE"/>
<path d="M388.42 151.3L395.489 148.475L395.489 180.902L388.42 183.088L388.42 151.3Z" fill="#EEEBEE"/>
<path d="M390.606 190.743L397.675 187.919L397.675 212.602L390.606 214.789L390.606 190.743Z" fill="#EEEBEE"/>
<path d="M338.651 190.651L345.72 187.827L345.72 221.347L338.651 223.533L338.651 190.651Z" fill="#EEEBEE"/>
<path d="M149.774 15.1416L151.544 21.4411L136.111 21.3716L149.774 15.1416Z" fill="#EEEBEE"/>
<path d="M130.099 21.3445L136.111 21.3716M136.111 21.3716L151.544 21.4411L149.774 15.1416L136.111 21.3716Z" stroke="#EEEBEE"/>
<path d="M151.414 21.3145C151.414 21.5726 152.42 22.4456 151.743 27.7562C151.21 31.9261 149.709 39.0053 147.784 45.955C145.86 52.9048 144.067 58.0371 141.577 63.3976C139.087 68.7581 136.385 72.5173 133.379 76.5144C130.372 80.5115 120.499 92.3482 114.25 97.83C103.319 107.418 106.466 104.975 100.587 109.307C94.7068 113.64 92.404 114.809 90.2025 115.866C88.001 116.922 87.4698 117.505 84.1906 117.505C80.9114 117.505 80.9114 114.773 80.9114 113.679" stroke="#EEEBEE" stroke-linecap="round"/>
<path d="M338.443 153.582C338.36 154.246 338.277 154.91 337.528 159.942C336.78 164.973 335.369 174.353 333.708 181.446C332.048 188.54 330.18 193.063 327.973 197.365C325.766 201.667 323.276 205.609 321.682 207.993C319.568 211.154 318.035 212.39 316.343 213.437C314.59 214.52 311.706 215.375 309.909 215.334C307.843 215.287 305.355 215.076 301.869 213.437C299.943 212.531 297.245 209.876 296.058 207.993C294.071 204.84 293.845 200.673 294.197 197.929C294.418 196.205 295.467 193.06 296.058 191.286C296.649 189.513 297.846 187.546 298.791 186.368C299.735 185.189 300.523 183.916 301.869 182.755C303.214 181.595 304.709 180.558 308.674 178.882C312.639 177.206 319.03 174.924 326.535 173.063C334.04 171.202 342.465 169.833 358.446 168.941C374.427 168.048 397.709 167.675 421.696 167.29" stroke="#EEEBEE" stroke-linecap="round"/>
</svg>
