<svg width="94" height="12" viewBox="0 0 94 12" fill="none" xmlns="http://www.w3.org/2000/svg">
<path d="M8.0002 1.60019H3.2002C2.3202 1.60019 1.6002 2.3202 1.6002 3.2002V6.4002H9.6002V3.2002C9.6002 2.3202 8.8802 1.60019 8.0002 1.60019ZM11.2002 3.2002V11.2002H9.6002V8.0002H1.6002V11.2002H0.000195324V3.2002C0.000195324 1.5042 1.4082 0.00019455 3.2002 0.00019455H8.0002C9.7122 0.00019455 11.1522 1.4242 11.2002 3.2002ZM20.7971 11.2002H12.7971V0.00019455H20.7971C22.4771 0.00019455 23.9971 1.4242 23.9971 3.2002C23.9971 4.16019 23.6291 4.9602 22.9091 5.60019C23.6291 6.2402 23.9971 7.04019 23.9971 8.0002C23.9971 9.7282 22.5891 11.1522 20.7971 11.2002ZM20.7971 6.4002H14.3971V9.6002H20.7971C21.6771 9.6002 22.3971 8.8802 22.3971 8.0002C22.3971 7.12019 21.6771 6.4002 20.7971 6.4002ZM14.3971 1.60019V4.8002H20.7971C21.6771 4.8002 22.3971 4.08019 22.3971 3.2002C22.3971 2.3202 21.6771 1.60019 20.7971 1.60019H14.3971ZM34.8777 8.0002V3.2002C34.8777 2.3202 34.1577 1.60019 33.2777 1.60019H28.4777C27.5977 1.60019 26.8777 2.3202 26.8777 3.2002V8.0002C26.8777 8.8802 27.5977 9.6002 28.4777 9.6002H33.2777C34.1577 9.6002 34.8777 8.8802 34.8777 8.0002ZM36.4777 3.2002V8.0002C36.4777 9.7602 35.0377 11.2002 33.2777 11.2002H28.4777C26.7017 11.2002 25.2777 9.7762 25.2777 8.0002V3.2002C25.2777 1.4402 26.7177 0.00019455 28.4777 0.00019455H33.2777C34.9737 0.00019455 36.4777 1.45619 36.4777 3.2002ZM47.5221 8.0002V0.00019455H49.1221V8.0002C49.1221 9.6962 47.7141 11.2002 45.9221 11.2002H41.1221C39.4101 11.2002 37.9221 9.8082 37.9221 8.0002V0.00019455H39.5221V8.0002C39.5221 8.8802 40.2421 9.6002 41.1221 9.6002H45.9221C46.8021 9.6002 47.5221 8.8802 47.5221 8.0002ZM61.1189 1.60019H56.3189V11.2002H54.7189V1.60019H49.9189V0.00019455H61.1189V1.60019ZM74.7283 9.7922L69.9283 2.86419V11.2002H68.3283V0.00019455H69.9283L74.7283 6.92819L79.5283 0.00019455H81.1283V11.2002H79.5283V2.86419L74.7283 9.7922ZM84.3346 1.60019V4.8002H92.3346V6.4002H84.3346V9.6002H93.9346V11.2002H82.7346V0.00019455H93.9346V1.60019H84.3346Z" fill="#EEEBEB"/>
</svg>
