<svg width="379" height="200" viewBox="0 0 379 200" fill="none" xmlns="http://www.w3.org/2000/svg">
<rect width="378.875" height="199.5" rx="99.75" fill="#3B158B"/>
<path d="M64.0117 77.5019V74.0019C64.0117 72.0769 62.4367 70.5019 60.5117 70.5019H46.5117V81.002H60.5117C62.4367 81.002 64.0117 79.4269 64.0117 77.5019ZM67.5117 74.0019V77.5019C67.5117 81.212 64.4317 84.502 60.5117 84.502H46.5117V91.502H43.0117V67.0019H60.5117C64.2567 67.0019 67.4067 70.1169 67.5117 74.0019ZM73.8213 67.0019V77.5019H91.3213V67.0019H94.8213V91.502H91.3213V81.002H73.8213V91.502H70.3213V67.0019H73.8213ZM118.964 84.502V74.0019C118.964 72.0769 117.389 70.5019 115.464 70.5019H104.964C103.039 70.5019 101.464 72.0769 101.464 74.0019V84.502C101.464 86.427 103.039 88.002 104.964 88.002H115.464C117.389 88.002 118.964 86.427 118.964 84.502ZM122.464 74.0019V84.502C122.464 88.352 119.314 91.502 115.464 91.502H104.964C101.079 91.502 97.9645 88.387 97.9645 84.502V74.0019C97.9645 70.1519 101.114 67.0019 104.964 67.0019H115.464C119.174 67.0019 122.464 70.1869 122.464 74.0019ZM147.69 70.5019H137.19V91.502H133.69V70.5019H123.19V67.0019H147.69V70.5019ZM169.414 84.502V74.0019C169.414 72.0769 167.839 70.5019 165.914 70.5019H155.414C153.489 70.5019 151.914 72.0769 151.914 74.0019V84.502C151.914 86.427 153.489 88.002 155.414 88.002H165.914C167.839 88.002 169.414 86.427 169.414 84.502ZM172.914 74.0019V84.502C172.914 88.352 169.764 91.502 165.914 91.502H155.414C151.529 91.502 148.414 88.387 148.414 84.502V74.0019C148.414 70.1519 151.564 67.0019 155.414 67.0019H165.914C169.624 67.0019 172.914 70.1869 172.914 74.0019ZM186.223 81.002V77.5019H200.223V84.502C200.223 88.212 197.143 91.502 193.223 91.502H182.723C178.978 91.502 175.723 88.457 175.723 84.502V74.0019C175.723 70.2919 178.803 67.0019 182.723 67.0019H193.223C196.968 67.0019 200.118 70.1169 200.223 74.0019H196.723C196.723 72.0769 195.148 70.5019 193.223 70.5019H182.723C180.798 70.5019 179.223 72.0769 179.223 74.0019V84.502C179.223 86.427 180.798 88.002 182.723 88.002H193.223C195.148 88.002 196.723 86.427 196.723 84.502V81.002H186.223ZM224.383 77.5019V74.0019C224.383 72.0769 222.808 70.5019 220.883 70.5019H206.883V81.002H220.883C222.808 81.002 224.383 79.4269 224.383 77.5019ZM227.883 91.502H225.398L218.398 84.502H206.883V91.502H203.383V67.0019H220.883C224.558 67.0019 227.883 70.1169 227.883 74.0019V77.5019C227.883 80.4769 225.923 83.172 223.018 84.152L227.883 89.017V91.502ZM248.534 70.5019H238.034C236.109 70.5019 234.534 72.0769 234.534 74.0019V81.002H252.034V74.0019C252.034 72.0769 250.459 70.5019 248.534 70.5019ZM255.534 74.0019V91.502H252.034V84.502H234.534V91.502H231.034V74.0019C231.034 70.2919 234.114 67.0019 238.034 67.0019H248.534C252.279 67.0019 255.429 70.1169 255.534 74.0019ZM280.027 77.5019V74.0019C280.027 72.0769 278.452 70.5019 276.527 70.5019H262.527V81.002H276.527C278.452 81.002 280.027 79.4269 280.027 77.5019ZM283.527 74.0019V77.5019C283.527 81.212 280.447 84.502 276.527 84.502H262.527V91.502H259.027V67.0019H276.527C280.272 67.0019 283.422 70.1169 283.527 74.0019ZM289.837 67.0019V77.5019H307.337V67.0019H310.837V91.502H307.337V81.002H289.837V91.502H286.337V67.0019H289.837ZM337.78 72.2519L327.28 83.802V91.502H323.78V83.802L313.28 72.2519V67.0019H316.78V70.8169L325.53 80.442L334.28 70.8169V67.0019H337.78V72.2519Z" fill="#EEEBEE"/>
<path d="M129.288 121.501V121.398L130.118 119.635L135.03 114.877C136.67 113.264 137.491 112.064 137.491 111.278V109.606C137.491 108.444 136.978 107.863 135.953 107.863H132.979C131.954 107.863 131.441 108.444 131.441 109.606V110.734L129.493 111.657H129.39V109.606C129.39 107.214 130.586 106.018 132.979 106.018H135.953C138.345 106.018 139.542 107.214 139.542 109.606V111.38C139.542 112.679 138.663 114.104 136.906 115.656L132.589 119.635H139.777V119.737L138.947 121.501H129.288ZM147.068 119.655H150.247C151.272 119.655 151.785 119.074 151.785 117.912V109.606C151.785 108.444 151.272 107.863 150.247 107.863H147.068C146.042 107.863 145.53 108.444 145.53 109.606V117.912C145.53 119.074 146.042 119.655 147.068 119.655ZM147.068 121.501C144.675 121.501 143.479 120.305 143.479 117.912V109.606C143.479 107.214 144.675 106.018 147.068 106.018H150.247C152.639 106.018 153.835 107.214 153.835 109.606V117.912C153.835 120.305 152.639 121.501 150.247 121.501H147.068ZM157.424 121.501V121.398L158.255 119.635L163.167 114.877C164.807 113.264 165.627 112.064 165.627 111.278V109.606C165.627 108.444 165.115 107.863 164.089 107.863H161.116C160.09 107.863 159.578 108.444 159.578 109.606V110.734L157.629 111.657H157.527V109.606C157.527 107.214 158.723 106.018 161.116 106.018H164.089C166.482 106.018 167.678 107.214 167.678 109.606V111.38C167.678 112.679 166.8 114.104 165.043 115.656L160.726 119.635H167.914V119.737L167.084 121.501H157.424ZM177.132 115.964V109.34L172.672 115.964H177.132ZM177.132 121.911V117.83H169.616V117.728L170.447 115.964L177.132 106.53L179.081 105.607H179.183V115.964H180.721V116.066L179.891 117.83H179.183V120.988L177.235 121.911H177.132ZM183.285 114.692V114.59L184.115 112.826H192.657V112.929L191.826 114.692H183.285ZM195.733 121.501V121.398L196.563 119.635L201.475 114.877C203.116 113.264 203.936 112.064 203.936 111.278V109.606C203.936 108.444 203.423 107.863 202.398 107.863H199.424C198.399 107.863 197.886 108.444 197.886 109.606V110.734L195.938 111.657H195.835V109.606C195.835 107.214 197.032 106.018 199.424 106.018H202.398C204.791 106.018 205.987 107.214 205.987 109.606V111.38C205.987 112.679 205.108 114.104 203.352 115.656L199.035 119.635H206.223V119.737L205.392 121.501H195.733ZM213.513 119.655H216.692C217.717 119.655 218.23 119.074 218.23 117.912V109.606C218.23 108.444 217.717 107.863 216.692 107.863H213.513C212.488 107.863 211.975 108.444 211.975 109.606V117.912C211.975 119.074 212.488 119.655 213.513 119.655ZM213.513 121.501C211.121 121.501 209.924 120.305 209.924 117.912V109.606C209.924 107.214 211.121 106.018 213.513 106.018H216.692C219.084 106.018 220.281 107.214 220.281 109.606V117.912C220.281 120.305 219.084 121.501 216.692 121.501H213.513ZM223.87 121.501V121.398L224.7 119.635L229.612 114.877C231.252 113.264 232.073 112.064 232.073 111.278V109.606C232.073 108.444 231.56 107.863 230.535 107.863H227.561C226.536 107.863 226.023 108.444 226.023 109.606V110.734L224.075 111.657H223.972V109.606C223.972 107.214 225.168 106.018 227.561 106.018H230.535C232.927 106.018 234.124 107.214 234.124 109.606V111.38C234.124 112.679 233.245 114.104 231.488 115.656L227.171 119.635H234.359V119.737L233.529 121.501H223.87ZM241.65 119.655H244.829C245.854 119.655 246.367 119.074 246.367 117.912V115.267C246.367 114.104 245.854 113.523 244.829 113.523H241.65C240.625 113.523 240.112 114.104 240.112 115.267V117.912C240.112 119.074 240.625 119.655 241.65 119.655ZM241.65 121.501C239.257 121.501 238.061 120.305 238.061 117.912V109.606C238.061 107.214 239.257 106.018 241.65 106.018H244.624C247.016 106.018 248.212 107.214 248.212 109.606V109.914L246.264 110.837H246.162V109.606C246.162 108.444 245.649 107.863 244.624 107.863H241.65C240.625 107.863 240.112 108.444 240.112 109.606V112.108C240.59 111.821 241.103 111.678 241.65 111.678H244.829C247.221 111.678 248.418 112.874 248.418 115.267V117.912C248.418 120.305 247.221 121.501 244.829 121.501H241.65Z" fill="#D49A67"/>
<path d="M135.242 140.149V129.896L136.541 129.28H136.609V134.093H140.643V129.896L141.941 129.28H142.01V139.534L140.711 140.149H140.643V135.337H136.609V139.534L135.311 140.149H135.242ZM146.453 138.646H148.025C148.481 138.646 148.709 138.372 148.709 137.825V134.407C148.709 133.86 148.481 133.587 148.025 133.587H146.453C145.997 133.587 145.77 133.86 145.77 134.407V137.825C145.77 138.372 145.997 138.646 146.453 138.646ZM146.453 139.876C145.086 139.876 144.402 139.192 144.402 137.825V134.407C144.402 133.04 145.086 132.356 146.453 132.356H148.025C149.393 132.356 150.076 133.04 150.076 134.407V137.825C150.076 139.192 149.393 139.876 148.025 139.876H146.453ZM153.74 140.149L151.102 132.644L152.284 132.083H152.353L154.287 137.784L156.181 132.083H156.249L157.432 132.644L154.991 139.589L153.809 140.149H153.74ZM160.508 139.876C159.141 139.876 158.457 139.192 158.457 137.825V134.407C158.457 133.04 159.141 132.356 160.508 132.356H162.08C163.447 132.356 164.131 133.04 164.131 134.407V134.77L159.845 138.085C159.909 138.459 160.13 138.646 160.508 138.646H162.08C162.536 138.646 162.764 138.372 162.764 137.825V137.463L164.063 136.848H164.131V137.825C164.131 139.192 163.447 139.876 162.08 139.876H160.508ZM159.824 136.656L162.757 134.291C162.73 133.822 162.504 133.587 162.08 133.587H160.508C160.052 133.587 159.824 133.86 159.824 134.407V136.656ZM166.182 140.149V134.407C166.182 133.04 166.865 132.356 168.232 132.356H169.941V132.425L169.395 133.587H168.232C167.777 133.587 167.549 133.86 167.549 134.407V139.534L166.25 140.149H166.182ZM178.281 138.646H179.717C180.173 138.646 180.4 138.372 180.4 137.825V136.889C180.4 136.342 180.173 136.068 179.717 136.068H178.281C177.826 136.068 177.598 136.342 177.598 136.889V137.825C177.598 138.372 177.826 138.646 178.281 138.646ZM178.281 139.876C176.914 139.876 176.23 139.192 176.23 137.825V136.889C176.23 135.521 176.914 134.838 178.281 134.838H179.717C179.954 134.838 180.182 134.906 180.4 135.043V134.407C180.4 133.86 180.173 133.587 179.717 133.587H177.27V133.519L177.816 132.356H179.717C181.084 132.356 181.768 133.04 181.768 134.407V139.534L180.469 140.149H180.4V139.671C180.227 139.808 179.999 139.876 179.717 139.876H178.281ZM183.818 140.149V134.407C183.818 133.04 184.502 132.356 185.869 132.356H187.441C188.809 132.356 189.492 133.04 189.492 134.407V139.534L188.193 140.149H188.125V134.407C188.125 133.86 187.897 133.587 187.441 133.587H185.869C185.413 133.587 185.186 133.86 185.186 134.407V139.534L183.887 140.149H183.818ZM193.594 139.876C192.227 139.876 191.543 139.192 191.543 137.825V134.407C191.543 133.04 192.227 132.356 193.594 132.356H195.166C195.476 132.356 195.704 132.427 195.85 132.568V129.896L197.148 129.28H197.217V137.825C197.217 139.192 196.533 139.876 195.166 139.876H193.594ZM193.594 138.646H195.166C195.622 138.646 195.85 138.372 195.85 137.825V134.407C195.85 133.86 195.622 133.587 195.166 133.587H193.594C193.138 133.587 192.91 133.86 192.91 134.407V137.825C192.91 138.372 193.138 138.646 193.594 138.646ZM205.42 140.149V134.284H204.395V134.216L204.948 133.04H205.42V131.604C205.42 130.237 206.104 129.554 207.471 129.554H209.18V129.622L208.633 130.784H207.471C207.015 130.784 206.787 131.058 206.787 131.604V133.04H209.05V133.108L208.496 134.284H206.787V139.534L205.488 140.149H205.42ZM211.675 130.846C211.515 130.682 211.436 130.486 211.436 130.258C211.436 130.025 211.515 129.827 211.675 129.663C211.834 129.499 212.028 129.417 212.256 129.417C212.484 129.417 212.677 129.499 212.837 129.663C212.996 129.827 213.076 130.025 213.076 130.258C213.076 130.486 212.996 130.682 212.837 130.846C212.677 131.01 212.484 131.092 212.256 131.092C212.028 131.092 211.834 131.01 211.675 130.846ZM211.572 140.149V132.698L212.871 132.083H212.939V139.534L211.641 140.149H211.572ZM215.332 140.149V134.407C215.332 133.04 216.016 132.356 217.383 132.356H218.955C220.322 132.356 221.006 133.04 221.006 134.407V139.534L219.707 140.149H219.639V134.407C219.639 133.86 219.411 133.587 218.955 133.587H217.383C216.927 133.587 216.699 133.86 216.699 134.407V139.534L215.4 140.149H215.332ZM225.107 139.876C223.74 139.876 223.057 139.192 223.057 137.825V134.407C223.057 133.04 223.74 132.356 225.107 132.356H226.68C226.99 132.356 227.217 132.427 227.363 132.568V129.896L228.662 129.28H228.73V137.825C228.73 139.192 228.047 139.876 226.68 139.876H225.107ZM225.107 138.646H226.68C227.135 138.646 227.363 138.372 227.363 137.825V134.407C227.363 133.86 227.135 133.587 226.68 133.587H225.107C224.652 133.587 224.424 133.86 224.424 134.407V137.825C224.424 138.372 224.652 138.646 225.107 138.646ZM237.036 130.846C236.877 130.682 236.797 130.486 236.797 130.258C236.797 130.025 236.877 129.827 237.036 129.663C237.196 129.499 237.389 129.417 237.617 129.417C237.845 129.417 238.039 129.499 238.198 129.663C238.358 129.827 238.438 130.025 238.438 130.258C238.438 130.486 238.358 130.682 238.198 130.846C238.039 131.01 237.845 131.092 237.617 131.092C237.389 131.092 237.196 131.01 237.036 130.846ZM236.934 140.149V132.698L238.232 132.083H238.301V139.534L237.002 140.149H236.934ZM241.596 140.149V133.601H239.839V133.532L240.393 132.356H241.596V129.896L242.895 129.28H242.963V132.356H244.72V132.425L244.166 133.601H242.963V139.534L241.664 140.149H241.596Z" fill="#D49A67"/>
</svg>
