<svg width="591" height="387" viewBox="0 0 591 387" fill="none" xmlns="http://www.w3.org/2000/svg">
<path d="M390.595 225.481C391.391 230.368 391.792 235.371 391.792 240.491C391.792 256.041 388.115 270.436 380.76 283.674C373.616 296.912 363.635 307.628 350.817 315.823C337.999 323.808 322.974 327.801 305.744 327.801C288.513 327.801 273.489 323.703 260.671 315.508C248.064 307.313 238.187 296.597 231.042 283.358C226.863 275.253 223.945 266.804 222.285 258.012C223.959 257.455 227.17 256.541 231.005 256.233C236.049 255.829 247.595 255.216 249.215 255.131C250.423 262.024 252.245 268.596 254.682 274.848C259.725 287.035 266.87 296.807 276.116 304.161C285.572 311.516 296.919 315.192 310.157 315.192C322.975 315.192 333.376 312.146 341.361 306.052C349.346 299.748 355.23 291.448 359.012 281.151C363.005 270.645 365 259.193 365 246.796C365 241.578 364.691 236.527 364.074 231.644C366.99 230.682 372.015 229.133 375.873 228.515C380.622 227.753 388.447 225.975 390.595 225.481ZM306.375 152.867C323.815 152.867 338.84 156.965 351.448 165.16C364.265 173.355 374.141 184.177 381.076 197.625C384.471 203.916 387.057 210.444 388.838 217.209C386.48 218.19 380.993 220.392 375.083 222.211C368.853 224.128 364.955 224.294 362.856 224.131C361.6 217.834 359.794 211.835 357.436 206.136C352.603 193.738 345.564 183.861 336.318 176.507C327.072 169.152 315.725 165.476 302.277 165.476C289.459 165.476 278.952 168.627 270.757 174.931C262.772 181.024 256.889 189.22 253.107 199.517C249.325 209.813 247.433 221.265 247.433 233.872C247.433 239.16 247.738 244.29 248.345 249.262C245.143 250.046 235.51 252.36 231.005 252.896C226.54 253.429 222.902 253.64 221.577 253.705C220.955 249.28 220.641 244.771 220.641 240.177C220.641 224.627 224.214 210.233 231.358 196.995C238.502 183.757 248.483 173.145 261.301 165.16C274.329 156.965 289.354 152.867 306.375 152.867Z" fill="#EEEBEE"/>
<path d="M180.151 162.645V113.474L37.8234 111.11L47.2792 63.8311L0 185.181L15.7597 162.645C16.18 155.29 19.0865 148.776 20.9777 143.103C22.8689 137.429 26.4411 133.016 31.6943 129.864C36.9476 126.502 44.8274 124.821 55.3339 124.821H81.8103V208.19V291.559C81.8103 298.704 81.1799 303.957 79.9192 307.319C78.6584 310.681 76.3469 312.888 72.9849 313.938C68.5549 315.323 63.827 311.259 61.463 304.955C61.463 304.955 49.6432 327.814 44.9153 347.506C41.4482 361.947 43.3393 386.906 43.3393 386.906C43.3393 386.906 43.8188 346.387 61.463 333.323C75.9103 322.625 86.6786 316.775 112.682 319.139C138.686 321.503 152.557 342.498 165.477 339.627C193.845 333.323 193.057 307.319 193.057 307.319C193.057 307.319 169.417 328.595 151.294 326.231C133.17 323.867 123.714 319.927 118.198 316.775C112.855 313.722 112.682 312.047 110.318 307.319C108.742 303.379 108.602 298.704 108.602 291.559V208.19V124.821H134.763C145.48 124.821 153.465 126.502 158.718 129.864C163.971 133.016 167.543 137.429 169.434 143.103C171.326 148.776 171.781 155.238 173.2 162.645H180.151Z" fill="#EEEBEE"/>
<path d="M402.201 157.581C405.353 162.834 408.715 167.877 412.287 172.71C415.859 177.333 419.957 182.06 424.58 186.893C424.621 186.928 431.782 193.072 441.09 201.434L424.74 209.609L424.832 209.794C412.998 205.634 404.092 203.284 404.092 203.284H403.462V291.538C403.462 299.313 405.352 305.197 409.135 309.189C413.127 313.182 421.323 315.388 433.721 315.808V323.057C433.721 323.057 414.77 315.79 402.201 315.808C389.779 315.826 370.441 323.029 370.366 323.057V315.808C377.3 315.388 382.134 313.182 384.865 309.189C387.807 305.197 403.865 311.194 401.886 266.323C399.522 212.74 394.005 202.496 390.065 194.616C387.485 189.454 382.974 181.22 379.034 176.492C374.306 171.764 371.154 168.612 362.486 164.83V157.581H402.201ZM524.812 154.429C550.815 154.422 591.003 154.454 591.003 154.454C591.003 154.454 553.18 155.238 543.724 159.157C534.268 163.077 533.269 167.457 530.327 171.449C527.596 175.441 526.703 181.326 526.703 189.1V308.558C526.913 313.812 526.493 316.964 526.703 323.057C526.698 323.022 526.135 319.152 517.72 319.118C508.797 319.082 482.394 323.037 482.261 323.057C502.748 319.906 509.367 315.913 505.585 311.08C502.013 306.247 497.233 298.631 497.232 286.023C497.232 286.023 493.323 256.972 477.532 238.744C467.708 227.404 446.846 217.91 429.859 211.608C431.802 210.923 434.274 209.965 436.561 208.821C439.396 207.403 442.513 205.699 444.556 204.564C453.415 212.596 463.549 222.069 471.229 230.076C488.005 247.567 511.503 277.266 511.573 277.354H512.204V189.1C512.204 181.326 513.412 178.908 509.84 174.916C506.478 170.924 505.112 170.188 494.08 171.449L468.864 182.008C468.923 181.956 500.475 154.434 524.812 154.429Z" fill="#EEEBEE"/>
<path d="M212.744 0C212.744 0 215.377 92.5485 225.368 102.54C235.36 112.532 475.162 115.097 475.162 115.097C475.162 115.097 235.36 117.662 225.368 127.654C215.377 137.646 212.744 166.265 212.744 166.265C212.744 166.265 210.246 137.646 200.255 127.654C190.263 117.662 166.32 115.097 166.32 115.097C166.32 115.097 190.263 112.532 200.255 102.54C210.246 92.5485 212.744 0 212.744 0Z" fill="#EEEBEE"/>
<path d="M245.367 164.852C240.744 165.062 237.067 165.693 234.336 166.743C231.604 167.794 229.607 170 228.346 173.362C227.164 176.514 223.777 182.818 221.413 189.122C221.382 189.189 207.369 219.391 207.269 251.849C214.906 253.312 223.125 253.539 231.406 252.38C246.447 248.585 284.881 238.095 291.43 228.468C299.607 216.448 287.621 162.33 287.621 162.33C287.621 162.33 304.792 215.461 316.811 223.638C325.441 229.508 357.42 226.949 374.77 225.038C386.106 221.244 404.082 214.901 416.847 208.822C454.943 190.682 494.727 163.995 494.858 163.907C494.861 163.975 495.617 184.403 478.31 189.123C465.003 192.752 439.699 205.512 419.212 213.865C407.321 218.713 390.653 222.869 378.758 225.505C363.204 229.591 327.974 239.707 321.64 249.019C313.47 261.03 321.629 322.203 321.64 322.291C321.618 322.192 308.269 262.018 296.259 253.849C286.19 246.999 243.244 251.631 229.573 253.314C223.551 254.635 215.61 256.06 207.359 256.655C207.936 270.709 211.35 284.926 219.837 297.076C222.86 301.405 227.191 303.958 228.662 307.32C230.133 310.682 232.759 312.889 236.542 313.939C240.534 314.99 246.103 315.62 253.247 315.83V323.08C253.163 323.052 231.226 315.809 216.705 315.83C202.261 315.851 183.609 330.172 183.609 330.172L189.913 320.716C192.277 314.412 193.045 310.472 193.045 307.32H199.034C201.733 306.532 208.016 304.22 208.016 297.076C208.016 294.255 206.908 276.828 205.57 256.771C191.41 257.575 176.681 255.758 169.404 246.645C153.537 226.774 175.68 180.756 174.906 175.726C173.335 165.517 172.548 157.657 172.543 157.603H245.367V164.852ZM189.09 169.422C182.498 169.423 164.733 189.91 168.637 217.489C171.121 235.028 186.142 247.149 205.211 251.421C203.231 221.963 200.932 189.226 200.924 189.122C200.924 181.768 200.189 176.514 198.718 173.362C197.248 170 193.391 169.422 189.09 169.422Z" fill="#EEEBEE"/>
<path d="M360.106 230.092L359.318 226.94C359.318 226.94 368.501 225.81 374.29 224.576C382.766 222.77 395.566 218.272 395.566 218.272L396.354 220.636C396.354 220.636 385.308 224.066 378.23 225.758L360.106 230.092Z" fill="#EEEBEE"/>
</svg>
