<svg width="791" height="178" viewBox="0 0 791 178" fill="none" xmlns="http://www.w3.org/2000/svg">
<path d="M3.6 9.2V16.4H15.6V9.2H18V26H15.6V18.8H3.6V26H1.2V9.2H3.6ZM22.7953 11.6V16.4H34.7953V18.8H22.7953V23.6H37.1953V26H20.3953V9.2H37.1953V11.6H22.7953ZM41.5219 9.2V23.6H55.9219V26H39.1219V9.2H41.5219ZM59.5219 9.2V23.6H73.9219V26H57.1219V9.2H59.5219ZM88.8131 21.2V14C88.8131 12.68 87.7331 11.6 86.4131 11.6H79.2131C77.8931 11.6 76.8131 12.68 76.8131 14V21.2C76.8131 22.52 77.8931 23.6 79.2131 23.6H86.4131C87.7331 23.6 88.8131 22.52 88.8131 21.2ZM91.2131 14V21.2C91.2131 23.84 89.0531 26 86.4131 26H79.2131C76.5491 26 74.4131 23.864 74.4131 21.2V14C74.4131 11.36 76.5731 9.2 79.2131 9.2H86.4131C88.9571 9.2 91.2131 11.384 91.2131 14ZM93.3797 28.4V23.6H95.7797V28.4H93.3797ZM107.794 26V9.2H110.194V26H107.794ZM134.208 11.6H127.008C125.688 11.6 124.608 12.68 124.608 14V18.8H136.608V14C136.608 12.68 135.528 11.6 134.208 11.6ZM139.008 14V26H136.608V21.2H124.608V26H122.208V14C122.208 11.456 124.32 9.2 127.008 9.2H134.208C136.776 9.2 138.936 11.336 139.008 14ZM151.003 23.888L143.803 13.496V26H141.403V9.2H143.803L151.003 19.592L158.203 9.2H160.603V26H158.203V13.496L151.003 23.888Z" fill="#EEEBEE"/>
<path d="M23.04 52.8H51.84C62.112 52.8 70.752 61.344 71.04 72H61.44C61.44 66.72 57.12 62.4 51.84 62.4H23.04C17.76 62.4 13.44 66.72 13.44 72V100.8C13.44 106.08 17.76 110.4 23.04 110.4H51.84C57.12 110.4 61.44 106.08 61.44 100.8H71.04C71.04 110.976 62.592 120 51.84 120H23.04C12.768 120 3.84 111.648 3.84 100.8V72C3.84 61.632 12.288 53.088 23.04 52.8ZM126.675 62.4H97.875C92.595 62.4 88.275 66.72 88.275 72V91.2H136.275V72C136.275 66.72 131.955 62.4 126.675 62.4ZM145.875 72V120H136.275V100.8H88.275V120H78.675V72C78.675 61.824 87.123 52.8 97.875 52.8H126.675C136.947 52.8 145.587 61.344 145.875 72ZM165.056 52.8V110.4H222.656V120H155.456V52.8H165.056ZM237.056 52.8V110.4H294.656V120H227.456V52.8H237.056ZM299.456 120V52.8H309.056V120H299.456ZM384.915 100.8C384.915 110.976 376.467 120 365.715 120H336.915C326.451 120 318.003 111.648 317.715 100.8H327.315C327.315 106.08 331.635 110.4 336.915 110.4H365.715C370.995 110.4 375.315 106.08 375.315 100.8C375.315 95.52 370.995 91.2 365.715 91.2H336.915C326.643 91.2 317.715 82.848 317.715 72C317.715 61.824 326.163 52.8 336.915 52.8H365.715C375.987 52.8 384.627 61.344 384.915 72H375.315C375.315 66.72 370.995 62.4 365.715 62.4H336.915C331.635 62.4 327.315 66.72 327.315 72C327.315 77.28 331.635 81.6 336.915 81.6H365.715C375.795 81.6 384.915 90.144 384.915 100.8ZM454.106 62.4H425.306V120H415.706V62.4H386.906V52.8H454.106V62.4ZM504.019 62.4H475.219C469.939 62.4 465.619 66.72 465.619 72V91.2H513.619V72C513.619 66.72 509.299 62.4 504.019 62.4ZM523.219 72V120H513.619V100.8H465.619V120H456.019V72C456.019 61.824 464.467 52.8 475.219 52.8H504.019C514.291 52.8 522.931 61.344 523.219 72ZM592.838 120L568.358 72V52.8H577.958V69.696L598.694 110.4H605.222L625.958 69.696V52.8H635.558V72L611.078 120H592.838ZM635.55 120V110.4H645.15V120H635.55ZM702.806 62.4V81.6H750.806V91.2H702.806V110.4H760.406V120H693.206V52.8H760.406V62.4H702.806ZM768.113 120V110.4H777.713V120H768.113Z" fill="#EEEBEE"/>
<path d="M574.352 153.312L570.367 141.531L571.719 140.891H571.797L575.031 150.703L578.086 140.891H578.164L579.516 141.531L575.781 152.672L574.43 153.312H574.352ZM581.242 142.68C581.06 142.492 580.969 142.268 580.969 142.008C580.969 141.742 581.06 141.516 581.242 141.328C581.424 141.141 581.646 141.047 581.906 141.047C582.167 141.047 582.388 141.141 582.57 141.328C582.753 141.516 582.844 141.742 582.844 142.008C582.844 142.268 582.753 142.492 582.57 142.68C582.388 142.867 582.167 142.961 581.906 142.961C581.646 142.961 581.424 142.867 581.242 142.68ZM581.125 153.312V144.797L582.609 144.094H582.688V152.609L581.203 153.312H581.125ZM587.531 153C585.969 153 585.188 152.219 585.188 150.656V150.375L586.672 149.672H586.75V150.656C586.75 151.281 587.01 151.594 587.531 151.594H589.328C589.849 151.594 590.109 151.281 590.109 150.656V150.039C590.109 149.414 589.849 149.102 589.328 149.102H587.859C586.297 149.102 585.516 148.318 585.516 146.75C585.516 145.188 586.297 144.406 587.859 144.406H588.773C590.336 144.406 591.117 145.036 591.117 146.297L589.633 147H589.555V146.75C589.555 146.125 589.294 145.812 588.773 145.812H587.859C587.339 145.812 587.078 146.125 587.078 146.75C587.078 147.38 587.339 147.695 587.859 147.695H589.328C590.891 147.695 591.672 148.477 591.672 150.039V150.656C591.672 152.219 590.891 153 589.328 153H587.531ZM596.125 153C594.562 153 593.781 152.219 593.781 150.656V144.797L595.266 144.094H595.344V150.656C595.344 151.281 595.604 151.594 596.125 151.594H597.922C598.443 151.594 598.703 151.281 598.703 150.656V144.797L600.188 144.094H600.266V150.656C600.266 152.219 599.484 153 597.922 153H596.125ZM604.562 151.594H606.203C606.724 151.594 606.984 151.281 606.984 150.656V149.586C606.984 148.961 606.724 148.648 606.203 148.648H604.562C604.042 148.648 603.781 148.961 603.781 149.586V150.656C603.781 151.281 604.042 151.594 604.562 151.594ZM604.562 153C603 153 602.219 152.219 602.219 150.656V149.586C602.219 148.023 603 147.242 604.562 147.242H606.203C606.474 147.242 606.734 147.32 606.984 147.477V146.75C606.984 146.125 606.724 145.812 606.203 145.812H603.406V145.734L604.031 144.406H606.203C607.766 144.406 608.547 145.188 608.547 146.75V152.609L607.062 153.312H606.984V152.766C606.786 152.922 606.526 153 606.203 153H604.562ZM611.281 153.312V141.594L612.766 140.891H612.844V152.609L611.359 153.312H611.281ZM624.953 153C623.13 153 622.219 152.089 622.219 150.266V143.938C622.219 142.115 623.13 141.203 624.953 141.203H627.375C629.198 141.203 630.109 142.115 630.109 143.938V144.797L628.625 145.5H628.547V143.938C628.547 143.052 628.156 142.609 627.375 142.609H624.953C624.172 142.609 623.781 143.052 623.781 143.938V150.266C623.781 151.151 624.172 151.594 624.953 151.594H627.375C628.156 151.594 628.547 151.151 628.547 150.266V149.406L630.031 148.703H630.109V150.266C630.109 152.089 629.198 153 627.375 153H624.953ZM635.188 151.594H636.984C637.505 151.594 637.766 151.281 637.766 150.656V146.75C637.766 146.125 637.505 145.812 636.984 145.812H635.188C634.667 145.812 634.406 146.125 634.406 146.75V150.656C634.406 151.281 634.667 151.594 635.188 151.594ZM635.188 153C633.625 153 632.844 152.219 632.844 150.656V146.75C632.844 145.188 633.625 144.406 635.188 144.406H636.984C638.547 144.406 639.328 145.188 639.328 146.75V150.656C639.328 152.219 638.547 153 636.984 153H635.188ZM641.672 153.312V146.75C641.672 145.188 642.453 144.406 644.016 144.406H645.812C646.531 144.406 647.052 144.599 647.375 144.984C647.719 144.599 648.24 144.406 648.938 144.406H650.734C652.297 144.406 653.078 145.188 653.078 146.75V152.609L651.594 153.312H651.516V146.75C651.516 146.125 651.255 145.812 650.734 145.812H648.938C648.417 145.812 648.156 146.125 648.156 146.75V152.609L646.672 153.312H646.594V146.75C646.594 146.125 646.333 145.812 645.812 145.812H644.016C643.495 145.812 643.234 146.125 643.234 146.75V152.609L641.75 153.312H641.672ZM655.422 153.312V146.75C655.422 145.188 656.203 144.406 657.766 144.406H659.562C660.281 144.406 660.802 144.599 661.125 144.984C661.469 144.599 661.99 144.406 662.688 144.406H664.484C666.047 144.406 666.828 145.188 666.828 146.75V152.609L665.344 153.312H665.266V146.75C665.266 146.125 665.005 145.812 664.484 145.812H662.688C662.167 145.812 661.906 146.125 661.906 146.75V152.609L660.422 153.312H660.344V146.75C660.344 146.125 660.083 145.812 659.562 145.812H657.766C657.245 145.812 656.984 146.125 656.984 146.75V152.609L655.5 153.312H655.422ZM671.516 153C669.953 153 669.172 152.219 669.172 150.656V144.797L670.656 144.094H670.734V150.656C670.734 151.281 670.995 151.594 671.516 151.594H673.312C673.833 151.594 674.094 151.281 674.094 150.656V144.797L675.578 144.094H675.656V150.656C675.656 152.219 674.875 153 673.312 153H671.516ZM678 153.312V146.75C678 145.188 678.781 144.406 680.344 144.406H682.141C683.703 144.406 684.484 145.188 684.484 146.75V152.609L683 153.312H682.922V146.75C682.922 146.125 682.661 145.812 682.141 145.812H680.344C679.823 145.812 679.562 146.125 679.562 146.75V152.609L678.078 153.312H678ZM687.336 142.68C687.154 142.492 687.062 142.268 687.062 142.008C687.062 141.742 687.154 141.516 687.336 141.328C687.518 141.141 687.74 141.047 688 141.047C688.26 141.047 688.482 141.141 688.664 141.328C688.846 141.516 688.938 141.742 688.938 142.008C688.938 142.268 688.846 142.492 688.664 142.68C688.482 142.867 688.26 142.961 688 142.961C687.74 142.961 687.518 142.867 687.336 142.68ZM687.219 153.312V144.797L688.703 144.094H688.781V152.609L687.297 153.312H687.219ZM693.859 153C692.297 153 691.516 152.219 691.516 150.656V146.75C691.516 145.188 692.297 144.406 693.859 144.406H695.656C697.219 144.406 698 145.188 698 146.75V147.164L696.516 147.867H696.438V146.75C696.438 146.125 696.177 145.812 695.656 145.812H693.859C693.339 145.812 693.078 146.125 693.078 146.75V150.656C693.078 151.281 693.339 151.594 693.859 151.594H695.656C696.177 151.594 696.438 151.281 696.438 150.656V150.242L697.922 149.539H698V150.656C698 152.219 697.219 153 695.656 153H693.859ZM702.297 151.594H703.938C704.458 151.594 704.719 151.281 704.719 150.656V149.586C704.719 148.961 704.458 148.648 703.938 148.648H702.297C701.776 148.648 701.516 148.961 701.516 149.586V150.656C701.516 151.281 701.776 151.594 702.297 151.594ZM702.297 153C700.734 153 699.953 152.219 699.953 150.656V149.586C699.953 148.023 700.734 147.242 702.297 147.242H703.938C704.208 147.242 704.469 147.32 704.719 147.477V146.75C704.719 146.125 704.458 145.812 703.938 145.812H701.141V145.734L701.766 144.406H703.938C705.5 144.406 706.281 145.188 706.281 146.75V152.609L704.797 153.312H704.719V152.766C704.521 152.922 704.26 153 703.938 153H702.297ZM709.656 153.312V145.828H707.648V145.75L708.281 144.406H709.656V141.594L711.141 140.891H711.219V144.406H713.227V144.484L712.594 145.828H711.219V152.609L709.734 153.312H709.656ZM715.102 142.68C714.919 142.492 714.828 142.268 714.828 142.008C714.828 141.742 714.919 141.516 715.102 141.328C715.284 141.141 715.505 141.047 715.766 141.047C716.026 141.047 716.247 141.141 716.43 141.328C716.612 141.516 716.703 141.742 716.703 142.008C716.703 142.268 716.612 142.492 716.43 142.68C716.247 142.867 716.026 142.961 715.766 142.961C715.505 142.961 715.284 142.867 715.102 142.68ZM714.984 153.312V144.797L716.469 144.094H716.547V152.609L715.062 153.312H714.984ZM721.625 151.594H723.422C723.943 151.594 724.203 151.281 724.203 150.656V146.75C724.203 146.125 723.943 145.812 723.422 145.812H721.625C721.104 145.812 720.844 146.125 720.844 146.75V150.656C720.844 151.281 721.104 151.594 721.625 151.594ZM721.625 153C720.062 153 719.281 152.219 719.281 150.656V146.75C719.281 145.188 720.062 144.406 721.625 144.406H723.422C724.984 144.406 725.766 145.188 725.766 146.75V150.656C725.766 152.219 724.984 153 723.422 153H721.625ZM728.109 153.312V146.75C728.109 145.188 728.891 144.406 730.453 144.406H732.25C733.812 144.406 734.594 145.188 734.594 146.75V152.609L733.109 153.312H733.031V146.75C733.031 146.125 732.771 145.812 732.25 145.812H730.453C729.932 145.812 729.672 146.125 729.672 146.75V152.609L728.188 153.312H728.109ZM745.531 153C743.969 153 743.188 152.219 743.188 150.656V146.75C743.188 145.188 743.969 144.406 745.531 144.406H747.328C747.682 144.406 747.943 144.487 748.109 144.648V141.594L749.594 140.891H749.672V150.656C749.672 152.219 748.891 153 747.328 153H745.531ZM745.531 151.594H747.328C747.849 151.594 748.109 151.281 748.109 150.656V146.75C748.109 146.125 747.849 145.812 747.328 145.812H745.531C745.01 145.812 744.75 146.125 744.75 146.75V150.656C744.75 151.281 745.01 151.594 745.531 151.594ZM754.75 153C753.188 153 752.406 152.219 752.406 150.656V146.75C752.406 145.188 753.188 144.406 754.75 144.406H756.547C758.109 144.406 758.891 145.188 758.891 146.75V147.164L753.992 150.953C754.065 151.38 754.318 151.594 754.75 151.594H756.547C757.068 151.594 757.328 151.281 757.328 150.656V150.242L758.812 149.539H758.891V150.656C758.891 152.219 758.109 153 756.547 153H754.75ZM753.969 149.32L757.32 146.617C757.289 146.081 757.031 145.812 756.547 145.812H754.75C754.229 145.812 753.969 146.125 753.969 146.75V149.32ZM763.344 153C761.781 153 761 152.219 761 150.656V150.375L762.484 149.672H762.562V150.656C762.562 151.281 762.823 151.594 763.344 151.594H765.141C765.661 151.594 765.922 151.281 765.922 150.656V150.039C765.922 149.414 765.661 149.102 765.141 149.102H763.672C762.109 149.102 761.328 148.318 761.328 146.75C761.328 145.188 762.109 144.406 763.672 144.406H764.586C766.148 144.406 766.93 145.036 766.93 146.297L765.445 147H765.367V146.75C765.367 146.125 765.107 145.812 764.586 145.812H763.672C763.151 145.812 762.891 146.125 762.891 146.75C762.891 147.38 763.151 147.695 763.672 147.695H765.141C766.703 147.695 767.484 148.477 767.484 150.039V150.656C767.484 152.219 766.703 153 765.141 153H763.344ZM770.102 142.68C769.919 142.492 769.828 142.268 769.828 142.008C769.828 141.742 769.919 141.516 770.102 141.328C770.284 141.141 770.505 141.047 770.766 141.047C771.026 141.047 771.247 141.141 771.43 141.328C771.612 141.516 771.703 141.742 771.703 142.008C771.703 142.268 771.612 142.492 771.43 142.68C771.247 142.867 771.026 142.961 770.766 142.961C770.505 142.961 770.284 142.867 770.102 142.68ZM769.984 153.312V144.797L771.469 144.094H771.547V152.609L770.062 153.312H769.984ZM776.625 153C775.062 153 774.281 152.219 774.281 150.656V146.75C774.281 145.188 775.062 144.406 776.625 144.406H778.422C779.984 144.406 780.766 145.188 780.766 146.75V153.859C780.766 155.422 779.984 156.203 778.422 156.203H775.094V156.125L775.719 154.797H778.422C778.943 154.797 779.203 154.484 779.203 153.859V152.766C778.984 152.922 778.724 153 778.422 153H776.625ZM776.625 151.594H778.422C778.943 151.594 779.203 151.281 779.203 150.656V146.75C779.203 146.125 778.943 145.812 778.422 145.812H776.625C776.104 145.812 775.844 146.125 775.844 146.75V150.656C775.844 151.281 776.104 151.594 776.625 151.594ZM783.344 153.312V146.75C783.344 145.188 784.125 144.406 785.688 144.406H787.484C789.047 144.406 789.828 145.188 789.828 146.75V152.609L788.344 153.312H788.266V146.75C788.266 146.125 788.005 145.812 787.484 145.812H785.688C785.167 145.812 784.906 146.125 784.906 146.75V152.609L783.422 153.312H783.344Z" fill="#EEEBEE"/>
<path d="M456.109 174.312V162.594L457.594 161.891H457.672V173.609L456.188 174.312H456.109ZM460.406 174.312V167.75C460.406 166.188 461.188 165.406 462.75 165.406H464.547C466.109 165.406 466.891 166.188 466.891 167.75V173.609L465.406 174.312H465.328V167.75C465.328 167.125 465.068 166.812 464.547 166.812H462.75C462.229 166.812 461.969 167.125 461.969 167.75V173.609L460.484 174.312H460.406ZM471.344 174C469.781 174 469 173.219 469 171.656V171.375L470.484 170.672H470.562V171.656C470.562 172.281 470.823 172.594 471.344 172.594H473.141C473.661 172.594 473.922 172.281 473.922 171.656V171.039C473.922 170.414 473.661 170.102 473.141 170.102H471.672C470.109 170.102 469.328 169.318 469.328 167.75C469.328 166.188 470.109 165.406 471.672 165.406H472.586C474.148 165.406 474.93 166.036 474.93 167.297L473.445 168H473.367V167.75C473.367 167.125 473.107 166.812 472.586 166.812H471.672C471.151 166.812 470.891 167.125 470.891 167.75C470.891 168.38 471.151 168.695 471.672 168.695H473.141C474.703 168.695 475.484 169.477 475.484 171.039V171.656C475.484 173.219 474.703 174 473.141 174H471.344ZM478.625 174.312V166.828H476.617V166.75L477.25 165.406H478.625V162.594L480.109 161.891H480.188V165.406H482.195V165.484L481.562 166.828H480.188V173.609L478.703 174.312H478.625ZM484.07 163.68C483.888 163.492 483.797 163.268 483.797 163.008C483.797 162.742 483.888 162.516 484.07 162.328C484.253 162.141 484.474 162.047 484.734 162.047C484.995 162.047 485.216 162.141 485.398 162.328C485.581 162.516 485.672 162.742 485.672 163.008C485.672 163.268 485.581 163.492 485.398 163.68C485.216 163.867 484.995 163.961 484.734 163.961C484.474 163.961 484.253 163.867 484.07 163.68ZM483.953 174.312V165.797L485.438 165.094H485.516V173.609L484.031 174.312H483.953ZM489.281 174.312V166.828H487.273V166.75L487.906 165.406H489.281V162.594L490.766 161.891H490.844V165.406H492.852V165.484L492.219 166.828H490.844V173.609L489.359 174.312H489.281ZM496.562 174C495 174 494.219 173.219 494.219 171.656V165.797L495.703 165.094H495.781V171.656C495.781 172.281 496.042 172.594 496.562 172.594H498.359C498.88 172.594 499.141 172.281 499.141 171.656V165.797L500.625 165.094H500.703V171.656C500.703 173.219 499.922 174 498.359 174H496.562ZM504.078 174.312V166.828H502.07V166.75L502.703 165.406H504.078V162.594L505.562 161.891H505.641V165.406H507.648V165.484L507.016 166.828H505.641V173.609L504.156 174.312H504.078ZM517.477 174.312V163.625H514.133V163.547L514.766 162.203H522.383V162.281L521.75 163.625H519.039V173.609L517.555 174.312H517.477ZM524.531 174C522.969 174 522.188 173.219 522.188 171.656V167.75C522.188 166.188 522.969 165.406 524.531 165.406H526.328C527.891 165.406 528.672 166.188 528.672 167.75V168.164L523.773 171.953C523.846 172.38 524.099 172.594 524.531 172.594H526.328C526.849 172.594 527.109 172.281 527.109 171.656V171.242L528.594 170.539H528.672V171.656C528.672 173.219 527.891 174 526.328 174H524.531ZM523.75 170.32L527.102 167.617C527.07 167.081 526.812 166.812 526.328 166.812H524.531C524.01 166.812 523.75 167.125 523.75 167.75V170.32ZM531.406 174.312V162.594L532.891 161.891H532.969V168.219C533.036 168.203 533.109 168.19 533.188 168.18L536.234 165.094H536.312L537.688 165.742L535.078 168.141H535.547C537.109 168.141 537.891 168.922 537.891 170.484V173.609L536.406 174.312H536.328V170.484C536.328 169.859 536.068 169.547 535.547 169.547H533.75C533.229 169.547 532.969 169.859 532.969 170.484V173.609L531.484 174.312H531.406ZM540.234 174.312V167.75C540.234 166.188 541.016 165.406 542.578 165.406H544.375C545.938 165.406 546.719 166.188 546.719 167.75V173.609L545.234 174.312H545.156V167.75C545.156 167.125 544.896 166.812 544.375 166.812H542.578C542.057 166.812 541.797 167.125 541.797 167.75V173.609L540.312 174.312H540.234ZM551.406 172.594H553.203C553.724 172.594 553.984 172.281 553.984 171.656V167.75C553.984 167.125 553.724 166.812 553.203 166.812H551.406C550.885 166.812 550.625 167.125 550.625 167.75V171.656C550.625 172.281 550.885 172.594 551.406 172.594ZM551.406 174C549.844 174 549.062 173.219 549.062 171.656V167.75C549.062 166.188 549.844 165.406 551.406 165.406H553.203C554.766 165.406 555.547 166.188 555.547 167.75V171.656C555.547 173.219 554.766 174 553.203 174H551.406ZM558.281 174.312V162.594L559.766 161.891H559.844V173.609L558.359 174.312H558.281ZM564.922 172.594H566.719C567.24 172.594 567.5 172.281 567.5 171.656V167.75C567.5 167.125 567.24 166.812 566.719 166.812H564.922C564.401 166.812 564.141 167.125 564.141 167.75V171.656C564.141 172.281 564.401 172.594 564.922 172.594ZM564.922 174C563.359 174 562.578 173.219 562.578 171.656V167.75C562.578 166.188 563.359 165.406 564.922 165.406H566.719C568.281 165.406 569.062 166.188 569.062 167.75V171.656C569.062 173.219 568.281 174 566.719 174H564.922ZM573.75 174C572.188 174 571.406 173.219 571.406 171.656V167.75C571.406 166.188 572.188 165.406 573.75 165.406H575.547C577.109 165.406 577.891 166.188 577.891 167.75V174.859C577.891 176.422 577.109 177.203 575.547 177.203H572.219V177.125L572.844 175.797H575.547C576.068 175.797 576.328 175.484 576.328 174.859V173.766C576.109 173.922 575.849 174 575.547 174H573.75ZM573.75 172.594H575.547C576.068 172.594 576.328 172.281 576.328 171.656V167.75C576.328 167.125 576.068 166.812 575.547 166.812H573.75C573.229 166.812 572.969 167.125 572.969 167.75V171.656C572.969 172.281 573.229 172.594 573.75 172.594ZM580.977 163.68C580.794 163.492 580.703 163.268 580.703 163.008C580.703 162.742 580.794 162.516 580.977 162.328C581.159 162.141 581.38 162.047 581.641 162.047C581.901 162.047 582.122 162.141 582.305 162.328C582.487 162.516 582.578 162.742 582.578 163.008C582.578 163.268 582.487 163.492 582.305 163.68C582.122 163.867 581.901 163.961 581.641 163.961C581.38 163.961 581.159 163.867 580.977 163.68ZM580.859 174.312V165.797L582.344 165.094H582.422V173.609L580.938 174.312H580.859ZM591.797 174V162.594L592.625 162.203H596.484C598.047 162.203 598.828 162.984 598.828 164.547V165.828C598.828 166.401 598.677 166.857 598.375 167.195C599.146 167.633 599.531 168.401 599.531 169.5V171.266C599.531 173.089 598.62 174 596.797 174H591.797ZM593.359 172.594H596.797C597.578 172.594 597.969 172.151 597.969 171.266V169.5C597.969 168.615 597.578 168.172 596.797 168.172H593.359V172.594ZM593.359 166.766H596.484C597.005 166.766 597.266 166.453 597.266 165.828V164.547C597.266 163.922 597.005 163.609 596.484 163.609H593.359V166.766ZM604.062 172.594H605.703C606.224 172.594 606.484 172.281 606.484 171.656V170.586C606.484 169.961 606.224 169.648 605.703 169.648H604.062C603.542 169.648 603.281 169.961 603.281 170.586V171.656C603.281 172.281 603.542 172.594 604.062 172.594ZM604.062 174C602.5 174 601.719 173.219 601.719 171.656V170.586C601.719 169.023 602.5 168.242 604.062 168.242H605.703C605.974 168.242 606.234 168.32 606.484 168.477V167.75C606.484 167.125 606.224 166.812 605.703 166.812H602.906V166.734L603.531 165.406H605.703C607.266 165.406 608.047 166.188 608.047 167.75V173.609L606.562 174.312H606.484V173.766C606.286 173.922 606.026 174 605.703 174H604.062ZM610.391 174.312V167.75C610.391 166.188 611.172 165.406 612.734 165.406H614.531C616.094 165.406 616.875 166.188 616.875 167.75V173.609L615.391 174.312H615.312V167.75C615.312 167.125 615.052 166.812 614.531 166.812H612.734C612.214 166.812 611.953 167.125 611.953 167.75V173.609L610.469 174.312H610.391ZM621.562 174C620 174 619.219 173.219 619.219 171.656V167.75C619.219 166.188 620 165.406 621.562 165.406H623.359C623.714 165.406 623.974 165.487 624.141 165.648V162.594L625.625 161.891H625.703V171.656C625.703 173.219 624.922 174 623.359 174H621.562ZM621.562 172.594H623.359C623.88 172.594 624.141 172.281 624.141 171.656V167.75C624.141 167.125 623.88 166.812 623.359 166.812H621.562C621.042 166.812 620.781 167.125 620.781 167.75V171.656C620.781 172.281 621.042 172.594 621.562 172.594ZM630.781 174C629.219 174 628.438 173.219 628.438 171.656V165.797L629.922 165.094H630V171.656C630 172.281 630.26 172.594 630.781 172.594H632.578C633.099 172.594 633.359 172.281 633.359 171.656V165.797L634.844 165.094H634.922V171.656C634.922 173.219 634.141 174 632.578 174H630.781ZM637.266 174.312V167.75C637.266 166.188 638.047 165.406 639.609 165.406H641.406C642.969 165.406 643.75 166.188 643.75 167.75V173.609L642.266 174.312H642.188V167.75C642.188 167.125 641.927 166.812 641.406 166.812H639.609C639.089 166.812 638.828 167.125 638.828 167.75V173.609L637.344 174.312H637.266ZM648.438 174C646.875 174 646.094 173.219 646.094 171.656V167.75C646.094 166.188 646.875 165.406 648.438 165.406H650.234C651.797 165.406 652.578 166.188 652.578 167.75V174.859C652.578 176.422 651.797 177.203 650.234 177.203H646.906V177.125L647.531 175.797H650.234C650.755 175.797 651.016 175.484 651.016 174.859V173.766C650.797 173.922 650.536 174 650.234 174H648.438ZM648.438 172.594H650.234C650.755 172.594 651.016 172.281 651.016 171.656V167.75C651.016 167.125 650.755 166.812 650.234 166.812H648.438C647.917 166.812 647.656 167.125 647.656 167.75V171.656C647.656 172.281 647.917 172.594 648.438 172.594ZM665.742 160.328V161.734C665.221 161.734 664.742 161.82 664.305 161.992C663.674 162.242 663.359 162.547 663.359 162.906V173.297C663.359 173.656 663.674 173.961 664.305 174.211C664.742 174.383 665.221 174.469 665.742 174.469V175.875C664.956 175.875 664.232 175.737 663.57 175.461C662.388 174.971 661.797 174.25 661.797 173.297V162.906C661.797 161.953 662.388 161.232 663.57 160.742C664.232 160.466 664.956 160.328 665.742 160.328ZM667.312 174V173.922L667.945 172.578L671.688 168.953C672.938 167.724 673.562 166.81 673.562 166.211V164.938C673.562 164.052 673.172 163.609 672.391 163.609H670.125C669.344 163.609 668.953 164.052 668.953 164.938V165.797L667.469 166.5H667.391V164.938C667.391 163.115 668.302 162.203 670.125 162.203H672.391C674.214 162.203 675.125 163.115 675.125 164.938V166.289C675.125 167.279 674.456 168.365 673.117 169.547L669.828 172.578H675.305V172.656L674.672 174H667.312ZM680.859 172.594H683.281C684.062 172.594 684.453 172.151 684.453 171.266V164.938C684.453 164.052 684.062 163.609 683.281 163.609H680.859C680.078 163.609 679.688 164.052 679.688 164.938V171.266C679.688 172.151 680.078 172.594 680.859 172.594ZM680.859 174C679.036 174 678.125 173.089 678.125 171.266V164.938C678.125 163.115 679.036 162.203 680.859 162.203H683.281C685.104 162.203 686.016 163.115 686.016 164.938V171.266C686.016 173.089 685.104 174 683.281 174H680.859ZM688.75 174V173.922L689.383 172.578L693.125 168.953C694.375 167.724 695 166.81 695 166.211V164.938C695 164.052 694.609 163.609 693.828 163.609H691.562C690.781 163.609 690.391 164.052 690.391 164.938V165.797L688.906 166.5H688.828V164.938C688.828 163.115 689.74 162.203 691.562 162.203H693.828C695.651 162.203 696.562 163.115 696.562 164.938V166.289C696.562 167.279 695.893 168.365 694.555 169.547L691.266 172.578H696.742V172.656L696.109 174H688.75ZM701.984 174C700.161 174 699.25 173.089 699.25 171.266V170.406L700.734 169.703H700.812V171.266C700.812 172.151 701.203 172.594 701.984 172.594H704.406C705.188 172.594 705.578 172.151 705.578 171.266V169.453C705.578 168.568 705.188 168.125 704.406 168.125C704.406 168.125 703.484 168.125 701.641 168.125L704.039 163.625H699.945V163.547L700.578 162.203H706.461L703.867 166.719H704.406C706.229 166.719 707.141 167.63 707.141 169.453V171.266C707.141 173.089 706.229 174 704.406 174H701.984ZM715.812 168.812V168.734L716.445 167.391H722.953V167.469L722.32 168.812H715.812ZM734.672 174C732.849 174 731.938 173.089 731.938 171.266V164.938C731.938 163.115 732.849 162.203 734.672 162.203H737.094C738.917 162.203 739.828 163.115 739.828 164.938V165.797L738.344 166.5H738.266V164.938C738.266 164.052 737.875 163.609 737.094 163.609H734.672C733.891 163.609 733.5 164.052 733.5 164.938V171.266C733.5 172.151 733.891 172.594 734.672 172.594H737.094C737.875 172.594 738.266 172.151 738.266 171.266V170.406L739.75 169.703H739.828V171.266C739.828 173.089 738.917 174 737.094 174H734.672ZM744.906 174C743.344 174 742.562 173.219 742.562 171.656V165.797L744.047 165.094H744.125V171.656C744.125 172.281 744.385 172.594 744.906 172.594H746.703C747.224 172.594 747.484 172.281 747.484 171.656V165.797L748.969 165.094H749.047V171.656C749.047 173.219 748.266 174 746.703 174H744.906ZM751.391 174.312V167.75C751.391 166.188 752.172 165.406 753.734 165.406H755.688V165.484L755.062 166.812H753.734C753.214 166.812 752.953 167.125 752.953 167.75V173.609L751.469 174.312H751.391ZM757.016 174.312V167.75C757.016 166.188 757.797 165.406 759.359 165.406H761.312V165.484L760.688 166.812H759.359C758.839 166.812 758.578 167.125 758.578 167.75V173.609L757.094 174.312H757.016ZM764.984 174C763.422 174 762.641 173.219 762.641 171.656V167.75C762.641 166.188 763.422 165.406 764.984 165.406H766.781C768.344 165.406 769.125 166.188 769.125 167.75V168.164L764.227 171.953C764.299 172.38 764.552 172.594 764.984 172.594H766.781C767.302 172.594 767.562 172.281 767.562 171.656V171.242L769.047 170.539H769.125V171.656C769.125 173.219 768.344 174 766.781 174H764.984ZM764.203 170.32L767.555 167.617C767.523 167.081 767.266 166.812 766.781 166.812H764.984C764.464 166.812 764.203 167.125 764.203 167.75V170.32ZM771.469 174.312V167.75C771.469 166.188 772.25 165.406 773.812 165.406H775.609C777.172 165.406 777.953 166.188 777.953 167.75V173.609L776.469 174.312H776.391V167.75C776.391 167.125 776.13 166.812 775.609 166.812H773.812C773.292 166.812 773.031 167.125 773.031 167.75V173.609L771.547 174.312H771.469ZM781.328 174.312V166.828H779.32V166.75L779.953 165.406H781.328V162.594L782.812 161.891H782.891V165.406H784.898V165.484L784.266 166.828H782.891V173.609L781.406 174.312H781.328ZM785.484 160.328C786.271 160.328 786.995 160.466 787.656 160.742C788.839 161.232 789.43 161.953 789.43 162.906V173.297C789.43 174.25 788.839 174.971 787.656 175.461C786.995 175.737 786.271 175.875 785.484 175.875V174.469C786.005 174.469 786.484 174.383 786.922 174.211C787.552 173.961 787.867 173.656 787.867 173.297V162.906C787.867 162.547 787.552 162.242 786.922 161.992C786.484 161.82 786.005 161.734 785.484 161.734V160.328Z" fill="#EEEBEE"/>
</svg>
