<svg width="526" height="476" viewBox="0 0 526 476" fill="none" xmlns="http://www.w3.org/2000/svg">
<path d="M15.6 23.6H18C19.32 23.6 20.4 22.52 20.4 21.2V9.2H22.8V21.2C22.8 23.744 20.688 26 18 26H15.6C14.16 26 12.96 25.448 12 24.368C11.04 25.448 9.84 26 8.4 26H6C3.432 26 1.2 23.912 1.2 21.2V9.2H3.6V21.2C3.6 22.52 4.68 23.6 6 23.6H8.4C9.72 23.6 10.8 22.52 10.8 21.2V9.2H13.2V21.2C13.2 22.52 14.28 23.6 15.6 23.6ZM27.6 9.2V16.4H39.6V9.2H42V26H39.6V18.8H27.6V26H25.2V9.2H27.6ZM56.3953 11.6H49.1953C47.8753 11.6 46.7953 12.68 46.7953 14V18.8H58.7953V14C58.7953 12.68 57.7153 11.6 56.3953 11.6ZM61.1953 14V26H58.7953V21.2H46.7953V26H44.3953V14C44.3953 11.456 46.5073 9.2 49.1953 9.2H56.3953C58.9633 9.2 61.1233 11.336 61.1953 14ZM78.4641 11.6H71.2641V26H68.8641V11.6H61.6641V9.2H78.4641V11.6ZM89.2781 26V9.2H91.6781V26H89.2781ZM108.252 9.2H115.452C118.02 9.2 120.18 11.336 120.252 14H117.852C117.852 12.68 116.772 11.6 115.452 11.6H108.252C106.932 11.6 105.852 12.68 105.852 14V21.2C105.852 22.52 106.932 23.6 108.252 23.6H115.452C116.772 23.6 117.852 22.52 117.852 21.2H120.252C120.252 23.744 118.14 26 115.452 26H108.252C105.684 26 103.452 23.912 103.452 21.2V14C103.452 11.408 105.564 9.272 108.252 9.2ZM134.161 11.6H126.961C125.641 11.6 124.561 12.68 124.561 14V18.8H136.561V14C136.561 12.68 135.481 11.6 134.161 11.6ZM138.961 14V26H136.561V21.2H124.561V26H122.161V14C122.161 11.456 124.273 9.2 126.961 9.2H134.161C136.729 9.2 138.889 11.336 138.961 14ZM158.156 9.2V26H155.756L143.756 13.088V26H141.356V9.2H143.756L155.756 21.92V9.2H158.156ZM184.561 21.2V14C184.561 12.68 183.481 11.6 182.161 11.6H172.561V23.6H182.161C183.481 23.6 184.561 22.52 184.561 21.2ZM186.961 14V21.2C186.961 23.744 184.849 26 182.161 26H170.161V9.2H182.161C184.729 9.2 186.889 11.336 186.961 14ZM203.282 21.2V14C203.282 12.68 202.202 11.6 200.882 11.6H193.682C192.362 11.6 191.282 12.68 191.282 14V21.2C191.282 22.52 192.362 23.6 193.682 23.6H200.882C202.202 23.6 203.282 22.52 203.282 21.2ZM205.682 14V21.2C205.682 23.84 203.522 26 200.882 26H193.682C191.018 26 188.882 23.864 188.882 21.2V14C188.882 11.36 191.042 9.2 193.682 9.2H200.882C203.426 9.2 205.682 11.384 205.682 14ZM207.848 28.4V23.6H210.248V28.4H207.848Z" fill="#EEEBEE"/>
<path d="M21.6 72.776L7.2 51.992V77H2.4V43.4H7.2L21.6 64.184L36 43.4H40.8V77H36V51.992L21.6 72.776ZM77.7788 50.6L63.3788 66.44V77H58.5788V66.44L44.1788 50.6V43.4H48.9788V48.632L60.9788 61.832L72.9788 48.632V43.4H77.7788V50.6ZM133.489 67.4C133.489 72.488 129.265 77 123.889 77H109.489C104.257 77 100.033 72.824 99.8888 67.4H104.689C104.689 70.04 106.849 72.2 109.489 72.2H123.889C126.529 72.2 128.689 70.04 128.689 67.4C128.689 64.76 126.529 62.6 123.889 62.6H109.489C104.353 62.6 99.8888 58.424 99.8888 53C99.8888 47.912 104.113 43.4 109.489 43.4H123.889C129.025 43.4 133.345 47.672 133.489 53H128.689C128.689 50.36 126.529 48.2 123.889 48.2H109.489C106.849 48.2 104.689 50.36 104.689 53C104.689 55.64 106.849 57.8 109.489 57.8H123.889C128.929 57.8 133.489 62.072 133.489 67.4ZM171.422 43.4L154.622 60.2L171.422 77H164.654L150.254 62.6H142.622V77H137.822V43.4H142.622V57.8H150.254L164.654 43.4H171.422ZM173.822 77V43.4H178.622V77H173.822ZM188.231 43.4V72.2H217.031V77H183.431V43.4H188.231ZM224.231 43.4V72.2H253.031V77H219.431V43.4H224.231Z" fill="#EEEBEE"/>
<path d="M2.34375 116V98.8906L4.57031 97.8359H4.6875V113.867H12.7148V113.984L11.7656 116H2.34375ZM16.5234 113.891H18.9844C19.7656 113.891 20.1562 113.422 20.1562 112.484V110.879C20.1562 109.941 19.7656 109.473 18.9844 109.473H16.5234C15.7422 109.473 15.3516 109.941 15.3516 110.879V112.484C15.3516 113.422 15.7422 113.891 16.5234 113.891ZM16.5234 116C14.1797 116 13.0078 114.828 13.0078 112.484V110.879C13.0078 108.535 14.1797 107.363 16.5234 107.363H18.9844C19.3906 107.363 19.7812 107.48 20.1562 107.715V106.625C20.1562 105.688 19.7656 105.219 18.9844 105.219H14.7891V105.102L15.7266 103.109H18.9844C21.3281 103.109 22.5 104.281 22.5 106.625V115.414L20.2734 116.469H20.1562V115.648C19.8594 115.883 19.4688 116 18.9844 116H16.5234ZM26.0156 116.469V106.625C26.0156 104.281 27.1875 103.109 29.5312 103.109H32.2266C34.5703 103.109 35.7422 104.281 35.7422 106.625V115.414L33.5156 116.469H33.3984V106.625C33.3984 105.688 33.0078 105.219 32.2266 105.219H29.5312C28.75 105.219 28.3594 105.688 28.3594 106.625V115.414L26.1328 116.469H26.0156ZM42.7734 116C40.4297 116 39.2578 114.828 39.2578 112.484V106.625C39.2578 104.281 40.4297 103.109 42.7734 103.109H45.4688C47.8125 103.109 48.9844 104.281 48.9844 106.625V117.289C48.9844 119.633 47.8125 120.805 45.4688 120.805H40.4766V120.688L41.4141 118.695H45.4688C46.25 118.695 46.6406 118.227 46.6406 117.289V115.648C46.3125 115.883 45.9219 116 45.4688 116H42.7734ZM42.7734 113.891H45.4688C46.25 113.891 46.6406 113.422 46.6406 112.484V106.625C46.6406 105.688 46.25 105.219 45.4688 105.219H42.7734C41.9922 105.219 41.6016 105.688 41.6016 106.625V112.484C41.6016 113.422 41.9922 113.891 42.7734 113.891ZM56.3672 116C54.0234 116 52.8516 114.828 52.8516 112.484V103.695L55.0781 102.641H55.1953V112.484C55.1953 113.422 55.5859 113.891 56.3672 113.891H59.0625C59.8438 113.891 60.2344 113.422 60.2344 112.484V103.695L62.4609 102.641H62.5781V112.484C62.5781 114.828 61.4062 116 59.0625 116H56.3672ZM69.0234 113.891H71.4844C72.2656 113.891 72.6562 113.422 72.6562 112.484V110.879C72.6562 109.941 72.2656 109.473 71.4844 109.473H69.0234C68.2422 109.473 67.8516 109.941 67.8516 110.879V112.484C67.8516 113.422 68.2422 113.891 69.0234 113.891ZM69.0234 116C66.6797 116 65.5078 114.828 65.5078 112.484V110.879C65.5078 108.535 66.6797 107.363 69.0234 107.363H71.4844C71.8906 107.363 72.2812 107.48 72.6562 107.715V106.625C72.6562 105.688 72.2656 105.219 71.4844 105.219H67.2891V105.102L68.2266 103.109H71.4844C73.8281 103.109 75 104.281 75 106.625V115.414L72.7734 116.469H72.6562V115.648C72.3594 115.883 71.9688 116 71.4844 116H69.0234ZM82.0312 116C79.6875 116 78.5156 114.828 78.5156 112.484V106.625C78.5156 104.281 79.6875 103.109 82.0312 103.109H84.7266C87.0703 103.109 88.2422 104.281 88.2422 106.625V117.289C88.2422 119.633 87.0703 120.805 84.7266 120.805H79.7344V120.688L80.6719 118.695H84.7266C85.5078 118.695 85.8984 118.227 85.8984 117.289V115.648C85.5703 115.883 85.1797 116 84.7266 116H82.0312ZM82.0312 113.891H84.7266C85.5078 113.891 85.8984 113.422 85.8984 112.484V106.625C85.8984 105.688 85.5078 105.219 84.7266 105.219H82.0312C81.25 105.219 80.8594 105.688 80.8594 106.625V112.484C80.8594 113.422 81.25 113.891 82.0312 113.891ZM95.625 116C93.2812 116 92.1094 114.828 92.1094 112.484V106.625C92.1094 104.281 93.2812 103.109 95.625 103.109H98.3203C100.664 103.109 101.836 104.281 101.836 106.625V107.246L94.4883 112.93C94.5977 113.57 94.9766 113.891 95.625 113.891H98.3203C99.1016 113.891 99.4922 113.422 99.4922 112.484V111.863L101.719 110.809H101.836V112.484C101.836 114.828 100.664 116 98.3203 116H95.625ZM94.4531 110.48L99.4805 106.426C99.4336 105.621 99.0469 105.219 98.3203 105.219H95.625C94.8438 105.219 94.4531 105.688 94.4531 106.625V110.48Z" fill="#EEEBEE"/>
<path d="M9.97656 399C7.24219 399 5.875 397.633 5.875 394.898V393.609L8.10156 392.555H8.21875V394.898C8.21875 396.227 8.80469 396.891 9.97656 396.891H13.6094C14.7812 396.891 15.3672 396.227 15.3672 394.898V392.438C15.3672 391.109 14.7812 390.445 13.6094 390.445H10.4453C8.10156 390.445 6.92969 389.273 6.92969 386.93V384.82C6.92969 382.477 8.10156 381.305 10.4453 381.305H13.1406C15.4844 381.305 16.6562 382.477 16.6562 384.82V385.441L14.4297 386.496H14.3125V384.82C14.3125 383.883 13.9219 383.414 13.1406 383.414H10.4453C9.66406 383.414 9.27344 383.883 9.27344 384.82V386.93C9.27344 387.867 9.66406 388.336 10.4453 388.336H13.6094C16.3438 388.336 17.7109 389.703 17.7109 392.438V394.898C17.7109 397.633 16.3438 399 13.6094 399H9.97656ZM24.8594 396.891H27.5547C28.3359 396.891 28.7266 396.422 28.7266 395.484V389.625C28.7266 388.688 28.3359 388.219 27.5547 388.219H24.8594C24.0781 388.219 23.6875 388.688 23.6875 389.625V395.484C23.6875 396.422 24.0781 396.891 24.8594 396.891ZM24.8594 399C22.5156 399 21.3438 397.828 21.3438 395.484V389.625C21.3438 387.281 22.5156 386.109 24.8594 386.109H27.5547C29.8984 386.109 31.0703 387.281 31.0703 389.625V395.484C31.0703 397.828 29.8984 399 27.5547 399H24.8594ZM35.1719 399.469V389.414H33.4141V389.297L34.3633 387.281H35.1719V384.82C35.1719 382.477 36.3438 381.305 38.6875 381.305H41.6172V381.422L40.6797 383.414H38.6875C37.9062 383.414 37.5156 383.883 37.5156 384.82V387.281H41.3945V387.398L40.4453 389.414H37.5156V398.414L35.2891 399.469H35.1719ZM46.6797 399.469V388.242H43.668V388.125L44.6172 386.109H46.6797V381.891L48.9062 380.836H49.0234V386.109H52.0352V386.227L51.0859 388.242H49.0234V398.414L46.7969 399.469H46.6797ZM67.6797 399C64.9453 399 63.5781 397.633 63.5781 394.898V393.609L65.8047 392.555H65.9219V394.898C65.9219 396.227 66.5078 396.891 67.6797 396.891H71.3125C72.4844 396.891 73.0703 396.227 73.0703 394.898V392.438C73.0703 391.109 72.4844 390.445 71.3125 390.445H68.1484C65.8047 390.445 64.6328 389.273 64.6328 386.93V384.82C64.6328 382.477 65.8047 381.305 68.1484 381.305H70.8438C73.1875 381.305 74.3594 382.477 74.3594 384.82V385.441L72.1328 386.496H72.0156V384.82C72.0156 383.883 71.625 383.414 70.8438 383.414H68.1484C67.3672 383.414 66.9766 383.883 66.9766 384.82V386.93C66.9766 387.867 67.3672 388.336 68.1484 388.336H71.3125C74.0469 388.336 75.4141 389.703 75.4141 392.438V394.898C75.4141 397.633 74.0469 399 71.3125 399H67.6797ZM79.6328 399.469V381.891L81.8594 380.836H81.9766V390.328C82.0781 390.305 82.1875 390.285 82.3047 390.27L86.875 385.641H86.9922L89.0547 386.613L85.1406 390.211H85.8438C88.1875 390.211 89.3594 391.383 89.3594 393.727V398.414L87.1328 399.469H87.0156V393.727C87.0156 392.789 86.625 392.32 85.8438 392.32H83.1484C82.3672 392.32 81.9766 392.789 81.9766 393.727V398.414L79.75 399.469H79.6328ZM93.6367 383.52C93.3633 383.238 93.2266 382.902 93.2266 382.512C93.2266 382.113 93.3633 381.773 93.6367 381.492C93.9102 381.211 94.2422 381.07 94.6328 381.07C95.0234 381.07 95.3555 381.211 95.6289 381.492C95.9023 381.773 96.0391 382.113 96.0391 382.512C96.0391 382.902 95.9023 383.238 95.6289 383.52C95.3555 383.801 95.0234 383.941 94.6328 383.941C94.2422 383.941 93.9102 383.801 93.6367 383.52ZM93.4609 399.469V386.695L95.6875 385.641H95.8047V398.414L93.5781 399.469H93.4609ZM100.492 399.469V381.891L102.719 380.836H102.836V398.414L100.609 399.469H100.492ZM107.523 399.469V381.891L109.75 380.836H109.867V398.414L107.641 399.469H107.523Z" fill="#EEEBEE"/>
<path d="M271.344 399.469V381.891L273.57 380.836H273.688V389.086H280.602V381.891L282.828 380.836H282.945V398.414L280.719 399.469H280.602V391.219H273.688V398.414L271.461 399.469H271.344ZM289.977 396.891H292.438C293.219 396.891 293.609 396.422 293.609 395.484V393.879C293.609 392.941 293.219 392.473 292.438 392.473H289.977C289.195 392.473 288.805 392.941 288.805 393.879V395.484C288.805 396.422 289.195 396.891 289.977 396.891ZM289.977 399C287.633 399 286.461 397.828 286.461 395.484V393.879C286.461 391.535 287.633 390.363 289.977 390.363H292.438C292.844 390.363 293.234 390.48 293.609 390.715V389.625C293.609 388.688 293.219 388.219 292.438 388.219H288.242V388.102L289.18 386.109H292.438C294.781 386.109 295.953 387.281 295.953 389.625V398.414L293.727 399.469H293.609V398.648C293.312 398.883 292.922 399 292.438 399H289.977ZM299.469 399.469V389.625C299.469 387.281 300.641 386.109 302.984 386.109H305.914V386.227L304.977 388.219H302.984C302.203 388.219 301.812 388.688 301.812 389.625V398.414L299.586 399.469H299.469ZM311.422 399C309.078 399 307.906 397.828 307.906 395.484V389.625C307.906 387.281 309.078 386.109 311.422 386.109H314.117C314.648 386.109 315.039 386.23 315.289 386.473V381.891L317.516 380.836H317.633V395.484C317.633 397.828 316.461 399 314.117 399H311.422ZM311.422 396.891H314.117C314.898 396.891 315.289 396.422 315.289 395.484V389.625C315.289 388.688 314.898 388.219 314.117 388.219H311.422C310.641 388.219 310.25 388.688 310.25 389.625V395.484C310.25 396.422 310.641 396.891 311.422 396.891ZM335.328 399C332.594 399 331.227 397.633 331.227 394.898V393.609L333.453 392.555H333.57V394.898C333.57 396.227 334.156 396.891 335.328 396.891H338.961C340.133 396.891 340.719 396.227 340.719 394.898V392.438C340.719 391.109 340.133 390.445 338.961 390.445H335.797C333.453 390.445 332.281 389.273 332.281 386.93V384.82C332.281 382.477 333.453 381.305 335.797 381.305H338.492C340.836 381.305 342.008 382.477 342.008 384.82V385.441L339.781 386.496H339.664V384.82C339.664 383.883 339.273 383.414 338.492 383.414H335.797C335.016 383.414 334.625 383.883 334.625 384.82V386.93C334.625 387.867 335.016 388.336 335.797 388.336H338.961C341.695 388.336 343.062 389.703 343.062 392.438V394.898C343.062 397.633 341.695 399 338.961 399H335.328ZM347.281 399.469V381.891L349.508 380.836H349.625V390.328C349.727 390.305 349.836 390.285 349.953 390.27L354.523 385.641H354.641L356.703 386.613L352.789 390.211H353.492C355.836 390.211 357.008 391.383 357.008 393.727V398.414L354.781 399.469H354.664V393.727C354.664 392.789 354.273 392.32 353.492 392.32H350.797C350.016 392.32 349.625 392.789 349.625 393.727V398.414L347.398 399.469H347.281ZM361.285 383.52C361.012 383.238 360.875 382.902 360.875 382.512C360.875 382.113 361.012 381.773 361.285 381.492C361.559 381.211 361.891 381.07 362.281 381.07C362.672 381.07 363.004 381.211 363.277 381.492C363.551 381.773 363.688 382.113 363.688 382.512C363.688 382.902 363.551 383.238 363.277 383.52C363.004 383.801 362.672 383.941 362.281 383.941C361.891 383.941 361.559 383.801 361.285 383.52ZM361.109 399.469V386.695L363.336 385.641H363.453V398.414L361.227 399.469H361.109ZM368.141 399.469V381.891L370.367 380.836H370.484V398.414L368.258 399.469H368.141ZM375.172 399.469V381.891L377.398 380.836H377.516V398.414L375.289 399.469H375.172Z" fill="#EEEBEE"/>
<path d="M6.34375 255.469V241.406C6.34375 238.672 7.71094 237.305 10.4453 237.305H14.0781C16.8125 237.305 18.1797 238.672 18.1797 241.406V254.414L15.9531 255.469H15.8359V247.219H8.6875V254.414L6.46094 255.469H6.34375ZM8.6875 245.086H15.8359V241.406C15.8359 240.078 15.25 239.414 14.0781 239.414H10.4453C9.27344 239.414 8.6875 240.078 8.6875 241.406V245.086ZM26.3828 255C25.8516 255 25.4609 254.879 25.2109 254.637V259.219L22.9844 260.273H22.8672V245.625C22.8672 243.281 24.0391 242.109 26.3828 242.109H29.0781C31.4219 242.109 32.5938 243.281 32.5938 245.625V251.484C32.5938 253.828 31.4219 255 29.0781 255H26.3828ZM26.3828 252.891H29.0781C29.8594 252.891 30.25 252.422 30.25 251.484V245.625C30.25 244.688 29.8594 244.219 29.0781 244.219H26.3828C25.6016 244.219 25.2109 244.688 25.2109 245.625V251.484C25.2109 252.422 25.6016 252.891 26.3828 252.891ZM40.2109 255C39.6797 255 39.2891 254.879 39.0391 254.637V259.219L36.8125 260.273H36.6953V245.625C36.6953 243.281 37.8672 242.109 40.2109 242.109H42.9062C45.25 242.109 46.4219 243.281 46.4219 245.625V251.484C46.4219 253.828 45.25 255 42.9062 255H40.2109ZM40.2109 252.891H42.9062C43.6875 252.891 44.0781 252.422 44.0781 251.484V245.625C44.0781 244.688 43.6875 244.219 42.9062 244.219H40.2109C39.4297 244.219 39.0391 244.688 39.0391 245.625V251.484C39.0391 252.422 39.4297 252.891 40.2109 252.891ZM50.5234 255.469V237.891L52.75 236.836H52.8672V254.414L50.6406 255.469H50.5234ZM57.7305 239.52C57.457 239.238 57.3203 238.902 57.3203 238.512C57.3203 238.113 57.457 237.773 57.7305 237.492C58.0039 237.211 58.3359 237.07 58.7266 237.07C59.1172 237.07 59.4492 237.211 59.7227 237.492C59.9961 237.773 60.1328 238.113 60.1328 238.512C60.1328 238.902 59.9961 239.238 59.7227 239.52C59.4492 239.801 59.1172 239.941 58.7266 239.941C58.3359 239.941 58.0039 239.801 57.7305 239.52ZM57.5547 255.469V242.695L59.7812 241.641H59.8984V254.414L57.6719 255.469H57.5547ZM67.5156 255C65.1719 255 64 253.828 64 251.484V245.625C64 243.281 65.1719 242.109 67.5156 242.109H70.2109C72.5547 242.109 73.7266 243.281 73.7266 245.625V246.246L71.5 247.301H71.3828V245.625C71.3828 244.688 70.9922 244.219 70.2109 244.219H67.5156C66.7344 244.219 66.3438 244.688 66.3438 245.625V251.484C66.3438 252.422 66.7344 252.891 67.5156 252.891H70.2109C70.9922 252.891 71.3828 252.422 71.3828 251.484V250.863L73.6094 249.809H73.7266V251.484C73.7266 253.828 72.5547 255 70.2109 255H67.5156ZM80.1719 252.891H82.6328C83.4141 252.891 83.8047 252.422 83.8047 251.484V249.879C83.8047 248.941 83.4141 248.473 82.6328 248.473H80.1719C79.3906 248.473 79 248.941 79 249.879V251.484C79 252.422 79.3906 252.891 80.1719 252.891ZM80.1719 255C77.8281 255 76.6562 253.828 76.6562 251.484V249.879C76.6562 247.535 77.8281 246.363 80.1719 246.363H82.6328C83.0391 246.363 83.4297 246.48 83.8047 246.715V245.625C83.8047 244.688 83.4141 244.219 82.6328 244.219H78.4375V244.102L79.375 242.109H82.6328C84.9766 242.109 86.1484 243.281 86.1484 245.625V254.414L83.9219 255.469H83.8047V254.648C83.5078 254.883 83.1172 255 82.6328 255H80.1719ZM91.2109 255.469V244.242H88.1992V244.125L89.1484 242.109H91.2109V237.891L93.4375 236.836H93.5547V242.109H96.5664V242.227L95.6172 244.242H93.5547V254.414L91.3281 255.469H91.2109ZM99.3789 239.52C99.1055 239.238 98.9688 238.902 98.9688 238.512C98.9688 238.113 99.1055 237.773 99.3789 237.492C99.6523 237.211 99.9844 237.07 100.375 237.07C100.766 237.07 101.098 237.211 101.371 237.492C101.645 237.773 101.781 238.113 101.781 238.512C101.781 238.902 101.645 239.238 101.371 239.52C101.098 239.801 100.766 239.941 100.375 239.941C99.9844 239.941 99.6523 239.801 99.3789 239.52ZM99.2031 255.469V242.695L101.43 241.641H101.547V254.414L99.3203 255.469H99.2031ZM109.164 252.891H111.859C112.641 252.891 113.031 252.422 113.031 251.484V245.625C113.031 244.688 112.641 244.219 111.859 244.219H109.164C108.383 244.219 107.992 244.688 107.992 245.625V251.484C107.992 252.422 108.383 252.891 109.164 252.891ZM109.164 255C106.82 255 105.648 253.828 105.648 251.484V245.625C105.648 243.281 106.82 242.109 109.164 242.109H111.859C114.203 242.109 115.375 243.281 115.375 245.625V251.484C115.375 253.828 114.203 255 111.859 255H109.164ZM118.891 255.469V245.625C118.891 243.281 120.062 242.109 122.406 242.109H125.102C127.445 242.109 128.617 243.281 128.617 245.625V254.414L126.391 255.469H126.273V245.625C126.273 244.688 125.883 244.219 125.102 244.219H122.406C121.625 244.219 121.234 244.688 121.234 245.625V254.414L119.008 255.469H118.891Z" fill="#EEEBEE"/>
<path d="M24.5625 145.312V135.938C24.5625 134.115 25.474 133.203 27.2969 133.203H29.7188C31.5417 133.203 32.4531 134.115 32.4531 135.938V144.609L30.9688 145.312H30.8906V135.938C30.8906 135.052 30.5 134.609 29.7188 134.609H27.2969C26.5156 134.609 26.125 135.052 26.125 135.938V144.609L24.6406 145.312H24.5625ZM37.1406 143.594H38.7812C39.3021 143.594 39.5625 143.281 39.5625 142.656V141.586C39.5625 140.961 39.3021 140.648 38.7812 140.648H37.1406C36.6198 140.648 36.3594 140.961 36.3594 141.586V142.656C36.3594 143.281 36.6198 143.594 37.1406 143.594ZM37.1406 145C35.5781 145 34.7969 144.219 34.7969 142.656V141.586C34.7969 140.023 35.5781 139.242 37.1406 139.242H38.7812C39.0521 139.242 39.3125 139.32 39.5625 139.477V138.75C39.5625 138.125 39.3021 137.812 38.7812 137.812H35.9844V137.734L36.6094 136.406H38.7812C40.3438 136.406 41.125 137.188 41.125 138.75V144.609L39.6406 145.312H39.5625V144.766C39.3646 144.922 39.1042 145 38.7812 145H37.1406ZM44.5 145.312V137.828H42.4922V137.75L43.125 136.406H44.5V133.594L45.9844 132.891H46.0625V136.406H48.0703V136.484L47.4375 137.828H46.0625V144.609L44.5781 145.312H44.5ZM49.9453 134.68C49.763 134.492 49.6719 134.268 49.6719 134.008C49.6719 133.742 49.763 133.516 49.9453 133.328C50.1276 133.141 50.349 133.047 50.6094 133.047C50.8698 133.047 51.0911 133.141 51.2734 133.328C51.4557 133.516 51.5469 133.742 51.5469 134.008C51.5469 134.268 51.4557 134.492 51.2734 134.68C51.0911 134.867 50.8698 134.961 50.6094 134.961C50.349 134.961 50.1276 134.867 49.9453 134.68ZM49.8281 145.312V136.797L51.3125 136.094H51.3906V144.609L49.9062 145.312H49.8281ZM56.3594 145.312L53.3438 136.734L54.6953 136.094H54.7734L56.9844 142.609L59.1484 136.094H59.2266L60.5781 136.734L57.7891 144.672L56.4375 145.312H56.3594ZM64.0938 145C62.5312 145 61.75 144.219 61.75 142.656V138.75C61.75 137.188 62.5312 136.406 64.0938 136.406H65.8906C67.4531 136.406 68.2344 137.188 68.2344 138.75V139.164L63.3359 142.953C63.4089 143.38 63.6615 143.594 64.0938 143.594H65.8906C66.4115 143.594 66.6719 143.281 66.6719 142.656V142.242L68.1562 141.539H68.2344V142.656C68.2344 144.219 67.4531 145 65.8906 145H64.0938ZM63.3125 141.32L66.6641 138.617C66.6328 138.081 66.375 137.812 65.8906 137.812H64.0938C63.5729 137.812 63.3125 138.125 63.3125 138.75V141.32ZM77.2188 145.312V133.594L78.7031 132.891H78.7812V144.609L77.2969 145.312H77.2188ZM81.5156 145.312V138.75C81.5156 137.188 82.2969 136.406 83.8594 136.406H85.6562C87.2188 136.406 88 137.188 88 138.75V144.609L86.5156 145.312H86.4375V138.75C86.4375 138.125 86.1771 137.812 85.6562 137.812H83.8594C83.3385 137.812 83.0781 138.125 83.0781 138.75V144.609L81.5938 145.312H81.5156ZM92.6875 145C91.125 145 90.3438 144.219 90.3438 142.656V138.75C90.3438 137.188 91.125 136.406 92.6875 136.406H94.4844C94.8385 136.406 95.099 136.487 95.2656 136.648V133.594L96.75 132.891H96.8281V142.656C96.8281 144.219 96.0469 145 94.4844 145H92.6875ZM92.6875 143.594H94.4844C95.0052 143.594 95.2656 143.281 95.2656 142.656V138.75C95.2656 138.125 95.0052 137.812 94.4844 137.812H92.6875C92.1667 137.812 91.9062 138.125 91.9062 138.75V142.656C91.9062 143.281 92.1667 143.594 92.6875 143.594ZM101.906 143.594H103.703C104.224 143.594 104.484 143.281 104.484 142.656V138.75C104.484 138.125 104.224 137.812 103.703 137.812H101.906C101.385 137.812 101.125 138.125 101.125 138.75V142.656C101.125 143.281 101.385 143.594 101.906 143.594ZM101.906 145C100.344 145 99.5625 144.219 99.5625 142.656V138.75C99.5625 137.188 100.344 136.406 101.906 136.406H103.703C105.266 136.406 106.047 137.188 106.047 138.75V142.656C106.047 144.219 105.266 145 103.703 145H101.906ZM108.391 145.312V138.75C108.391 137.188 109.172 136.406 110.734 136.406H112.531C114.094 136.406 114.875 137.188 114.875 138.75V144.609L113.391 145.312H113.312V138.75C113.312 138.125 113.052 137.812 112.531 137.812H110.734C110.214 137.812 109.953 138.125 109.953 138.75V144.609L108.469 145.312H108.391ZM119.562 145C118 145 117.219 144.219 117.219 142.656V138.75C117.219 137.188 118 136.406 119.562 136.406H121.359C122.922 136.406 123.703 137.188 123.703 138.75V139.164L118.805 142.953C118.878 143.38 119.13 143.594 119.562 143.594H121.359C121.88 143.594 122.141 143.281 122.141 142.656V142.242L123.625 141.539H123.703V142.656C123.703 144.219 122.922 145 121.359 145H119.562ZM118.781 141.32L122.133 138.617C122.102 138.081 121.844 137.812 121.359 137.812H119.562C119.042 137.812 118.781 138.125 118.781 138.75V141.32ZM128.156 145C126.594 145 125.812 144.219 125.812 142.656V142.375L127.297 141.672H127.375V142.656C127.375 143.281 127.635 143.594 128.156 143.594H129.953C130.474 143.594 130.734 143.281 130.734 142.656V142.039C130.734 141.414 130.474 141.102 129.953 141.102H128.484C126.922 141.102 126.141 140.318 126.141 138.75C126.141 137.188 126.922 136.406 128.484 136.406H129.398C130.961 136.406 131.742 137.036 131.742 138.297L130.258 139H130.18V138.75C130.18 138.125 129.919 137.812 129.398 137.812H128.484C127.964 137.812 127.703 138.125 127.703 138.75C127.703 139.38 127.964 139.695 128.484 139.695H129.953C131.516 139.695 132.297 140.477 132.297 142.039V142.656C132.297 144.219 131.516 145 129.953 145H128.156ZM134.914 134.68C134.732 134.492 134.641 134.268 134.641 134.008C134.641 133.742 134.732 133.516 134.914 133.328C135.096 133.141 135.318 133.047 135.578 133.047C135.839 133.047 136.06 133.141 136.242 133.328C136.424 133.516 136.516 133.742 136.516 134.008C136.516 134.268 136.424 134.492 136.242 134.68C136.06 134.867 135.839 134.961 135.578 134.961C135.318 134.961 135.096 134.867 134.914 134.68ZM134.797 145.312V136.797L136.281 136.094H136.359V144.609L134.875 145.312H134.797ZM141.047 143.594H142.688C143.208 143.594 143.469 143.281 143.469 142.656V141.586C143.469 140.961 143.208 140.648 142.688 140.648H141.047C140.526 140.648 140.266 140.961 140.266 141.586V142.656C140.266 143.281 140.526 143.594 141.047 143.594ZM141.047 145C139.484 145 138.703 144.219 138.703 142.656V141.586C138.703 140.023 139.484 139.242 141.047 139.242H142.688C142.958 139.242 143.219 139.32 143.469 139.477V138.75C143.469 138.125 143.208 137.812 142.688 137.812H139.891V137.734L140.516 136.406H142.688C144.25 136.406 145.031 137.188 145.031 138.75V144.609L143.547 145.312H143.469V144.766C143.271 144.922 143.01 145 142.688 145H141.047ZM147.375 145.312V138.75C147.375 137.188 148.156 136.406 149.719 136.406H151.516C153.078 136.406 153.859 137.188 153.859 138.75V144.609L152.375 145.312H152.297V138.75C152.297 138.125 152.036 137.812 151.516 137.812H149.719C149.198 137.812 148.938 138.125 148.938 138.75V144.609L147.453 145.312H147.375ZM24.5625 167.312V157.938C24.5625 156.115 25.474 155.203 27.2969 155.203H29.7188C31.5417 155.203 32.4531 156.115 32.4531 157.938V166.609L30.9688 167.312H30.8906V157.938C30.8906 157.052 30.5 156.609 29.7188 156.609H27.2969C26.5156 156.609 26.125 157.052 26.125 157.938V166.609L24.6406 167.312H24.5625ZM37.1406 165.594H38.7812C39.3021 165.594 39.5625 165.281 39.5625 164.656V163.586C39.5625 162.961 39.3021 162.648 38.7812 162.648H37.1406C36.6198 162.648 36.3594 162.961 36.3594 163.586V164.656C36.3594 165.281 36.6198 165.594 37.1406 165.594ZM37.1406 167C35.5781 167 34.7969 166.219 34.7969 164.656V163.586C34.7969 162.023 35.5781 161.242 37.1406 161.242H38.7812C39.0521 161.242 39.3125 161.32 39.5625 161.477V160.75C39.5625 160.125 39.3021 159.812 38.7812 159.812H35.9844V159.734L36.6094 158.406H38.7812C40.3438 158.406 41.125 159.188 41.125 160.75V166.609L39.6406 167.312H39.5625V166.766C39.3646 166.922 39.1042 167 38.7812 167H37.1406ZM44.5 167.312V159.828H42.4922V159.75L43.125 158.406H44.5V155.594L45.9844 154.891H46.0625V158.406H48.0703V158.484L47.4375 159.828H46.0625V166.609L44.5781 167.312H44.5ZM49.9453 156.68C49.763 156.492 49.6719 156.268 49.6719 156.008C49.6719 155.742 49.763 155.516 49.9453 155.328C50.1276 155.141 50.349 155.047 50.6094 155.047C50.8698 155.047 51.0911 155.141 51.2734 155.328C51.4557 155.516 51.5469 155.742 51.5469 156.008C51.5469 156.268 51.4557 156.492 51.2734 156.68C51.0911 156.867 50.8698 156.961 50.6094 156.961C50.349 156.961 50.1276 156.867 49.9453 156.68ZM49.8281 167.312V158.797L51.3125 158.094H51.3906V166.609L49.9062 167.312H49.8281ZM56.3594 167.312L53.3438 158.734L54.6953 158.094H54.7734L56.9844 164.609L59.1484 158.094H59.2266L60.5781 158.734L57.7891 166.672L56.4375 167.312H56.3594ZM64.0938 167C62.5312 167 61.75 166.219 61.75 164.656V160.75C61.75 159.188 62.5312 158.406 64.0938 158.406H65.8906C67.4531 158.406 68.2344 159.188 68.2344 160.75V161.164L63.3359 164.953C63.4089 165.38 63.6615 165.594 64.0938 165.594H65.8906C66.4115 165.594 66.6719 165.281 66.6719 164.656V164.242L68.1562 163.539H68.2344V164.656C68.2344 166.219 67.4531 167 65.8906 167H64.0938ZM63.3125 163.32L66.6641 160.617C66.6328 160.081 66.375 159.812 65.8906 159.812H64.0938C63.5729 159.812 63.3125 160.125 63.3125 160.75V163.32ZM79.0156 167C77.1927 167 76.2812 166.089 76.2812 164.266V163.406L77.7656 162.703H77.8438V164.266C77.8438 165.151 78.2344 165.594 79.0156 165.594H81.2812C82.0625 165.594 82.4531 165.151 82.4531 164.266V156.625H77.9766V156.547L78.6094 155.203H84.0156V164.266C84.0156 166.089 83.1042 167 81.2812 167H79.0156ZM88.7031 165.594H90.3438C90.8646 165.594 91.125 165.281 91.125 164.656V163.586C91.125 162.961 90.8646 162.648 90.3438 162.648H88.7031C88.1823 162.648 87.9219 162.961 87.9219 163.586V164.656C87.9219 165.281 88.1823 165.594 88.7031 165.594ZM88.7031 167C87.1406 167 86.3594 166.219 86.3594 164.656V163.586C86.3594 162.023 87.1406 161.242 88.7031 161.242H90.3438C90.6146 161.242 90.875 161.32 91.125 161.477V160.75C91.125 160.125 90.8646 159.812 90.3438 159.812H87.5469V159.734L88.1719 158.406H90.3438C91.9062 158.406 92.6875 159.188 92.6875 160.75V166.609L91.2031 167.312H91.125V166.766C90.9271 166.922 90.6667 167 90.3438 167H88.7031ZM97.7656 167C97.4115 167 97.151 166.919 96.9844 166.758V169.812L95.5 170.516H95.4219V160.75C95.4219 159.188 96.2031 158.406 97.7656 158.406H99.5625C101.125 158.406 101.906 159.188 101.906 160.75V164.656C101.906 166.219 101.125 167 99.5625 167H97.7656ZM97.7656 165.594H99.5625C100.083 165.594 100.344 165.281 100.344 164.656V160.75C100.344 160.125 100.083 159.812 99.5625 159.812H97.7656C97.2448 159.812 96.9844 160.125 96.9844 160.75V164.656C96.9844 165.281 97.2448 165.594 97.7656 165.594ZM106.203 165.594H107.844C108.365 165.594 108.625 165.281 108.625 164.656V163.586C108.625 162.961 108.365 162.648 107.844 162.648H106.203C105.682 162.648 105.422 162.961 105.422 163.586V164.656C105.422 165.281 105.682 165.594 106.203 165.594ZM106.203 167C104.641 167 103.859 166.219 103.859 164.656V163.586C103.859 162.023 104.641 161.242 106.203 161.242H107.844C108.115 161.242 108.375 161.32 108.625 161.477V160.75C108.625 160.125 108.365 159.812 107.844 159.812H105.047V159.734L105.672 158.406H107.844C109.406 158.406 110.188 159.188 110.188 160.75V166.609L108.703 167.312H108.625V166.766C108.427 166.922 108.167 167 107.844 167H106.203ZM112.531 167.312V160.75C112.531 159.188 113.312 158.406 114.875 158.406H116.672C118.234 158.406 119.016 159.188 119.016 160.75V166.609L117.531 167.312H117.453V160.75C117.453 160.125 117.193 159.812 116.672 159.812H114.875C114.354 159.812 114.094 160.125 114.094 160.75V166.609L112.609 167.312H112.531ZM123.703 167C122.141 167 121.359 166.219 121.359 164.656V160.75C121.359 159.188 122.141 158.406 123.703 158.406H125.5C127.062 158.406 127.844 159.188 127.844 160.75V161.164L122.945 164.953C123.018 165.38 123.271 165.594 123.703 165.594H125.5C126.021 165.594 126.281 165.281 126.281 164.656V164.242L127.766 163.539H127.844V164.656C127.844 166.219 127.062 167 125.5 167H123.703ZM122.922 163.32L126.273 160.617C126.242 160.081 125.984 159.812 125.5 159.812H123.703C123.182 159.812 122.922 160.125 122.922 160.75V163.32ZM132.297 167C130.734 167 129.953 166.219 129.953 164.656V164.375L131.438 163.672H131.516V164.656C131.516 165.281 131.776 165.594 132.297 165.594H134.094C134.615 165.594 134.875 165.281 134.875 164.656V164.039C134.875 163.414 134.615 163.102 134.094 163.102H132.625C131.062 163.102 130.281 162.318 130.281 160.75C130.281 159.188 131.062 158.406 132.625 158.406H133.539C135.102 158.406 135.883 159.036 135.883 160.297L134.398 161H134.32V160.75C134.32 160.125 134.06 159.812 133.539 159.812H132.625C132.104 159.812 131.844 160.125 131.844 160.75C131.844 161.38 132.104 161.695 132.625 161.695H134.094C135.656 161.695 136.438 162.477 136.438 164.039V164.656C136.438 166.219 135.656 167 134.094 167H132.297ZM140.891 167C139.328 167 138.547 166.219 138.547 164.656V160.75C138.547 159.188 139.328 158.406 140.891 158.406H142.688C144.25 158.406 145.031 159.188 145.031 160.75V161.164L140.133 164.953C140.206 165.38 140.458 165.594 140.891 165.594H142.688C143.208 165.594 143.469 165.281 143.469 164.656V164.242L144.953 163.539H145.031V164.656C145.031 166.219 144.25 167 142.688 167H140.891ZM140.109 163.32L143.461 160.617C143.43 160.081 143.172 159.812 142.688 159.812H140.891C140.37 159.812 140.109 160.125 140.109 160.75V163.32ZM157.961 153.328V154.734C157.44 154.734 156.961 154.82 156.523 154.992C155.893 155.242 155.578 155.547 155.578 155.906V166.297C155.578 166.656 155.893 166.961 156.523 167.211C156.961 167.383 157.44 167.469 157.961 167.469V168.875C157.174 168.875 156.451 168.737 155.789 168.461C154.607 167.971 154.016 167.25 154.016 166.297V155.906C154.016 154.953 154.607 154.232 155.789 153.742C156.451 153.466 157.174 153.328 157.961 153.328ZM161.719 167C159.896 167 158.984 166.089 158.984 164.266V163.406L160.469 162.703H160.547V164.266C160.547 165.151 160.938 165.594 161.719 165.594H163.984C164.766 165.594 165.156 165.151 165.156 164.266V156.625H160.68V156.547L161.312 155.203H166.719V164.266C166.719 166.089 165.807 167 163.984 167H161.719ZM169.844 167V155.594L171.328 154.891H171.406V165.578H176.758V165.656L176.125 167H169.844ZM177.422 167.312V155.594L178.25 155.203H182.422C184.245 155.203 185.156 156.115 185.156 157.938V160.281C185.156 162.104 184.245 163.016 182.422 163.016H178.984V166.609L177.5 167.312H177.422ZM178.984 156.609V161.609H182.422C183.203 161.609 183.594 161.167 183.594 160.281V157.938C183.594 157.052 183.203 156.609 182.422 156.609H178.984ZM188.93 167.312V156.625H185.586V156.547L186.219 155.203H193.836V155.281L193.203 156.625H190.492V166.609L189.008 167.312H188.93ZM201.688 167.312V157.938C201.688 156.115 202.599 155.203 204.422 155.203H206.844C208.667 155.203 209.578 156.115 209.578 157.938V166.609L208.094 167.312H208.016V157.938C208.016 157.052 207.625 156.609 206.844 156.609H204.422C203.641 156.609 203.25 157.052 203.25 157.938V166.609L201.766 167.312H201.688ZM213.203 167.312V157.062L211.297 158.109V156.508L214.688 154.891H214.766V166.609L213.281 167.312H213.203ZM217.109 153.328C217.896 153.328 218.62 153.466 219.281 153.742C220.464 154.232 221.055 154.953 221.055 155.906V166.297C221.055 167.25 220.464 167.971 219.281 168.461C218.62 168.737 217.896 168.875 217.109 168.875V167.469C217.63 167.469 218.109 167.383 218.547 167.211C219.177 166.961 219.492 166.656 219.492 166.297V155.906C219.492 155.547 219.177 155.242 218.547 154.992C218.109 154.82 217.63 154.734 217.109 154.734V153.328ZM24.5625 189.312V177.594L26.0469 176.891H26.125V188.609L24.6406 189.312H24.5625ZM28.8594 189.312V182.75C28.8594 181.188 29.6406 180.406 31.2031 180.406H33C34.5625 180.406 35.3438 181.188 35.3438 182.75V188.609L33.8594 189.312H33.7812V182.75C33.7812 182.125 33.5208 181.812 33 181.812H31.2031C30.6823 181.812 30.4219 182.125 30.4219 182.75V188.609L28.9375 189.312H28.8594ZM38.7188 189.312V181.828H36.7109V181.75L37.3438 180.406H38.7188V177.594L40.2031 176.891H40.2812V180.406H42.2891V180.484L41.6562 181.828H40.2812V188.609L38.7969 189.312H38.7188ZM46 189C44.4375 189 43.6562 188.219 43.6562 186.656V182.75C43.6562 181.188 44.4375 180.406 46 180.406H47.7969C49.3594 180.406 50.1406 181.188 50.1406 182.75V183.164L45.2422 186.953C45.3151 187.38 45.5677 187.594 46 187.594H47.7969C48.3177 187.594 48.5781 187.281 48.5781 186.656V186.242L50.0625 185.539H50.1406V186.656C50.1406 188.219 49.3594 189 47.7969 189H46ZM45.2188 185.32L48.5703 182.617C48.5391 182.081 48.2812 181.812 47.7969 181.812H46C45.4792 181.812 45.2188 182.125 45.2188 182.75V185.32ZM52.4844 189.312V182.75C52.4844 181.188 53.2656 180.406 54.8281 180.406H56.7812V180.484L56.1562 181.812H54.8281C54.3073 181.812 54.0469 182.125 54.0469 182.75V188.609L52.5625 189.312H52.4844ZM58.1094 189.312V182.75C58.1094 181.188 58.8906 180.406 60.4531 180.406H62.25C62.9688 180.406 63.4896 180.599 63.8125 180.984C64.1562 180.599 64.6771 180.406 65.375 180.406H67.1719C68.7344 180.406 69.5156 181.188 69.5156 182.75V188.609L68.0312 189.312H67.9531V182.75C67.9531 182.125 67.6927 181.812 67.1719 181.812H65.375C64.8542 181.812 64.5938 182.125 64.5938 182.75V188.609L63.1094 189.312H63.0312V182.75C63.0312 182.125 62.7708 181.812 62.25 181.812H60.4531C59.9323 181.812 59.6719 182.125 59.6719 182.75V188.609L58.1875 189.312H58.1094ZM74.2031 189C72.6406 189 71.8594 188.219 71.8594 186.656V182.75C71.8594 181.188 72.6406 180.406 74.2031 180.406H76C77.5625 180.406 78.3438 181.188 78.3438 182.75V183.164L73.4453 186.953C73.5182 187.38 73.7708 187.594 74.2031 187.594H76C76.5208 187.594 76.7812 187.281 76.7812 186.656V186.242L78.2656 185.539H78.3438V186.656C78.3438 188.219 77.5625 189 76 189H74.2031ZM73.4219 185.32L76.7734 182.617C76.7422 182.081 76.4844 181.812 76 181.812H74.2031C73.6823 181.812 73.4219 182.125 73.4219 182.75V185.32ZM83.0312 189C81.4688 189 80.6875 188.219 80.6875 186.656V182.75C80.6875 181.188 81.4688 180.406 83.0312 180.406H84.8281C85.1823 180.406 85.4427 180.487 85.6094 180.648V177.594L87.0938 176.891H87.1719V186.656C87.1719 188.219 86.3906 189 84.8281 189H83.0312ZM83.0312 187.594H84.8281C85.349 187.594 85.6094 187.281 85.6094 186.656V182.75C85.6094 182.125 85.349 181.812 84.8281 181.812H83.0312C82.5104 181.812 82.25 182.125 82.25 182.75V186.656C82.25 187.281 82.5104 187.594 83.0312 187.594ZM90.4141 178.68C90.2318 178.492 90.1406 178.268 90.1406 178.008C90.1406 177.742 90.2318 177.516 90.4141 177.328C90.5964 177.141 90.8177 177.047 91.0781 177.047C91.3385 177.047 91.5599 177.141 91.7422 177.328C91.9245 177.516 92.0156 177.742 92.0156 178.008C92.0156 178.268 91.9245 178.492 91.7422 178.68C91.5599 178.867 91.3385 178.961 91.0781 178.961C90.8177 178.961 90.5964 178.867 90.4141 178.68ZM90.2969 189.312V180.797L91.7812 180.094H91.8594V188.609L90.375 189.312H90.2969ZM96.5469 187.594H98.1875C98.7083 187.594 98.9688 187.281 98.9688 186.656V185.586C98.9688 184.961 98.7083 184.648 98.1875 184.648H96.5469C96.026 184.648 95.7656 184.961 95.7656 185.586V186.656C95.7656 187.281 96.026 187.594 96.5469 187.594ZM96.5469 189C94.9844 189 94.2031 188.219 94.2031 186.656V185.586C94.2031 184.023 94.9844 183.242 96.5469 183.242H98.1875C98.4583 183.242 98.7188 183.32 98.9688 183.477V182.75C98.9688 182.125 98.7083 181.812 98.1875 181.812H95.3906V181.734L96.0156 180.406H98.1875C99.75 180.406 100.531 181.188 100.531 182.75V188.609L99.0469 189.312H98.9688V188.766C98.7708 188.922 98.5104 189 98.1875 189H96.5469ZM103.906 189.312V181.828H101.898V181.75L102.531 180.406H103.906V177.594L105.391 176.891H105.469V180.406H107.477V180.484L106.844 181.828H105.469V188.609L103.984 189.312H103.906ZM111.188 189C109.625 189 108.844 188.219 108.844 186.656V182.75C108.844 181.188 109.625 180.406 111.188 180.406H112.984C114.547 180.406 115.328 181.188 115.328 182.75V183.164L110.43 186.953C110.503 187.38 110.755 187.594 111.188 187.594H112.984C113.505 187.594 113.766 187.281 113.766 186.656V186.242L115.25 185.539H115.328V186.656C115.328 188.219 114.547 189 112.984 189H111.188ZM110.406 185.32L113.758 182.617C113.727 182.081 113.469 181.812 112.984 181.812H111.188C110.667 181.812 110.406 182.125 110.406 182.75V185.32ZM126.266 189C124.703 189 123.922 188.219 123.922 186.656V182.75C123.922 181.188 124.703 180.406 126.266 180.406H128.062C129.625 180.406 130.406 181.188 130.406 182.75V183.164L125.508 186.953C125.581 187.38 125.833 187.594 126.266 187.594H128.062C128.583 187.594 128.844 187.281 128.844 186.656V186.242L130.328 185.539H130.406V186.656C130.406 188.219 129.625 189 128.062 189H126.266ZM125.484 185.32L128.836 182.617C128.805 182.081 128.547 181.812 128.062 181.812H126.266C125.745 181.812 125.484 182.125 125.484 182.75V185.32ZM132.75 189.312V182.75C132.75 181.188 133.531 180.406 135.094 180.406H136.891C138.453 180.406 139.234 181.188 139.234 182.75V188.609L137.75 189.312H137.672V182.75C137.672 182.125 137.411 181.812 136.891 181.812H135.094C134.573 181.812 134.312 182.125 134.312 182.75V188.609L132.828 189.312H132.75ZM143.922 189C142.359 189 141.578 188.219 141.578 186.656V182.75C141.578 181.188 142.359 180.406 143.922 180.406H145.719C147.281 180.406 148.062 181.188 148.062 182.75V189.859C148.062 191.422 147.281 192.203 145.719 192.203H142.391V192.125L143.016 190.797H145.719C146.24 190.797 146.5 190.484 146.5 189.859V188.766C146.281 188.922 146.021 189 145.719 189H143.922ZM143.922 187.594H145.719C146.24 187.594 146.5 187.281 146.5 186.656V182.75C146.5 182.125 146.24 181.812 145.719 181.812H143.922C143.401 181.812 143.141 182.125 143.141 182.75V186.656C143.141 187.281 143.401 187.594 143.922 187.594ZM151.031 189.312V177.594L152.516 176.891H152.594V188.609L151.109 189.312H151.031ZM155.836 178.68C155.654 178.492 155.562 178.268 155.562 178.008C155.562 177.742 155.654 177.516 155.836 177.328C156.018 177.141 156.24 177.047 156.5 177.047C156.76 177.047 156.982 177.141 157.164 177.328C157.346 177.516 157.438 177.742 157.438 178.008C157.438 178.268 157.346 178.492 157.164 178.68C156.982 178.867 156.76 178.961 156.5 178.961C156.24 178.961 156.018 178.867 155.836 178.68ZM155.719 189.312V180.797L157.203 180.094H157.281V188.609L155.797 189.312H155.719ZM162.125 189C160.562 189 159.781 188.219 159.781 186.656V186.375L161.266 185.672H161.344V186.656C161.344 187.281 161.604 187.594 162.125 187.594H163.922C164.443 187.594 164.703 187.281 164.703 186.656V186.039C164.703 185.414 164.443 185.102 163.922 185.102H162.453C160.891 185.102 160.109 184.318 160.109 182.75C160.109 181.188 160.891 180.406 162.453 180.406H163.367C164.93 180.406 165.711 181.036 165.711 182.297L164.227 183H164.148V182.75C164.148 182.125 163.888 181.812 163.367 181.812H162.453C161.932 181.812 161.672 182.125 161.672 182.75C161.672 183.38 161.932 183.695 162.453 183.695H163.922C165.484 183.695 166.266 184.477 166.266 186.039V186.656C166.266 188.219 165.484 189 163.922 189H162.125ZM168.766 189.312V177.594L170.25 176.891H170.328V180.648C170.557 180.487 170.818 180.406 171.109 180.406H172.906C174.469 180.406 175.25 181.188 175.25 182.75V188.609L173.766 189.312H173.688V182.75C173.688 182.125 173.427 181.812 172.906 181.812H171.109C170.589 181.812 170.328 182.125 170.328 182.75V188.609L168.844 189.312H168.766Z" fill="#EEEBEB"/>
<path d="M31.2969 428C29.474 428 28.5625 427.089 28.5625 425.266V418.938C28.5625 417.115 29.474 416.203 31.2969 416.203H33.7188C35.5417 416.203 36.4531 417.115 36.4531 418.938V419.797L34.9688 420.5H34.8906V418.938C34.8906 418.052 34.5 417.609 33.7188 417.609H31.2969C30.5156 417.609 30.125 418.052 30.125 418.938V425.266C30.125 426.151 30.5156 426.594 31.2969 426.594H33.7188C34.5 426.594 34.8906 426.151 34.8906 425.266V424.406L36.375 423.703H36.4531V425.266C36.4531 427.089 35.5417 428 33.7188 428H31.2969ZM39.1875 428.312V421.75C39.1875 420.188 39.9688 419.406 41.5312 419.406H43.4844V419.484L42.8594 420.812H41.5312C41.0104 420.812 40.75 421.125 40.75 421.75V427.609L39.2656 428.312H39.1875ZM47.1562 428C45.5938 428 44.8125 427.219 44.8125 425.656V421.75C44.8125 420.188 45.5938 419.406 47.1562 419.406H48.9531C50.5156 419.406 51.2969 420.188 51.2969 421.75V422.164L46.3984 425.953C46.4714 426.38 46.724 426.594 47.1562 426.594H48.9531C49.474 426.594 49.7344 426.281 49.7344 425.656V425.242L51.2188 424.539H51.2969V425.656C51.2969 427.219 50.5156 428 48.9531 428H47.1562ZM46.375 424.32L49.7266 421.617C49.6953 421.081 49.4375 420.812 48.9531 420.812H47.1562C46.6354 420.812 46.375 421.125 46.375 421.75V424.32ZM55.5938 426.594H57.2344C57.7552 426.594 58.0156 426.281 58.0156 425.656V424.586C58.0156 423.961 57.7552 423.648 57.2344 423.648H55.5938C55.0729 423.648 54.8125 423.961 54.8125 424.586V425.656C54.8125 426.281 55.0729 426.594 55.5938 426.594ZM55.5938 428C54.0312 428 53.25 427.219 53.25 425.656V424.586C53.25 423.023 54.0312 422.242 55.5938 422.242H57.2344C57.5052 422.242 57.7656 422.32 58.0156 422.477V421.75C58.0156 421.125 57.7552 420.812 57.2344 420.812H54.4375V420.734L55.0625 419.406H57.2344C58.7969 419.406 59.5781 420.188 59.5781 421.75V427.609L58.0938 428.312H58.0156V427.766C57.8177 427.922 57.5573 428 57.2344 428H55.5938ZM62.9531 428.312V420.828H60.9453V420.75L61.5781 419.406H62.9531V416.594L64.4375 415.891H64.5156V419.406H66.5234V419.484L65.8906 420.828H64.5156V427.609L63.0312 428.312H62.9531ZM68.3984 417.68C68.2161 417.492 68.125 417.268 68.125 417.008C68.125 416.742 68.2161 416.516 68.3984 416.328C68.5807 416.141 68.8021 416.047 69.0625 416.047C69.3229 416.047 69.5443 416.141 69.7266 416.328C69.9089 416.516 70 416.742 70 417.008C70 417.268 69.9089 417.492 69.7266 417.68C69.5443 417.867 69.3229 417.961 69.0625 417.961C68.8021 417.961 68.5807 417.867 68.3984 417.68ZM68.2812 428.312V419.797L69.7656 419.094H69.8438V427.609L68.3594 428.312H68.2812ZM74.8125 428.312L71.7969 419.734L73.1484 419.094H73.2266L75.4375 425.609L77.6016 419.094H77.6797L79.0312 419.734L76.2422 427.672L74.8906 428.312H74.8125ZM80.7109 417.68C80.5286 417.492 80.4375 417.268 80.4375 417.008C80.4375 416.742 80.5286 416.516 80.7109 416.328C80.8932 416.141 81.1146 416.047 81.375 416.047C81.6354 416.047 81.8568 416.141 82.0391 416.328C82.2214 416.516 82.3125 416.742 82.3125 417.008C82.3125 417.268 82.2214 417.492 82.0391 417.68C81.8568 417.867 81.6354 417.961 81.375 417.961C81.1146 417.961 80.8932 417.867 80.7109 417.68ZM80.5938 428.312V419.797L82.0781 419.094H82.1562V427.609L80.6719 428.312H80.5938ZM85.9219 428.312V420.828H83.9141V420.75L84.5469 419.406H85.9219V416.594L87.4062 415.891H87.4844V419.406H89.4922V419.484L88.8594 420.828H87.4844V427.609L86 428.312H85.9219ZM93.2031 428C91.6406 428 90.8594 427.219 90.8594 425.656V419.797L92.3438 419.094H92.4219V425.656C92.4219 426.281 92.6823 426.594 93.2031 426.594H95C95.5208 426.594 95.7812 426.281 95.7812 425.656V419.797L97.2656 419.094H97.3438V428.859C97.3438 430.422 96.5625 431.203 95 431.203H91.6719V431.125L92.2969 429.797H95C95.5208 429.797 95.7812 429.484 95.7812 428.859V427.766C95.5781 427.922 95.3177 428 95 428H93.2031ZM30.125 439.609V444.609H33.5625C34.3438 444.609 34.7344 444.167 34.7344 443.281V440.938C34.7344 440.052 34.3438 439.609 33.5625 439.609H30.125ZM28.5625 450.312V438.594L29.3906 438.203H33.5625C35.3854 438.203 36.2969 439.115 36.2969 440.938V443.281C36.2969 444.979 35.5078 445.885 33.9297 446L36.4844 449.664L35.1094 450.312H35.0312L32.0234 446.016H30.125V449.609L28.6406 450.312H28.5625ZM40.7812 450C39.2188 450 38.4375 449.219 38.4375 447.656V443.75C38.4375 442.188 39.2188 441.406 40.7812 441.406H42.5781C44.1406 441.406 44.9219 442.188 44.9219 443.75V444.164L40.0234 447.953C40.0964 448.38 40.349 448.594 40.7812 448.594H42.5781C43.099 448.594 43.3594 448.281 43.3594 447.656V447.242L44.8438 446.539H44.9219V447.656C44.9219 449.219 44.1406 450 42.5781 450H40.7812ZM40 446.32L43.3516 443.617C43.3203 443.081 43.0625 442.812 42.5781 442.812H40.7812C40.2604 442.812 40 443.125 40 443.75V446.32ZM49.375 450C47.8125 450 47.0312 449.219 47.0312 447.656V447.375L48.5156 446.672H48.5938V447.656C48.5938 448.281 48.8542 448.594 49.375 448.594H51.1719C51.6927 448.594 51.9531 448.281 51.9531 447.656V447.039C51.9531 446.414 51.6927 446.102 51.1719 446.102H49.7031C48.1406 446.102 47.3594 445.318 47.3594 443.75C47.3594 442.188 48.1406 441.406 49.7031 441.406H50.6172C52.1797 441.406 52.9609 442.036 52.9609 443.297L51.4766 444H51.3984V443.75C51.3984 443.125 51.138 442.812 50.6172 442.812H49.7031C49.1823 442.812 48.9219 443.125 48.9219 443.75C48.9219 444.38 49.1823 444.695 49.7031 444.695H51.1719C52.7344 444.695 53.5156 445.477 53.5156 447.039V447.656C53.5156 449.219 52.7344 450 51.1719 450H49.375ZM58.3594 450C58.0052 450 57.7448 449.919 57.5781 449.758V452.812L56.0938 453.516H56.0156V443.75C56.0156 442.188 56.7969 441.406 58.3594 441.406H60.1562C61.7188 441.406 62.5 442.188 62.5 443.75V447.656C62.5 449.219 61.7188 450 60.1562 450H58.3594ZM58.3594 448.594H60.1562C60.6771 448.594 60.9375 448.281 60.9375 447.656V443.75C60.9375 443.125 60.6771 442.812 60.1562 442.812H58.3594C57.8385 442.812 57.5781 443.125 57.5781 443.75V447.656C57.5781 448.281 57.8385 448.594 58.3594 448.594ZM67.1875 448.594H68.9844C69.5052 448.594 69.7656 448.281 69.7656 447.656V443.75C69.7656 443.125 69.5052 442.812 68.9844 442.812H67.1875C66.6667 442.812 66.4062 443.125 66.4062 443.75V447.656C66.4062 448.281 66.6667 448.594 67.1875 448.594ZM67.1875 450C65.625 450 64.8438 449.219 64.8438 447.656V443.75C64.8438 442.188 65.625 441.406 67.1875 441.406H68.9844C70.5469 441.406 71.3281 442.188 71.3281 443.75V447.656C71.3281 449.219 70.5469 450 68.9844 450H67.1875ZM73.6719 450.312V443.75C73.6719 442.188 74.4531 441.406 76.0156 441.406H77.8125C79.375 441.406 80.1562 442.188 80.1562 443.75V449.609L78.6719 450.312H78.5938V443.75C78.5938 443.125 78.3333 442.812 77.8125 442.812H76.0156C75.4948 442.812 75.2344 443.125 75.2344 443.75V449.609L73.75 450.312H73.6719ZM84.6094 450C83.0469 450 82.2656 449.219 82.2656 447.656V447.375L83.75 446.672H83.8281V447.656C83.8281 448.281 84.0885 448.594 84.6094 448.594H86.4062C86.9271 448.594 87.1875 448.281 87.1875 447.656V447.039C87.1875 446.414 86.9271 446.102 86.4062 446.102H84.9375C83.375 446.102 82.5938 445.318 82.5938 443.75C82.5938 442.188 83.375 441.406 84.9375 441.406H85.8516C87.4141 441.406 88.1953 442.036 88.1953 443.297L86.7109 444H86.6328V443.75C86.6328 443.125 86.3724 442.812 85.8516 442.812H84.9375C84.4167 442.812 84.1562 443.125 84.1562 443.75C84.1562 444.38 84.4167 444.695 84.9375 444.695H86.4062C87.9688 444.695 88.75 445.477 88.75 447.039V447.656C88.75 449.219 87.9688 450 86.4062 450H84.6094ZM91.3672 439.68C91.1849 439.492 91.0938 439.268 91.0938 439.008C91.0938 438.742 91.1849 438.516 91.3672 438.328C91.5495 438.141 91.7708 438.047 92.0312 438.047C92.2917 438.047 92.513 438.141 92.6953 438.328C92.8776 438.516 92.9688 438.742 92.9688 439.008C92.9688 439.268 92.8776 439.492 92.6953 439.68C92.513 439.867 92.2917 439.961 92.0312 439.961C91.7708 439.961 91.5495 439.867 91.3672 439.68ZM91.25 450.312V441.797L92.7344 441.094H92.8125V449.609L91.3281 450.312H91.25ZM98.2812 448.594H100.078C100.599 448.594 100.859 448.281 100.859 447.656V443.75C100.859 443.125 100.599 442.812 100.078 442.812H98.2812C97.7604 442.812 97.5 443.125 97.5 443.75V447.656C97.5 448.281 97.7604 448.594 98.2812 448.594ZM98.2812 450C96.7188 450 95.9375 449.219 95.9375 447.656V438.594L97.4219 437.891H97.5V441.648C97.7083 441.487 97.9688 441.406 98.2812 441.406H100.078C101.641 441.406 102.422 442.188 102.422 443.75V447.656C102.422 449.219 101.641 450 100.078 450H98.2812ZM105.156 450.312V438.594L106.641 437.891H106.719V449.609L105.234 450.312H105.156ZM111.797 450C110.234 450 109.453 449.219 109.453 447.656V443.75C109.453 442.188 110.234 441.406 111.797 441.406H113.594C115.156 441.406 115.938 442.188 115.938 443.75V444.164L111.039 447.953C111.112 448.38 111.365 448.594 111.797 448.594H113.594C114.115 448.594 114.375 448.281 114.375 447.656V447.242L115.859 446.539H115.938V447.656C115.938 449.219 115.156 450 113.594 450H111.797ZM111.016 446.32L114.367 443.617C114.336 443.081 114.078 442.812 113.594 442.812H111.797C111.276 442.812 111.016 443.125 111.016 443.75V446.32ZM30.3828 472.312V461.625H27.0391V461.547L27.6719 460.203H35.2891V460.281L34.6562 461.625H31.9453V471.609L30.4609 472.312H30.3828ZM36.2266 461.68C36.0443 461.492 35.9531 461.268 35.9531 461.008C35.9531 460.742 36.0443 460.516 36.2266 460.328C36.4089 460.141 36.6302 460.047 36.8906 460.047C37.151 460.047 37.3724 460.141 37.5547 460.328C37.737 460.516 37.8281 460.742 37.8281 461.008C37.8281 461.268 37.737 461.492 37.5547 461.68C37.3724 461.867 37.151 461.961 36.8906 461.961C36.6302 461.961 36.4089 461.867 36.2266 461.68ZM36.1094 472.312V463.797L37.5938 463.094H37.6719V471.609L36.1875 472.312H36.1094ZM40.4062 472.312V465.75C40.4062 464.188 41.1875 463.406 42.75 463.406H44.5469C45.2656 463.406 45.7865 463.599 46.1094 463.984C46.4531 463.599 46.974 463.406 47.6719 463.406H49.4688C51.0312 463.406 51.8125 464.188 51.8125 465.75V471.609L50.3281 472.312H50.25V465.75C50.25 465.125 49.9896 464.812 49.4688 464.812H47.6719C47.151 464.812 46.8906 465.125 46.8906 465.75V471.609L45.4062 472.312H45.3281V465.75C45.3281 465.125 45.0677 464.812 44.5469 464.812H42.75C42.2292 464.812 41.9688 465.125 41.9688 465.75V471.609L40.4844 472.312H40.4062ZM56.5 472C54.9375 472 54.1562 471.219 54.1562 469.656V465.75C54.1562 464.188 54.9375 463.406 56.5 463.406H58.2969C59.8594 463.406 60.6406 464.188 60.6406 465.75V466.164L55.7422 469.953C55.8151 470.38 56.0677 470.594 56.5 470.594H58.2969C58.8177 470.594 59.0781 470.281 59.0781 469.656V469.242L60.5625 468.539H60.6406V469.656C60.6406 471.219 59.8594 472 58.2969 472H56.5ZM55.7188 468.32L59.0703 465.617C59.0391 465.081 58.7812 464.812 58.2969 464.812H56.5C55.9792 464.812 55.7188 465.125 55.7188 465.75V468.32ZM69.625 472.312V462.938C69.625 461.115 70.5365 460.203 72.3594 460.203H74.7812C75.7188 460.203 76.3698 460.453 76.7344 460.953C77.151 460.453 77.8021 460.203 78.6875 460.203H81.1094C82.9323 460.203 83.8438 461.115 83.8438 462.938V471.609L82.3594 472.312H82.2812V462.938C82.2812 462.052 81.8906 461.609 81.1094 461.609H78.6875C77.9062 461.609 77.5156 462.052 77.5156 462.938V471.609L76.0312 472.312H75.9531V462.938C75.9531 462.052 75.5625 461.609 74.7812 461.609H72.3594C71.5781 461.609 71.1875 462.052 71.1875 462.938V471.609L69.7031 472.312H69.625ZM88.5312 470.594H90.1719C90.6927 470.594 90.9531 470.281 90.9531 469.656V468.586C90.9531 467.961 90.6927 467.648 90.1719 467.648H88.5312C88.0104 467.648 87.75 467.961 87.75 468.586V469.656C87.75 470.281 88.0104 470.594 88.5312 470.594ZM88.5312 472C86.9688 472 86.1875 471.219 86.1875 469.656V468.586C86.1875 467.023 86.9688 466.242 88.5312 466.242H90.1719C90.4427 466.242 90.7031 466.32 90.9531 466.477V465.75C90.9531 465.125 90.6927 464.812 90.1719 464.812H87.375V464.734L88 463.406H90.1719C91.7344 463.406 92.5156 464.188 92.5156 465.75V471.609L91.0312 472.312H90.9531V471.766C90.7552 471.922 90.4948 472 90.1719 472H88.5312ZM94.8594 472.312V465.75C94.8594 464.188 95.6406 463.406 97.2031 463.406H99C100.562 463.406 101.344 464.188 101.344 465.75V471.609L99.8594 472.312H99.7812V465.75C99.7812 465.125 99.5208 464.812 99 464.812H97.2031C96.6823 464.812 96.4219 465.125 96.4219 465.75V471.609L94.9375 472.312H94.8594ZM105.641 470.594H107.281C107.802 470.594 108.062 470.281 108.062 469.656V468.586C108.062 467.961 107.802 467.648 107.281 467.648H105.641C105.12 467.648 104.859 467.961 104.859 468.586V469.656C104.859 470.281 105.12 470.594 105.641 470.594ZM105.641 472C104.078 472 103.297 471.219 103.297 469.656V468.586C103.297 467.023 104.078 466.242 105.641 466.242H107.281C107.552 466.242 107.812 466.32 108.062 466.477V465.75C108.062 465.125 107.802 464.812 107.281 464.812H104.484V464.734L105.109 463.406H107.281C108.844 463.406 109.625 464.188 109.625 465.75V471.609L108.141 472.312H108.062V471.766C107.865 471.922 107.604 472 107.281 472H105.641ZM114.312 472C112.75 472 111.969 471.219 111.969 469.656V465.75C111.969 464.188 112.75 463.406 114.312 463.406H116.109C117.672 463.406 118.453 464.188 118.453 465.75V472.859C118.453 474.422 117.672 475.203 116.109 475.203H112.781V475.125L113.406 473.797H116.109C116.63 473.797 116.891 473.484 116.891 472.859V471.766C116.672 471.922 116.411 472 116.109 472H114.312ZM114.312 470.594H116.109C116.63 470.594 116.891 470.281 116.891 469.656V465.75C116.891 465.125 116.63 464.812 116.109 464.812H114.312C113.792 464.812 113.531 465.125 113.531 465.75V469.656C113.531 470.281 113.792 470.594 114.312 470.594ZM123.375 472C121.812 472 121.031 471.219 121.031 469.656V465.75C121.031 464.188 121.812 463.406 123.375 463.406H125.172C126.734 463.406 127.516 464.188 127.516 465.75V466.164L122.617 469.953C122.69 470.38 122.943 470.594 123.375 470.594H125.172C125.693 470.594 125.953 470.281 125.953 469.656V469.242L127.438 468.539H127.516V469.656C127.516 471.219 126.734 472 125.172 472H123.375ZM122.594 468.32L125.945 465.617C125.914 465.081 125.656 464.812 125.172 464.812H123.375C122.854 464.812 122.594 465.125 122.594 465.75V468.32ZM129.859 472.312V465.75C129.859 464.188 130.641 463.406 132.203 463.406H134C134.719 463.406 135.24 463.599 135.562 463.984C135.906 463.599 136.427 463.406 137.125 463.406H138.922C140.484 463.406 141.266 464.188 141.266 465.75V471.609L139.781 472.312H139.703V465.75C139.703 465.125 139.443 464.812 138.922 464.812H137.125C136.604 464.812 136.344 465.125 136.344 465.75V471.609L134.859 472.312H134.781V465.75C134.781 465.125 134.521 464.812 134 464.812H132.203C131.682 464.812 131.422 465.125 131.422 465.75V471.609L129.938 472.312H129.859ZM145.953 472C144.391 472 143.609 471.219 143.609 469.656V465.75C143.609 464.188 144.391 463.406 145.953 463.406H147.75C149.312 463.406 150.094 464.188 150.094 465.75V466.164L145.195 469.953C145.268 470.38 145.521 470.594 145.953 470.594H147.75C148.271 470.594 148.531 470.281 148.531 469.656V469.242L150.016 468.539H150.094V469.656C150.094 471.219 149.312 472 147.75 472H145.953ZM145.172 468.32L148.523 465.617C148.492 465.081 148.234 464.812 147.75 464.812H145.953C145.432 464.812 145.172 465.125 145.172 465.75V468.32ZM152.438 472.312V465.75C152.438 464.188 153.219 463.406 154.781 463.406H156.578C158.141 463.406 158.922 464.188 158.922 465.75V471.609L157.438 472.312H157.359V465.75C157.359 465.125 157.099 464.812 156.578 464.812H154.781C154.26 464.812 154 465.125 154 465.75V471.609L152.516 472.312H152.438ZM162.297 472.312V464.828H160.289V464.75L160.922 463.406H162.297V460.594L163.781 459.891H163.859V463.406H165.867V463.484L165.234 464.828H163.859V471.609L162.375 472.312H162.297Z" fill="#EEEBEB"/>
<path d="M296.297 428C294.474 428 293.562 427.089 293.562 425.266V418.938C293.562 417.115 294.474 416.203 296.297 416.203H298.719C300.542 416.203 301.453 417.115 301.453 418.938V419.797L299.969 420.5H299.891V418.938C299.891 418.052 299.5 417.609 298.719 417.609H296.297C295.516 417.609 295.125 418.052 295.125 418.938V425.266C295.125 426.151 295.516 426.594 296.297 426.594H298.719C299.5 426.594 299.891 426.151 299.891 425.266V424.406L301.375 423.703H301.453V425.266C301.453 427.089 300.542 428 298.719 428H296.297ZM306.531 426.594H308.328C308.849 426.594 309.109 426.281 309.109 425.656V421.75C309.109 421.125 308.849 420.812 308.328 420.812H306.531C306.01 420.812 305.75 421.125 305.75 421.75V425.656C305.75 426.281 306.01 426.594 306.531 426.594ZM306.531 428C304.969 428 304.188 427.219 304.188 425.656V421.75C304.188 420.188 304.969 419.406 306.531 419.406H308.328C309.891 419.406 310.672 420.188 310.672 421.75V425.656C310.672 427.219 309.891 428 308.328 428H306.531ZM313.016 428.312V421.75C313.016 420.188 313.797 419.406 315.359 419.406H317.156C318.719 419.406 319.5 420.188 319.5 421.75V427.609L318.016 428.312H317.938V421.75C317.938 421.125 317.677 420.812 317.156 420.812H315.359C314.839 420.812 314.578 421.125 314.578 421.75V427.609L313.094 428.312H313.016ZM324.188 428C322.625 428 321.844 427.219 321.844 425.656V421.75C321.844 420.188 322.625 419.406 324.188 419.406H325.984C327.547 419.406 328.328 420.188 328.328 421.75V422.164L326.844 422.867H326.766V421.75C326.766 421.125 326.505 420.812 325.984 420.812H324.188C323.667 420.812 323.406 421.125 323.406 421.75V425.656C323.406 426.281 323.667 426.594 324.188 426.594H325.984C326.505 426.594 326.766 426.281 326.766 425.656V425.242L328.25 424.539H328.328V425.656C328.328 427.219 327.547 428 325.984 428H324.188ZM333.016 428C331.453 428 330.672 427.219 330.672 425.656V421.75C330.672 420.188 331.453 419.406 333.016 419.406H334.812C336.375 419.406 337.156 420.188 337.156 421.75V422.164L332.258 425.953C332.331 426.38 332.583 426.594 333.016 426.594H334.812C335.333 426.594 335.594 426.281 335.594 425.656V425.242L337.078 424.539H337.156V425.656C337.156 427.219 336.375 428 334.812 428H333.016ZM332.234 424.32L335.586 421.617C335.555 421.081 335.297 420.812 334.812 420.812H333.016C332.495 420.812 332.234 421.125 332.234 421.75V424.32ZM342.234 428C341.88 428 341.62 427.919 341.453 427.758V430.812L339.969 431.516H339.891V421.75C339.891 420.188 340.672 419.406 342.234 419.406H344.031C345.594 419.406 346.375 420.188 346.375 421.75V425.656C346.375 427.219 345.594 428 344.031 428H342.234ZM342.234 426.594H344.031C344.552 426.594 344.812 426.281 344.812 425.656V421.75C344.812 421.125 344.552 420.812 344.031 420.812H342.234C341.714 420.812 341.453 421.125 341.453 421.75V425.656C341.453 426.281 341.714 426.594 342.234 426.594ZM349.75 428.312V420.828H347.742V420.75L348.375 419.406H349.75V416.594L351.234 415.891H351.312V419.406H353.32V419.484L352.688 420.828H351.312V427.609L349.828 428.312H349.75ZM361.328 428.312V418.938C361.328 417.115 362.24 416.203 364.062 416.203H366.484C368.307 416.203 369.219 417.115 369.219 418.938V427.609L367.734 428.312H367.656V422.812H362.891V427.609L361.406 428.312H361.328ZM362.891 421.391H367.656V418.938C367.656 418.052 367.266 417.609 366.484 417.609H364.062C363.281 417.609 362.891 418.052 362.891 418.938V421.391ZM371.953 428.312V421.75C371.953 420.188 372.734 419.406 374.297 419.406H376.25V419.484L375.625 420.812H374.297C373.776 420.812 373.516 421.125 373.516 421.75V427.609L372.031 428.312H371.953ZM378.609 428.312V420.828H376.602V420.75L377.234 419.406H378.609V416.594L380.094 415.891H380.172V419.406H382.18V419.484L381.547 420.828H380.172V427.609L378.688 428.312H378.609ZM296.297 450C294.474 450 293.562 449.089 293.562 447.266V438.594L295.047 437.891H295.125V447.266C295.125 448.151 295.516 448.594 296.297 448.594H298.719C299.5 448.594 299.891 448.151 299.891 447.266V438.594L301.375 437.891H301.453V447.266C301.453 449.089 300.542 450 298.719 450H296.297ZM304.578 450.312V438.594L306.062 437.891H306.141V449.609L304.656 450.312H304.578ZM308.883 451.094L307.781 450.562L314.047 437.109H314.125L315.234 437.641L308.961 451.094H308.883ZM319.609 450C317.786 450 316.875 449.089 316.875 447.266V438.594L318.359 437.891H318.438V447.266C318.438 448.151 318.828 448.594 319.609 448.594H322.031C322.812 448.594 323.203 448.151 323.203 447.266V438.594L324.688 437.891H324.766V447.266C324.766 449.089 323.854 450 322.031 450H319.609ZM328.078 450.312L326.719 449.672L330.016 444.102L326.719 438.539L328.086 437.891H328.164L330.93 442.719L333.695 437.891H333.773L335.141 438.539L331.844 444.102L335.141 449.672L333.781 450.312H333.703L330.93 445.484L328.156 450.312H328.078ZM345.297 448.594H348.734C349.516 448.594 349.906 448.151 349.906 447.266V440.938C349.906 440.052 349.516 439.609 348.734 439.609H345.297V448.594ZM343.734 450V438.594L344.562 438.203H348.734C350.557 438.203 351.469 439.115 351.469 440.938V447.266C351.469 449.089 350.557 450 348.734 450H343.734ZM356.547 450C354.984 450 354.203 449.219 354.203 447.656V443.75C354.203 442.188 354.984 441.406 356.547 441.406H358.344C359.906 441.406 360.688 442.188 360.688 443.75V444.164L355.789 447.953C355.862 448.38 356.115 448.594 356.547 448.594H358.344C358.865 448.594 359.125 448.281 359.125 447.656V447.242L360.609 446.539H360.688V447.656C360.688 449.219 359.906 450 358.344 450H356.547ZM355.766 446.32L359.117 443.617C359.086 443.081 358.828 442.812 358.344 442.812H356.547C356.026 442.812 355.766 443.125 355.766 443.75V446.32ZM365.141 450C363.578 450 362.797 449.219 362.797 447.656V447.375L364.281 446.672H364.359V447.656C364.359 448.281 364.62 448.594 365.141 448.594H366.938C367.458 448.594 367.719 448.281 367.719 447.656V447.039C367.719 446.414 367.458 446.102 366.938 446.102H365.469C363.906 446.102 363.125 445.318 363.125 443.75C363.125 442.188 363.906 441.406 365.469 441.406H366.383C367.945 441.406 368.727 442.036 368.727 443.297L367.242 444H367.164V443.75C367.164 443.125 366.904 442.812 366.383 442.812H365.469C364.948 442.812 364.688 443.125 364.688 443.75C364.688 444.38 364.948 444.695 365.469 444.695H366.938C368.5 444.695 369.281 445.477 369.281 447.039V447.656C369.281 449.219 368.5 450 366.938 450H365.141ZM371.898 439.68C371.716 439.492 371.625 439.268 371.625 439.008C371.625 438.742 371.716 438.516 371.898 438.328C372.081 438.141 372.302 438.047 372.562 438.047C372.823 438.047 373.044 438.141 373.227 438.328C373.409 438.516 373.5 438.742 373.5 439.008C373.5 439.268 373.409 439.492 373.227 439.68C373.044 439.867 372.823 439.961 372.562 439.961C372.302 439.961 372.081 439.867 371.898 439.68ZM371.781 450.312V441.797L373.266 441.094H373.344V449.609L371.859 450.312H371.781ZM378.422 450C376.859 450 376.078 449.219 376.078 447.656V443.75C376.078 442.188 376.859 441.406 378.422 441.406H380.219C381.781 441.406 382.562 442.188 382.562 443.75V450.859C382.562 452.422 381.781 453.203 380.219 453.203H376.891V453.125L377.516 451.797H380.219C380.74 451.797 381 451.484 381 450.859V449.766C380.781 449.922 380.521 450 380.219 450H378.422ZM378.422 448.594H380.219C380.74 448.594 381 448.281 381 447.656V443.75C381 443.125 380.74 442.812 380.219 442.812H378.422C377.901 442.812 377.641 443.125 377.641 443.75V447.656C377.641 448.281 377.901 448.594 378.422 448.594ZM385.141 450.312V443.75C385.141 442.188 385.922 441.406 387.484 441.406H389.281C390.844 441.406 391.625 442.188 391.625 443.75V449.609L390.141 450.312H390.062V443.75C390.062 443.125 389.802 442.812 389.281 442.812H387.484C386.964 442.812 386.703 443.125 386.703 443.75V449.609L385.219 450.312H385.141ZM293.562 472.312V460.594L295.047 459.891H295.125V471.609L293.641 472.312H293.562ZM298.25 472.312V460.594L299.734 459.891H299.812V471.609L298.328 472.312H298.25ZM302.938 472.312V460.594L304.422 459.891H304.5V471.609L303.016 472.312H302.938ZM309.578 472C308.016 472 307.234 471.219 307.234 469.656V463.797L308.719 463.094H308.797V469.656C308.797 470.281 309.057 470.594 309.578 470.594H311.375C311.896 470.594 312.156 470.281 312.156 469.656V463.797L313.641 463.094H313.719V469.656C313.719 471.219 312.938 472 311.375 472H309.578ZM318.172 472C316.609 472 315.828 471.219 315.828 469.656V469.375L317.312 468.672H317.391V469.656C317.391 470.281 317.651 470.594 318.172 470.594H319.969C320.49 470.594 320.75 470.281 320.75 469.656V469.039C320.75 468.414 320.49 468.102 319.969 468.102H318.5C316.938 468.102 316.156 467.318 316.156 465.75C316.156 464.188 316.938 463.406 318.5 463.406H319.414C320.977 463.406 321.758 464.036 321.758 465.297L320.273 466H320.195V465.75C320.195 465.125 319.935 464.812 319.414 464.812H318.5C317.979 464.812 317.719 465.125 317.719 465.75C317.719 466.38 317.979 466.695 318.5 466.695H319.969C321.531 466.695 322.312 467.477 322.312 469.039V469.656C322.312 471.219 321.531 472 319.969 472H318.172ZM325.453 472.312V464.828H323.445V464.75L324.078 463.406H325.453V460.594L326.938 459.891H327.016V463.406H329.023V463.484L328.391 464.828H327.016V471.609L325.531 472.312H325.453ZM330.391 472.312V465.75C330.391 464.188 331.172 463.406 332.734 463.406H334.688V463.484L334.062 464.812H332.734C332.214 464.812 331.953 465.125 331.953 465.75V471.609L330.469 472.312H330.391ZM337.969 470.594H339.609C340.13 470.594 340.391 470.281 340.391 469.656V468.586C340.391 467.961 340.13 467.648 339.609 467.648H337.969C337.448 467.648 337.188 467.961 337.188 468.586V469.656C337.188 470.281 337.448 470.594 337.969 470.594ZM337.969 472C336.406 472 335.625 471.219 335.625 469.656V468.586C335.625 467.023 336.406 466.242 337.969 466.242H339.609C339.88 466.242 340.141 466.32 340.391 466.477V465.75C340.391 465.125 340.13 464.812 339.609 464.812H336.812V464.734L337.438 463.406H339.609C341.172 463.406 341.953 464.188 341.953 465.75V471.609L340.469 472.312H340.391V471.766C340.193 471.922 339.932 472 339.609 472H337.969ZM345.328 472.312V464.828H343.32V464.75L343.953 463.406H345.328V460.594L346.812 459.891H346.891V463.406H348.898V463.484L348.266 464.828H346.891V471.609L345.406 472.312H345.328ZM350.773 461.68C350.591 461.492 350.5 461.268 350.5 461.008C350.5 460.742 350.591 460.516 350.773 460.328C350.956 460.141 351.177 460.047 351.438 460.047C351.698 460.047 351.919 460.141 352.102 460.328C352.284 460.516 352.375 460.742 352.375 461.008C352.375 461.268 352.284 461.492 352.102 461.68C351.919 461.867 351.698 461.961 351.438 461.961C351.177 461.961 350.956 461.867 350.773 461.68ZM350.656 472.312V463.797L352.141 463.094H352.219V471.609L350.734 472.312H350.656ZM357.297 470.594H359.094C359.615 470.594 359.875 470.281 359.875 469.656V465.75C359.875 465.125 359.615 464.812 359.094 464.812H357.297C356.776 464.812 356.516 465.125 356.516 465.75V469.656C356.516 470.281 356.776 470.594 357.297 470.594ZM357.297 472C355.734 472 354.953 471.219 354.953 469.656V465.75C354.953 464.188 355.734 463.406 357.297 463.406H359.094C360.656 463.406 361.438 464.188 361.438 465.75V469.656C361.438 471.219 360.656 472 359.094 472H357.297ZM363.781 472.312V465.75C363.781 464.188 364.562 463.406 366.125 463.406H367.922C369.484 463.406 370.266 464.188 370.266 465.75V471.609L368.781 472.312H368.703V465.75C368.703 465.125 368.443 464.812 367.922 464.812H366.125C365.604 464.812 365.344 465.125 365.344 465.75V471.609L363.859 472.312H363.781Z" fill="#EEEBEB"/>
<path d="M9.5 129C9.5 129 10.0242 133.892 12.0659 135.934C14.1076 137.976 19 138.5 19 138.5C19 138.5 14.1076 139.024 12.0659 141.066C10.0242 143.108 9.5 148 9.5 148C9.5 148 8.97584 143.108 6.93414 141.066C4.89244 139.024 0 138.5 0 138.5C0 138.5 4.89244 137.976 6.93414 135.934C8.97584 133.892 9.5 129 9.5 129Z" fill="#D9D9D9"/>
<path d="M13.5 412C13.5 412 14.0242 416.892 16.0659 418.934C18.1076 420.976 23 421.5 23 421.5C23 421.5 18.1076 422.024 16.0659 424.066C14.0242 426.108 13.5 431 13.5 431C13.5 431 12.9758 426.108 10.9341 424.066C8.89244 422.024 4 421.5 4 421.5C4 421.5 8.89244 420.976 10.9341 418.934C12.9758 416.892 13.5 412 13.5 412Z" fill="#D9D9D9"/>
<path d="M278.5 412C278.5 412 279.024 416.892 281.066 418.934C283.108 420.976 288 421.5 288 421.5C288 421.5 283.108 422.024 281.066 424.066C279.024 426.108 278.5 431 278.5 431C278.5 431 277.976 426.108 275.934 424.066C273.892 422.024 269 421.5 269 421.5C269 421.5 273.892 420.976 275.934 418.934C277.976 416.892 278.5 412 278.5 412Z" fill="#D9D9D9"/>
<path d="M9.5 129C9.5 129 10.0242 133.892 12.0659 135.934C14.1076 137.976 19 138.5 19 138.5C19 138.5 14.1076 139.024 12.0659 141.066C10.0242 143.108 9.5 148 9.5 148C9.5 148 8.97584 143.108 6.93414 141.066C4.89244 139.024 0 138.5 0 138.5C0 138.5 4.89244 137.976 6.93414 135.934C8.97584 133.892 9.5 129 9.5 129Z" fill="#D49A67"/>
<path d="M13.5 412C13.5 412 14.0242 416.892 16.0659 418.934C18.1076 420.976 23 421.5 23 421.5C23 421.5 18.1076 422.024 16.0659 424.066C14.0242 426.108 13.5 431 13.5 431C13.5 431 12.9758 426.108 10.9341 424.066C8.89244 422.024 4 421.5 4 421.5C4 421.5 8.89244 420.976 10.9341 418.934C12.9758 416.892 13.5 412 13.5 412Z" fill="#D49A67"/>
<path d="M278.5 412C278.5 412 279.024 416.892 281.066 418.934C283.108 420.976 288 421.5 288 421.5C288 421.5 283.108 422.024 281.066 424.066C279.024 426.108 278.5 431 278.5 431C278.5 431 277.976 426.108 275.934 424.066C273.892 422.024 269 421.5 269 421.5C269 421.5 273.892 420.976 275.934 418.934C277.976 416.892 278.5 412 278.5 412Z" fill="#D49A67"/>
<path d="M9.5 151C9.5 151 10.0242 155.892 12.0659 157.934C14.1076 159.976 19 160.5 19 160.5C19 160.5 14.1076 161.024 12.0659 163.066C10.0242 165.108 9.5 170 9.5 170C9.5 170 8.97584 165.108 6.93414 163.066C4.89244 161.024 0 160.5 0 160.5C0 160.5 4.89244 159.976 6.93414 157.934C8.97584 155.892 9.5 151 9.5 151Z" fill="#D49A67"/>
<path d="M13.5 434C13.5 434 14.0242 438.892 16.0659 440.934C18.1076 442.976 23 443.5 23 443.5C23 443.5 18.1076 444.024 16.0659 446.066C14.0242 448.108 13.5 453 13.5 453C13.5 453 12.9758 448.108 10.9341 446.066C8.89244 444.024 4 443.5 4 443.5C4 443.5 8.89244 442.976 10.9341 440.934C12.9758 438.892 13.5 434 13.5 434Z" fill="#D49A67"/>
<path d="M278.5 434C278.5 434 279.024 438.892 281.066 440.934C283.108 442.976 288 443.5 288 443.5C288 443.5 283.108 444.024 281.066 446.066C279.024 448.108 278.5 453 278.5 453C278.5 453 277.976 448.108 275.934 446.066C273.892 444.024 269 443.5 269 443.5C269 443.5 273.892 442.976 275.934 440.934C277.976 438.892 278.5 434 278.5 434Z" fill="#D49A67"/>
<path d="M9.5 173C9.5 173 10.0242 177.892 12.0659 179.934C14.1076 181.976 19 182.5 19 182.5C19 182.5 14.1076 183.024 12.0659 185.066C10.0242 187.108 9.5 192 9.5 192C9.5 192 8.97584 187.108 6.93414 185.066C4.89244 183.024 0 182.5 0 182.5C0 182.5 4.89244 181.976 6.93414 179.934C8.97584 177.892 9.5 173 9.5 173Z" fill="#D49A67"/>
<path d="M13.5 456C13.5 456 14.0242 460.892 16.0659 462.934C18.1076 464.976 23 465.5 23 465.5C23 465.5 18.1076 466.024 16.0659 468.066C14.0242 470.108 13.5 475 13.5 475C13.5 475 12.9758 470.108 10.9341 468.066C8.89244 466.024 4 465.5 4 465.5C4 465.5 8.89244 464.976 10.9341 462.934C12.9758 460.892 13.5 456 13.5 456Z" fill="#D49A67"/>
<path d="M278.5 456C278.5 456 279.024 460.892 281.066 462.934C283.108 464.976 288 465.5 288 465.5C288 465.5 283.108 466.024 281.066 468.066C279.024 470.108 278.5 475 278.5 475C278.5 475 277.976 470.108 275.934 468.066C273.892 466.024 269 465.5 269 465.5C269 465.5 273.892 464.976 275.934 462.934C277.976 460.892 278.5 456 278.5 456Z" fill="#D49A67"/>
<rect x="4" y="268" width="46" height="46" rx="13" fill="#3B158B"/>
<path d="M12.1429 296.464C11.1176 298.165 10.5795 300.554 10.2991 302.718C10.157 303.814 11.7165 304.176 12.2945 303.234C12.9557 302.156 13.732 301.122 14.5849 300.411C17.9093 297.637 20.9949 298.286 25.5736 297.071C29.7487 295.964 32.1728 295.074 35.6465 292.518C39.7325 289.512 42.2025 287.668 43.5828 282.804C43.969 281.442 44.0374 279.711 43.9842 278.145C43.9485 277.094 42.5005 276.922 42.0484 277.871C41.4613 279.103 40.7345 280.38 39.9199 281.286C37.3566 284.135 34.7307 284.929 31.3731 286.143C28.0155 287.357 26.184 287.054 21.3002 289.179C17.1045 291.004 14.4982 292.558 12.1429 296.464Z" fill="#D49A67"/>
<rect x="58" y="268" width="46" height="46" rx="13" fill="#3B158B"/>
<path d="M85.5 278C87.9853 278 90 280.015 90 282.5C90 284.985 87.9853 287 85.5 287H81V300.5C81 302.985 78.9853 305 76.5 305C74.0147 305 72 302.985 72 300.5C72 298.015 74.0147 296 76.5 296C74.0147 296 72 293.985 72 291.5C72 289.015 74.0147 287 76.5 287C74.0147 287 72 284.985 72 282.5C72 280.015 74.0147 278 76.5 278H85.5ZM85.5 287C87.9853 287 90 289.015 90 291.5C90 293.985 87.9853 296 85.5 296C83.0147 296 81 293.985 81 291.5C81 289.015 83.0147 287 85.5 287Z" fill="#D49A67"/>
<rect x="112" y="268" width="46" height="46" rx="13" fill="#3B158B"/>
<mask id="path-27-outside-1_502_11920" maskUnits="userSpaceOnUse" x="116" y="281" width="38" height="19" fill="black">
<rect fill="white" x="116" y="281" width="38" height="19"/>
<path d="M129.2 284.6H122C120.68 284.6 119.6 285.68 119.6 287V291.8H131.6V287C131.6 285.68 130.52 284.6 129.2 284.6ZM134 287V299H131.6V294.2H119.6V299H117.2V287C117.2 284.456 119.312 282.2 122 282.2H129.2C131.768 282.2 133.928 284.336 134 287ZM138.795 284.6V289.4H150.795V291.8H138.795V296.6H153.195V299H136.395V282.2H153.195V284.6H138.795Z"/>
</mask>
<path d="M129.2 284.6H122C120.68 284.6 119.6 285.68 119.6 287V291.8H131.6V287C131.6 285.68 130.52 284.6 129.2 284.6ZM134 287V299H131.6V294.2H119.6V299H117.2V287C117.2 284.456 119.312 282.2 122 282.2H129.2C131.768 282.2 133.928 284.336 134 287ZM138.795 284.6V289.4H150.795V291.8H138.795V296.6H153.195V299H136.395V282.2H153.195V284.6H138.795Z" fill="#D49A67"/>
<path d="M119.6 291.8H119.1V292.3H119.6V291.8ZM131.6 291.8V292.3H132.1V291.8H131.6ZM134 287H134.5L134.5 286.986L134 287ZM134 299V299.5H134.5V299H134ZM131.6 299H131.1V299.5H131.6V299ZM131.6 294.2H132.1V293.7H131.6V294.2ZM119.6 294.2V293.7H119.1V294.2H119.6ZM119.6 299V299.5H120.1V299H119.6ZM117.2 299H116.7V299.5H117.2V299ZM129.2 284.6V284.1H122V284.6V285.1H129.2V284.6ZM122 284.6V284.1C120.404 284.1 119.1 285.404 119.1 287H119.6H120.1C120.1 285.956 120.956 285.1 122 285.1V284.6ZM119.6 287H119.1V291.8H119.6H120.1V287H119.6ZM119.6 291.8V292.3H131.6V291.8V291.3H119.6V291.8ZM131.6 291.8H132.1V287H131.6H131.1V291.8H131.6ZM131.6 287H132.1C132.1 285.404 130.796 284.1 129.2 284.1V284.6V285.1C130.244 285.1 131.1 285.956 131.1 287H131.6ZM134 287H133.5V299H134H134.5V287H134ZM134 299V298.5H131.6V299V299.5H134V299ZM131.6 299H132.1V294.2H131.6H131.1V299H131.6ZM131.6 294.2V293.7H119.6V294.2V294.7H131.6V294.2ZM119.6 294.2H119.1V299H119.6H120.1V294.2H119.6ZM119.6 299V298.5H117.2V299V299.5H119.6V299ZM117.2 299H117.7V287H117.2H116.7V299H117.2ZM117.2 287H117.7C117.7 284.722 119.598 282.7 122 282.7V282.2V281.7C119.026 281.7 116.7 284.19 116.7 287H117.2ZM122 282.2V282.7H129.2V282.2V281.7H122V282.2ZM129.2 282.2V282.7C131.486 282.7 133.435 284.609 133.5 287.014L134 287L134.5 286.986C134.421 284.063 132.05 281.7 129.2 281.7V282.2ZM138.795 284.6V284.1H138.295V284.6H138.795ZM138.795 289.4H138.295V289.9H138.795V289.4ZM150.795 289.4H151.295V288.9H150.795V289.4ZM150.795 291.8V292.3H151.295V291.8H150.795ZM138.795 291.8V291.3H138.295V291.8H138.795ZM138.795 296.6H138.295V297.1H138.795V296.6ZM153.195 296.6H153.695V296.1H153.195V296.6ZM153.195 299V299.5H153.695V299H153.195ZM136.395 299H135.895V299.5H136.395V299ZM136.395 282.2V281.7H135.895V282.2H136.395ZM153.195 282.2H153.695V281.7H153.195V282.2ZM153.195 284.6V285.1H153.695V284.6H153.195ZM138.795 284.6H138.295V289.4H138.795H139.295V284.6H138.795ZM138.795 289.4V289.9H150.795V289.4V288.9H138.795V289.4ZM150.795 289.4H150.295V291.8H150.795H151.295V289.4H150.795ZM150.795 291.8V291.3H138.795V291.8V292.3H150.795V291.8ZM138.795 291.8H138.295V296.6H138.795H139.295V291.8H138.795ZM138.795 296.6V297.1H153.195V296.6V296.1H138.795V296.6ZM153.195 296.6H152.695V299H153.195H153.695V296.6H153.195ZM153.195 299V298.5H136.395V299V299.5H153.195V299ZM136.395 299H136.895V282.2H136.395H135.895V299H136.395ZM136.395 282.2V282.7H153.195V282.2V281.7H136.395V282.2ZM153.195 282.2H152.695V284.6H153.195H153.695V282.2H153.195ZM153.195 284.6V284.1H138.795V284.6V285.1H153.195V284.6Z" fill="#D49A67" mask="url(#path-27-outside-1_502_11920)"/>
<rect x="166" y="268" width="46" height="46" rx="13" fill="#3B158B"/>
<mask id="path-30-outside-2_502_11920" maskUnits="userSpaceOnUse" x="177" y="281" width="24" height="19" fill="black">
<rect fill="white" x="177" y="281" width="24" height="19"/>
<path d="M190.2 284.6H183C181.68 284.6 180.6 285.68 180.6 287V291.8H192.6V287C192.6 285.68 191.52 284.6 190.2 284.6ZM195 287V299H192.6V294.2H180.6V299H178.2V287C178.2 284.456 180.312 282.2 183 282.2H190.2C192.768 282.2 194.928 284.336 195 287ZM197.395 299V282.2H199.795V299H197.395Z"/>
</mask>
<path d="M190.2 284.6H183C181.68 284.6 180.6 285.68 180.6 287V291.8H192.6V287C192.6 285.68 191.52 284.6 190.2 284.6ZM195 287V299H192.6V294.2H180.6V299H178.2V287C178.2 284.456 180.312 282.2 183 282.2H190.2C192.768 282.2 194.928 284.336 195 287ZM197.395 299V282.2H199.795V299H197.395Z" fill="#D49A67"/>
<path d="M180.6 291.8H180.1V292.3H180.6V291.8ZM192.6 291.8V292.3H193.1V291.8H192.6ZM195 287H195.5L195.5 286.986L195 287ZM195 299V299.5H195.5V299H195ZM192.6 299H192.1V299.5H192.6V299ZM192.6 294.2H193.1V293.7H192.6V294.2ZM180.6 294.2V293.7H180.1V294.2H180.6ZM180.6 299V299.5H181.1V299H180.6ZM178.2 299H177.7V299.5H178.2V299ZM190.2 284.6V284.1H183V284.6V285.1H190.2V284.6ZM183 284.6V284.1C181.404 284.1 180.1 285.404 180.1 287H180.6H181.1C181.1 285.956 181.956 285.1 183 285.1V284.6ZM180.6 287H180.1V291.8H180.6H181.1V287H180.6ZM180.6 291.8V292.3H192.6V291.8V291.3H180.6V291.8ZM192.6 291.8H193.1V287H192.6H192.1V291.8H192.6ZM192.6 287H193.1C193.1 285.404 191.796 284.1 190.2 284.1V284.6V285.1C191.244 285.1 192.1 285.956 192.1 287H192.6ZM195 287H194.5V299H195H195.5V287H195ZM195 299V298.5H192.6V299V299.5H195V299ZM192.6 299H193.1V294.2H192.6H192.1V299H192.6ZM192.6 294.2V293.7H180.6V294.2V294.7H192.6V294.2ZM180.6 294.2H180.1V299H180.6H181.1V294.2H180.6ZM180.6 299V298.5H178.2V299V299.5H180.6V299ZM178.2 299H178.7V287H178.2H177.7V299H178.2ZM178.2 287H178.7C178.7 284.722 180.598 282.7 183 282.7V282.2V281.7C180.026 281.7 177.7 284.19 177.7 287H178.2ZM183 282.2V282.7H190.2V282.2V281.7H183V282.2ZM190.2 282.2V282.7C192.486 282.7 194.435 284.609 194.5 287.014L195 287L195.5 286.986C195.421 284.063 193.05 281.7 190.2 281.7V282.2ZM197.395 299H196.895V299.5H197.395V299ZM197.395 282.2V281.7H196.895V282.2H197.395ZM199.795 282.2H200.295V281.7H199.795V282.2ZM199.795 299V299.5H200.295V299H199.795ZM197.395 299H197.895V282.2H197.395H196.895V299H197.395ZM197.395 282.2V282.7H199.795V282.2V281.7H197.395V282.2ZM199.795 282.2H199.295V299H199.795H200.295V282.2H199.795ZM199.795 299V298.5H197.395V299V299.5H199.795V299Z" fill="#D49A67" mask="url(#path-30-outside-2_502_11920)"/>
<rect x="220" y="268" width="46" height="46" rx="13" fill="#3B158B"/>
<mask id="path-33-outside-3_502_11920" maskUnits="userSpaceOnUse" x="224" y="281" width="38" height="19" fill="black">
<rect fill="white" x="224" y="281" width="38" height="19"/>
<path d="M239.756 289.4V287C239.756 285.68 238.676 284.6 237.356 284.6H227.756V291.8H237.356C238.676 291.8 239.756 290.72 239.756 289.4ZM242.156 287V289.4C242.156 291.944 240.044 294.2 237.356 294.2H227.756V299H225.356V282.2H237.356C239.924 282.2 242.084 284.336 242.156 287ZM258.483 289.4V287C258.483 285.68 257.403 284.6 256.083 284.6H246.483V291.8H256.083C257.403 291.8 258.483 290.72 258.483 289.4ZM260.883 299H259.179L254.379 294.2H246.483V299H244.083V282.2H256.083C258.603 282.2 260.883 284.336 260.883 287V289.4C260.883 291.44 259.539 293.288 257.547 293.96L260.883 297.296V299Z"/>
</mask>
<path d="M239.756 289.4V287C239.756 285.68 238.676 284.6 237.356 284.6H227.756V291.8H237.356C238.676 291.8 239.756 290.72 239.756 289.4ZM242.156 287V289.4C242.156 291.944 240.044 294.2 237.356 294.2H227.756V299H225.356V282.2H237.356C239.924 282.2 242.084 284.336 242.156 287ZM258.483 289.4V287C258.483 285.68 257.403 284.6 256.083 284.6H246.483V291.8H256.083C257.403 291.8 258.483 290.72 258.483 289.4ZM260.883 299H259.179L254.379 294.2H246.483V299H244.083V282.2H256.083C258.603 282.2 260.883 284.336 260.883 287V289.4C260.883 291.44 259.539 293.288 257.547 293.96L260.883 297.296V299Z" fill="#D49A67"/>
<path d="M227.756 284.6V284.1H227.256V284.6H227.756ZM227.756 291.8H227.256V292.3H227.756V291.8ZM242.156 287H242.656L242.656 286.986L242.156 287ZM227.756 294.2V293.7H227.256V294.2H227.756ZM227.756 299V299.5H228.256V299H227.756ZM225.356 299H224.856V299.5H225.356V299ZM225.356 282.2V281.7H224.856V282.2H225.356ZM239.756 289.4H240.256V287H239.756H239.256V289.4H239.756ZM239.756 287H240.256C240.256 285.404 238.952 284.1 237.356 284.1V284.6V285.1C238.4 285.1 239.256 285.956 239.256 287H239.756ZM237.356 284.6V284.1H227.756V284.6V285.1H237.356V284.6ZM227.756 284.6H227.256V291.8H227.756H228.256V284.6H227.756ZM227.756 291.8V292.3H237.356V291.8V291.3H227.756V291.8ZM237.356 291.8V292.3C238.952 292.3 240.256 290.996 240.256 289.4H239.756H239.256C239.256 290.444 238.4 291.3 237.356 291.3V291.8ZM242.156 287H241.656V289.4H242.156H242.656V287H242.156ZM242.156 289.4H241.656C241.656 291.678 239.758 293.7 237.356 293.7V294.2V294.7C240.33 294.7 242.656 292.21 242.656 289.4H242.156ZM237.356 294.2V293.7H227.756V294.2V294.7H237.356V294.2ZM227.756 294.2H227.256V299H227.756H228.256V294.2H227.756ZM227.756 299V298.5H225.356V299V299.5H227.756V299ZM225.356 299H225.856V282.2H225.356H224.856V299H225.356ZM225.356 282.2V282.7H237.356V282.2V281.7H225.356V282.2ZM237.356 282.2V282.7C239.642 282.7 241.591 284.609 241.656 287.014L242.156 287L242.656 286.986C242.577 284.063 240.206 281.7 237.356 281.7V282.2ZM246.483 284.6V284.1H245.983V284.6H246.483ZM246.483 291.8H245.983V292.3H246.483V291.8ZM260.883 299V299.5H261.383V299H260.883ZM259.179 299L258.825 299.354L258.972 299.5H259.179V299ZM254.379 294.2L254.732 293.846L254.586 293.7H254.379V294.2ZM246.483 294.2V293.7H245.983V294.2H246.483ZM246.483 299V299.5H246.983V299H246.483ZM244.083 299H243.583V299.5H244.083V299ZM244.083 282.2V281.7H243.583V282.2H244.083ZM257.547 293.96L257.387 293.486L256.624 293.744L257.193 294.314L257.547 293.96ZM260.883 297.296H261.383V297.089L261.236 296.942L260.883 297.296ZM258.483 289.4H258.983V287H258.483H257.983V289.4H258.483ZM258.483 287H258.983C258.983 285.404 257.679 284.1 256.083 284.1V284.6V285.1C257.127 285.1 257.983 285.956 257.983 287H258.483ZM256.083 284.6V284.1H246.483V284.6V285.1H256.083V284.6ZM246.483 284.6H245.983V291.8H246.483H246.983V284.6H246.483ZM246.483 291.8V292.3H256.083V291.8V291.3H246.483V291.8ZM256.083 291.8V292.3C257.679 292.3 258.983 290.996 258.983 289.4H258.483H257.983C257.983 290.444 257.127 291.3 256.083 291.3V291.8ZM260.883 299V298.5H259.179V299V299.5H260.883V299ZM259.179 299L259.532 298.646L254.732 293.846L254.379 294.2L254.025 294.554L258.825 299.354L259.179 299ZM254.379 294.2V293.7H246.483V294.2V294.7H254.379V294.2ZM246.483 294.2H245.983V299H246.483H246.983V294.2H246.483ZM246.483 299V298.5H244.083V299V299.5H246.483V299ZM244.083 299H244.583V282.2H244.083H243.583V299H244.083ZM244.083 282.2V282.7H256.083V282.2V281.7H244.083V282.2ZM256.083 282.2V282.7C258.336 282.7 260.383 284.622 260.383 287H260.883H261.383C261.383 284.05 258.869 281.7 256.083 281.7V282.2ZM260.883 287H260.383V289.4H260.883H261.383V287H260.883ZM260.883 289.4H260.383C260.383 291.219 259.182 292.881 257.387 293.486L257.547 293.96L257.707 294.434C259.896 293.695 261.383 291.661 261.383 289.4H260.883ZM257.547 293.96L257.193 294.314L260.529 297.65L260.883 297.296L261.236 296.942L257.9 293.606L257.547 293.96ZM260.883 297.296H260.383V299H260.883H261.383V297.296H260.883Z" fill="#D49A67" mask="url(#path-33-outside-3_502_11920)"/>
</svg>
